<svg width="110" height="27" viewBox="0 0 110 27" fill="none" xmlns="http://www.w3.org/2000/svg">
<path d="M45.0929 14.0696V21.9599H41.109V14.3774C41.109 13.7812 40.9777 13.3098 40.713 12.9612C40.4483 12.6125 40.0609 12.4382 39.5508 12.4382C38.8362 12.4382 37.8655 12.7954 36.6408 13.51V21.9621H32.6569V4.2142L36.6408 3.93225V10.3676C37.3038 10.0104 37.9903 9.72195 38.6963 9.50026C39.4022 9.27857 40.0802 9.16881 40.7259 9.16881C43.6358 9.16665 45.0929 10.8024 45.0929 14.0696Z" fill="#383A3E"/>
<path d="M58.5728 3.93225V21.9599H54.5889V4.2142L58.5728 3.93225Z" fill="#383A3E"/>
<path d="M67.2036 9.19247C68.4627 9.19247 69.5281 9.48304 70.3954 10.0599C71.2628 10.6388 71.915 11.4137 72.3497 12.3843C72.7845 13.355 73.0019 14.4441 73.0019 15.6537V16.8547H65.0599C65.4344 18.301 66.5234 19.0242 68.3292 19.0242C69.5044 19.0242 70.6688 18.7014 71.8267 18.0535L72.9502 20.8364C72.3713 21.2626 71.661 21.6027 70.8173 21.8588C69.9736 22.1149 69.0502 22.2419 68.0473 22.2419C65.783 22.2419 64.0009 21.6715 62.6988 20.5308C61.3966 19.3901 60.7445 17.8081 60.7445 15.7807C60.7445 14.4527 61.0157 13.2905 61.5624 12.2961C62.1069 11.2996 62.8688 10.5334 63.8481 9.99744C64.8253 9.46151 65.9445 9.19247 67.2036 9.19247ZM67.1024 12.4877C66.5407 12.4877 66.0693 12.6792 65.6862 13.0623C65.3031 13.4454 65.0771 13.9512 65.0104 14.5818H69.1988C69.0976 13.9512 68.8716 13.4454 68.5229 13.0623C68.17 12.6792 67.6986 12.4877 67.1024 12.4877Z" fill="#383A3E"/>
<path d="M79.4351 12.6146C78.9423 12.6146 78.3805 12.6921 77.7499 12.8449C77.1192 12.9977 76.5661 13.185 76.0904 13.4067L75.0186 10.3418C75.5803 10.0362 76.3552 9.76714 77.3431 9.53684C78.331 9.30655 79.2156 9.19247 79.999 9.19247C81.0364 9.19247 81.9555 9.39694 82.7561 9.80588C83.5568 10.2148 84.1723 10.7895 84.6071 11.5299C85.0419 12.2703 85.2593 13.1183 85.2593 14.0696V21.9599H83.0359L82.0911 20.6578C81.172 21.7146 80.1583 22.2419 79.052 22.2419C77.554 22.2419 76.4219 21.8717 75.6557 21.1313C74.8895 20.3909 74.5064 19.3815 74.5064 18.1052C74.5064 16.8461 74.9325 15.9012 75.7827 15.2706C76.6328 14.64 77.7994 14.3257 79.2802 14.3257H81.2215C81.1871 13.7812 81.0128 13.3593 80.6985 13.0623C80.3843 12.7631 79.9624 12.6146 79.4351 12.6146ZM79.3081 16.7255C78.882 16.7255 78.5376 16.8525 78.275 17.1086C78.0103 17.3648 77.879 17.6876 77.879 18.0793C77.879 18.385 77.9888 18.6497 78.2105 18.8714C78.4322 19.0931 78.7206 19.2028 79.0778 19.2028C79.8268 19.2028 80.55 18.88 81.2474 18.2322V16.7255H79.3081Z" fill="#383A3E"/>
<path d="M93.9007 13.2668C93.1259 13.5983 92.4329 14.0287 91.8195 14.556V21.9621H87.8097V9.60143H89.8523L90.9758 11.3642C91.572 10.9036 92.2607 10.4925 93.0441 10.1266C93.8276 9.7607 94.5335 9.57776 95.1641 9.57776L95.9562 12.7696C95.36 12.7675 94.6756 12.9332 93.9007 13.2668Z" fill="#383A3E"/>
<path d="M104.46 12.436C103.745 12.436 102.775 12.7933 101.55 13.5079V21.96H97.5403V9.57561H100.018L100.706 10.8778C101.455 10.3677 102.269 9.95441 103.145 9.64018C104.021 9.32594 104.852 9.16882 105.635 9.16882C107.168 9.16882 108.278 9.60789 108.967 10.4839C109.656 11.3599 110 12.5565 110 14.0718V21.9621H105.99V14.3774C105.99 13.7812 105.863 13.3099 105.607 12.9612C105.353 12.6104 104.97 12.436 104.46 12.436Z" fill="#383A3E"/>
<path d="M51.8835 5.66916C51.8835 6.26535 51.6661 6.77975 51.2313 7.21452C50.7966 7.64928 50.2735 7.86667 49.6601 7.86667C49.0639 7.86667 48.5495 7.64928 48.1148 7.21452C47.68 6.77975 47.4626 6.26535 47.4626 5.66916C47.4626 5.05576 47.68 4.53275 48.1148 4.09798C48.5495 3.66321 49.0639 3.44583 49.6601 3.44583C50.2735 3.44583 50.7966 3.66321 51.2313 4.09798C51.6661 4.53275 51.8835 5.05576 51.8835 5.66916Z" fill="#383A3E"/>
<path d="M51.6811 9.57559H47.6714V21.9599H51.6811V9.57559Z" fill="#383A3E"/>
<path d="M1.31721 20.533H0V0H8.34449V7.90541H14.0546V0H22.3969V12.7352H21.0797V1.31721H15.3718V9.22262H7.02728V1.31721H1.31721V20.533Z" fill="#EEBD20"/>
<path d="M1.33012 20.533C0.591883 20.533 0.609102 20.4964 0.544533 20.4856L0.774829 19.1878C0.785591 19.1899 2.09204 19.4052 3.96455 19.0221C6.46553 18.5077 8.74266 17.2227 10.7314 15.2039C15.2857 10.5743 21.5661 11.39 21.833 11.4266L21.6522 12.7309L21.7426 12.0787L21.6522 12.7309C21.6414 12.7287 21.0452 12.7481 21.0452 12.7481C19.4719 12.6771 15.0016 12.7416 11.6698 16.1272C7.84085 20.0164 3.32531 20.533 1.33012 20.533Z" fill="#EEBD20"/>
<path d="M0.0473518 24.179V22.7993C0.124835 22.7929 8.53389 22.1644 12.0637 18.8219C15.955 15.135 22.0891 15.0919 22.3237 15.0919V16.4092C22.272 16.4092 16.4716 16.4587 12.9698 19.7775C9.09779 23.4472 0.387416 24.1553 0.0473518 24.179Z" fill="#EEBD20"/>
<path d="M1.87035 26.3571C1.13211 26.3571 0.118378 26.2559 0.0473518 26.2495V24.9689C0.114073 24.9732 7.43621 25.4144 11.9991 22.8897C16.9042 20.1757 22.1235 20.4232 22.3237 20.4361V21.8157C22.2785 21.8136 17.1905 21.523 12.6362 24.0434C8.93852 26.0881 4.13458 26.3571 1.87035 26.3571Z" fill="#EEBD20"/>
</svg>
