<svg width="36" height="37" viewBox="0 0 36 37" fill="none" xmlns="http://www.w3.org/2000/svg">
<g clip-path="url(#clip0_2_4809)">
<path d="M7.5 8.09961V29.0996H28.5V8.09961H7.5ZM21 26.0996H10.5V23.0996H21V26.0996ZM25.5 20.0996H10.5V17.0996H25.5V20.0996ZM25.5 14.0996H10.5V11.0996H25.5V14.0996Z" fill="#EEBD20"/>
<path d="M10.5 23.0996H21V26.0996H10.5V23.0996ZM10.5 17.0996H25.5V20.0996H10.5V17.0996ZM10.5 11.0996H25.5V14.0996H10.5V11.0996ZM28.5 5.09961H22.23C21.6 3.35961 19.95 2.09961 18 2.09961C16.05 2.09961 14.4 3.35961 13.77 5.09961H7.5C7.29 5.09961 7.095 5.11461 6.9 5.15961C6.315 5.27961 5.79 5.57961 5.385 5.98461C5.115 6.25461 4.89 6.58461 4.74 6.94461C4.59 7.30461 4.5 7.67961 4.5 8.09961V29.0996C4.5 29.5046 4.59 29.9096 4.74 30.2696C4.89 30.6296 5.115 30.9446 5.385 31.2296C5.79 31.6346 6.315 31.9346 6.9 32.0546C7.095 32.0846 7.29 32.0996 7.5 32.0996H28.5C30.15 32.0996 31.5 30.7496 31.5 29.0996V8.09961C31.5 6.44961 30.15 5.09961 28.5 5.09961ZM18 4.72461C18.615 4.72461 19.125 5.23461 19.125 5.84961C19.125 6.46461 18.615 6.97461 18 6.97461C17.385 6.97461 16.875 6.46461 16.875 5.84961C16.875 5.23461 17.385 4.72461 18 4.72461ZM28.5 29.0996H7.5V8.09961H28.5V29.0996Z" fill="#1C1C1C"/>
</g>
<defs>
<clipPath id="clip0_2_4809">
<rect width="36" height="36" fill="white" transform="translate(0 0.599609)"/>
</clipPath>
</defs>
</svg>
