<svg width="24" height="25" viewBox="0 0 24 25" fill="none" xmlns="http://www.w3.org/2000/svg">
<g clip-path="url(#clip0_230_6204)">
<path fill-rule="evenodd" clip-rule="evenodd" d="M12 0.333496C18.6274 0.333496 24 5.70607 24 12.3335C24 18.3229 19.6118 23.2875 13.875 24.1877V15.8022H16.6711L17.2031 12.3335H17.2031L17.2031 12.3333H13.875V10.0835C13.875 9.94808 13.8844 9.81317 13.905 9.68137C13.9844 9.17152 14.2298 8.70787 14.7352 8.44208C15.0152 8.29493 15.375 8.2085 15.8306 8.2085H17.3438V5.25537C17.3438 5.25537 17.3437 5.25537 17.3437 5.25537V5.2552C17.3437 5.2552 15.9705 5.02082 14.6576 5.02082C11.9165 5.02082 10.125 6.68207 10.125 9.68957V12.3333H7.07811V15.8021H7.07812V15.8022H10.125V24.1875C10.125 24.1875 10.125 24.1875 10.125 24.1875V24.1877C4.3882 23.2875 0 18.3229 0 12.3335C0 5.70607 5.37258 0.333496 12 0.333496Z" fill="#1C1C1C"/>
</g>
<defs>
<clipPath id="clip0_230_6204">
<rect width="24" height="24" fill="white" transform="translate(0 0.333496)"/>
</clipPath>
</defs>
</svg>
