<svg width="60" height="61" viewBox="0 0 60 61" fill="none" xmlns="http://www.w3.org/2000/svg">
<rect y="0.912109" width="60" height="60" rx="16" fill="#ECE6D5"/>
<path d="M30 15.9121C28.7919 15.9121 27.624 16.3955 26.7686 17.251L23.1914 20.8281L22.1338 21.8857L16.3418 27.6807C15.484 28.5363 15 29.704 15 30.9121C15 32.1183 15.4801 33.287 16.3389 34.1436L18.6035 36.4082L19.9336 37.7383L26.7686 44.5732C27.624 45.4287 28.7919 45.9121 30 45.9121C31.2081 45.9121 32.3806 45.4323 33.2373 44.5645L41.1416 36.6631L43.6641 34.1465L43.667 34.1436C44.5076 33.2963 44.9948 32.1466 45 30.9414C45.0103 29.7175 44.5202 28.5397 43.6611 27.6807L42.5098 26.5322L37.6084 21.6279L33.2373 17.2539C32.3787 16.3908 31.2081 15.9121 30 15.9121ZM30 18.9121C30.4329 18.9121 30.811 19.0682 31.1104 19.3691L31.1133 19.3721L33.3691 21.6279L29.7422 25.2578L26.373 21.8857L28.8896 19.3721C29.1952 19.0666 29.5671 18.9121 30 18.9121ZM35.4873 23.749L38.3994 26.6641L34.752 30.2705L31.8633 27.3789L35.4873 23.749ZM24.2549 24.0098L27.6211 27.3789L20.7217 34.2871L18.457 32.0225V32.0195C18.1518 31.7151 18 31.3469 18 30.9121C18 30.4792 18.1538 30.1101 18.46 29.8047V29.8018L24.2549 24.0098ZM40.5234 28.7852L41.54 29.8018C41.8504 30.1121 42.0039 30.4839 42 30.918V30.9209V30.9268C41.9985 31.3466 41.8418 31.7241 41.5371 32.0312L39.0205 34.542L36.873 32.3916L40.5234 28.7852ZM29.7422 29.5029L36.8994 36.6631L31.1074 42.4551L31.1016 42.458C30.8093 42.7541 30.4329 42.9121 30 42.9121C29.5671 42.9121 29.1952 42.7577 28.8896 42.4521L22.8457 36.4082L29.7422 29.5029Z" fill="black"/>
</svg>
