<svg width="32" height="32" viewBox="0 0 32 32" fill="none" xmlns="http://www.w3.org/2000/svg">
<path d="M5.33317 5.33331H26.6665C28.1332 5.33331 29.3332 6.53331 29.3332 7.99998V24C29.3332 25.4666 28.1332 26.6666 26.6665 26.6666H5.33317C3.8665 26.6666 2.6665 25.4666 2.6665 24V7.99998C2.6665 6.53331 3.8665 5.33331 5.33317 5.33331Z" stroke="black" stroke-width="2" stroke-linecap="round" stroke-linejoin="round"/>
<path d="M5.33317 5.33331H26.6665C28.1332 5.33331 29.3332 6.53331 29.3332 7.99998V24C29.3332 25.4666 28.1332 26.6666 26.6665 26.6666H5.33317C3.8665 26.6666 2.6665 25.4666 2.6665 24V7.99998C2.6665 6.53331 3.8665 5.33331 5.33317 5.33331Z" fill="#EEBD20" stroke="black" stroke-width="2" stroke-linecap="round" stroke-linejoin="round"/>
<path d="M29.3332 8L15.9998 17.3333L2.6665 8" stroke="black" stroke-width="2" stroke-linecap="round" stroke-linejoin="round"/>
</svg>
