<svg width="60" height="61" viewBox="0 0 60 61" fill="none" xmlns="http://www.w3.org/2000/svg">
<rect y="0.912109" width="60" height="60" rx="16" fill="#ECE6D5"/>
<g clip-path="url(#clip0_203_13537)">
<path d="M42 24.9121H37.785C37.11 23.7421 36.18 22.7371 35.055 21.9721L37.5 19.5271L35.385 17.4121L32.13 20.6671C31.44 20.5021 30.735 20.4121 30 20.4121C29.265 20.4121 28.56 20.5021 27.885 20.6671L24.615 17.4121L22.5 19.5271L24.93 21.9721C23.82 22.7371 22.89 23.7421 22.215 24.9121H18V27.9121H21.135C21.06 28.4071 21 28.9021 21 29.4121V30.9121H18V33.9121H21V35.4121C21 35.9221 21.06 36.4171 21.135 36.9121H18V39.9121H22.215C23.775 42.5971 26.67 44.4121 30 44.4121C33.33 44.4121 36.225 42.5971 37.785 39.9121H42V36.9121H38.865C38.94 36.4171 39 35.9221 39 35.4121V33.9121H42V30.9121H39V29.4121C39 28.9021 38.94 28.4071 38.865 27.9121H42V24.9121ZM36 30.9121V35.4121C36 35.7421 35.955 36.1171 35.895 36.4621L35.745 37.4371L35.19 38.4121C34.11 40.2721 32.13 41.4121 30 41.4121C27.87 41.4121 25.89 40.2571 24.81 38.4121L24.255 37.4521L24.105 36.4771C24.045 36.1321 24 35.7571 24 35.4121V29.4121C24 29.0671 24.045 28.6921 24.105 28.3621L24.255 27.3871L24.81 26.4121C25.26 25.6321 25.89 24.9571 26.625 24.4471L27.48 23.8621L28.59 23.5921C29.055 23.4721 29.535 23.4121 30 23.4121C30.48 23.4121 30.945 23.4721 31.425 23.5921L32.445 23.8321L33.36 24.4621C34.11 24.9721 34.725 25.6321 35.175 26.4271L35.745 27.4021L35.895 28.3771C35.955 28.7071 36 29.0821 36 29.4121V30.9121ZM27 33.9121H33V36.9121H27V33.9121ZM27 27.9121H33V30.9121H27V27.9121Z" fill="black"/>
</g>
<defs>
<clipPath id="clip0_203_13537">
<rect width="36" height="36" fill="white" transform="translate(12 12.9121)"/>
</clipPath>
</defs>
</svg>
