<svg width="36" height="37" fill="none" xmlns="http://www.w3.org/2000/svg"><g clip-path="url(#a)"><path d="M7.5 8.1v21h21v-21h-21Zm13.5 18H10.5v-3H21v3Zm4.5-6h-15v-3h15v3Zm0-6h-15v-3h15v3Z" fill="#EEBD20"/><path d="M10.5 23.1H21v3H10.5v-3Zm0-6h15v3h-15v-3Zm0-6h15v3h-15v-3Zm18-6h-6.27c-.63-1.74-2.28-3-4.23-3-1.95 0-3.6 1.26-4.23 3H7.5c-.21 0-.405.015-.6.06-.585.12-1.11.42-1.515.825-.27.27-.495.6-.645.96-.15.36-.24.735-.24 1.155v21c0 .405.09.81.24 1.17.15.36.375.675.645.96.405.405.93.705 1.515.825.195.03.39.045.6.045h21c1.65 0 3-1.35 3-3v-21c0-1.65-1.35-3-3-3ZM18 4.725c.615 0 1.125.51 1.125 1.125S18.615 6.975 18 6.975s-1.125-.51-1.125-1.125.51-1.125 1.125-1.125ZM28.5 29.1h-21v-21h21v21Z" fill="#1C1C1C"/></g><defs><clipPath id="a"><path fill="#fff" transform="translate(0 .6)" d="M0 0h36v36H0z"/></clipPath></defs></svg>