<svg width="143" height="217" fill="none" xmlns="http://www.w3.org/2000/svg"><mask id="a" style="mask-type:alpha" maskUnits="userSpaceOnUse" x="0" y="0" width="143" height="217"><path fill="#D9D9D9" d="M0 0h143v217H0z"/></mask><g mask="url(#a)" fill="#EEBD20"><path d="M134.491 116.57c1.285.367 2.079 1.775 1.651 3.121-.428 1.286-1.834 2.02-3.118 1.592-1.284-.429-1.957-1.836-1.529-3.06.367-1.286 1.651-2.02 2.996-1.653Zm2.446-9.487c1.345.306 2.14 1.652 1.835 2.999-.306 1.346-1.713 2.142-2.997 1.775-1.345-.367-2.018-1.653-1.773-2.938a2.44 2.44 0 0 1 2.935-1.836Zm1.896-9.67c1.345.183 2.262 1.469 2.018 2.876-.245 1.347-1.468 2.265-2.813 2.02-1.346-.245-2.202-1.53-2.018-2.877.183-1.346 1.467-2.264 2.813-2.02Zm1.223-9.793a2.381 2.381 0 0 1 2.14 2.694c-.184 1.346-1.345 2.325-2.691 2.203-1.345-.184-2.324-1.408-2.14-2.693.122-1.346 1.345-2.326 2.691-2.203Zm.55-9.853c1.346 0 2.508 1.163 2.385 2.57-.061 1.408-1.223 2.448-2.568 2.387-1.345-.061-2.385-1.224-2.324-2.57.061-1.347 1.101-2.387 2.507-2.387Zm-.183-9.854c1.345-.061 2.507.979 2.568 2.387.062 1.407-1.039 2.509-2.385 2.57a2.496 2.496 0 0 1-2.507-2.387c-.061-1.346.979-2.448 2.324-2.57Zm-.857-9.793c1.346-.183 2.569.796 2.691 2.204.122 1.408-.856 2.632-2.201 2.693-1.346.122-2.569-.857-2.691-2.203-.061-1.286.917-2.51 2.201-2.693Zm-1.773-9.67c1.346-.305 2.63.551 2.997 1.898.244 1.346-.673 2.693-1.957 2.938-1.345.245-2.568-.612-2.813-1.959-.367-1.285.489-2.57 1.773-2.876Zm-2.69-9.486c1.284-.49 2.629.245 3.057 1.591.428 1.346-.306 2.754-1.59 3.121-1.284.368-2.69-.367-3.057-1.59-.367-1.286.305-2.633 1.59-3.122Zm-4.036-8.997c1.162-.673 2.69-.184 3.302 1.102.673 1.285.122 2.754-1.162 3.305-1.223.55-2.629 0-3.241-1.163-.55-1.102-.061-2.57 1.101-3.244Zm-5.504-8.079c1.039-.918 2.568-.735 3.546.367.918 1.102.551 2.754-.55 3.488-1.162.796-2.568.429-3.363-.55-.856-.919-.673-2.387.367-3.305Zm-7.093-6.855c.856-1.102 2.385-1.163 3.424-.184 1.04.98 1.101 2.571.184 3.489a2.48 2.48 0 0 1-3.425.184c-.917-.918-.978-2.448-.183-3.489Zm-8.133-5.569c.672-1.163 2.201-1.592 3.485-.857a2.445 2.445 0 0 1 .673 3.489c-.795 1.101-2.263 1.346-3.302.673-1.101-.612-1.468-2.081-.856-3.305Zm-8.868-4.101c.428-1.286 1.896-1.898 3.18-1.347 1.345.551 1.957 1.959 1.345 3.183-.55 1.224-2.018 1.836-3.18 1.346-1.162-.49-1.773-1.897-1.345-3.182ZM91.93 2.915C92.175 1.63 93.459.589 94.865.956c1.407.368 2.202 1.714 1.896 3-.367 1.285-1.651 2.142-2.874 1.774-1.284-.367-2.14-1.469-1.957-2.815Zm-9.785-.918c0-1.347 1.224-2.448 2.63-2.387 1.406 0 2.446 1.285 2.324 2.632-.123 1.346-1.284 2.264-2.569 2.264-1.345 0-2.385-1.163-2.385-2.51Zm-9.845.306c-.123-1.346.917-2.509 2.324-2.631 1.406-.062 2.568.918 2.568 2.264.061 1.347-.978 2.51-2.324 2.632-1.284.122-2.446-.918-2.568-2.265Zm-9.723 1.224C62.332 2.18 63.31.956 64.656.772c1.406-.183 2.63.735 2.813 2.081.183 1.347-.795 2.57-2.08 2.754-1.345.184-2.629-.734-2.812-2.08Zm-9.661 1.897a2.365 2.365 0 0 1 1.895-2.877c1.346-.306 2.69.551 2.935 1.898.245 1.346-.611 2.631-1.895 2.876-1.346.245-2.63-.612-2.935-1.897Zm-9.54 2.387c-.367-1.285.428-2.632 1.773-2.999s2.69.429 2.996 1.775c.306 1.285-.489 2.632-1.773 3-1.284.305-2.63-.49-2.996-1.776Zm-9.479 2.755c-.428-1.285.367-2.632 1.651-3.06 1.345-.368 2.69.367 3.058 1.652.366 1.285-.367 2.693-1.651 3.06-1.285.429-2.63-.367-3.058-1.652Zm-9.357 3.06c-.428-1.285.306-2.693 1.59-3.122 1.285-.428 2.691.306 3.119 1.592.428 1.285-.306 2.693-1.59 3.121-1.284.367-2.69-.306-3.119-1.591Zm-9.294 3.182c-.428-1.285.245-2.693 1.529-3.122 1.284-.428 2.69.245 3.118 1.53.428 1.286-.244 2.694-1.528 3.122-1.285.428-2.691-.245-3.12-1.53Zm-9.295 3.367c-.49-1.285.184-2.693 1.468-3.183a2.38 2.38 0 0 1 3.118 1.47c.428 1.284-.183 2.692-1.467 3.182-1.223.428-2.63-.245-3.119-1.47Zm-9.234 3.365c-.49-1.285.183-2.693 1.467-3.182 1.285-.49 2.691.183 3.18 1.468a2.383 2.383 0 0 1-1.467 3.122c-1.285.49-2.691-.123-3.18-1.408ZM3.81 209.293c.306 1.346-.489 2.632-1.834 2.938-1.345.306-2.69-.551-2.935-1.837a2.46 2.46 0 0 1 1.834-2.937c1.284-.306 2.63.551 2.935 1.836Zm9.54-2.448c.367 1.285-.428 2.632-1.712 2.999-1.346.367-2.691-.428-2.997-1.714-.367-1.346.428-2.631 1.774-2.999 1.223-.367 2.568.368 2.935 1.714Zm9.417-2.816a2.392 2.392 0 0 1-1.651 3.06c-1.284.368-2.69-.367-3.058-1.652-.367-1.285.367-2.693 1.651-3.06 1.285-.367 2.691.367 3.058 1.652Zm9.356-3.06c.428 1.286-.245 2.693-1.529 3.122-1.284.428-2.69-.245-3.119-1.53-.428-1.286.245-2.693 1.53-3.122 1.283-.428 2.69.245 3.118 1.53Zm9.235-3.427c.489 1.285-.184 2.693-1.407 3.183-1.284.489-2.69-.123-3.18-1.408-.489-1.285.184-2.693 1.468-3.183 1.223-.489 2.63.184 3.119 1.408Zm9.112-3.672c.55 1.224-.062 2.693-1.346 3.183-1.284.55-2.69-.062-3.241-1.347-.49-1.285.061-2.693 1.345-3.182 1.284-.49 2.752.122 3.241 1.346Zm8.988-4.04a2.504 2.504 0 0 1-1.223 3.305c-1.284.551-2.69 0-3.241-1.224-.55-1.224 0-2.693 1.223-3.244 1.223-.551 2.69-.061 3.24 1.163Zm8.867-4.345a2.454 2.454 0 0 1-1.1 3.305 2.45 2.45 0 0 1-3.303-1.102 2.454 2.454 0 0 1 1.101-3.305c1.162-.551 2.69-.061 3.302 1.102Zm8.623-4.651c.672 1.163.244 2.693-.979 3.366-1.223.673-2.69.245-3.363-.979-.673-1.163-.183-2.693.978-3.305a2.473 2.473 0 0 1 3.364.918Zm8.439-5.081c.734 1.163.367 2.693-.795 3.428-1.162.734-2.69.306-3.425-.857-.672-1.163-.305-2.693.856-3.366 1.162-.673 2.63-.367 3.364.795Zm8.193-5.508c.795 1.102.49 2.632-.611 3.428-1.162.795-2.63.55-3.424-.612-.734-1.102-.49-2.632.611-3.428 1.1-.796 2.63-.49 3.424.612Zm7.828-5.936c.856 1.04.672 2.631-.428 3.427-1.101.857-2.63.673-3.486-.429-.795-1.101-.612-2.631.428-3.427 1.1-.796 2.63-.612 3.486.429Zm7.4-6.488c.917.979.856 2.57-.184 3.488-.978.979-2.568.857-3.485-.183-.856-1.041-.734-2.51.183-3.489 1.04-.857 2.569-.796 3.486.184Zm6.909-7.038a2.39 2.39 0 0 1 .123 3.489c-.979.979-2.508 1.04-3.486.061-.978-.98-.978-2.51-.061-3.428.917-.918 2.446-.979 3.424-.122Zm6.238-7.651c1.101.796 1.284 2.326.489 3.489a2.287 2.287 0 0 1-3.424.428c-1.04-.857-1.223-2.387-.428-3.427.733-1.041 2.262-1.285 3.363-.49Zm5.259-8.262c1.162.612 1.651 2.203.917 3.427-.734 1.163-2.324 1.53-3.424.796a2.41 2.41 0 0 1-.795-3.305c.672-1.163 2.079-1.591 3.302-.918Zm4.158-8.936c1.284.49 1.835 1.897 1.284 3.183-.55 1.285-2.018 1.897-3.241 1.346-1.223-.551-1.834-2.02-1.284-3.183.551-1.224 1.957-1.774 3.241-1.346Z"/></g></svg>