<svg width="32" height="32" fill="none" xmlns="http://www.w3.org/2000/svg"><path d="M5.333 5.333h21.334c1.466 0 2.666 1.2 2.666 2.667v16c0 1.467-1.2 2.667-2.666 2.667H5.332A2.674 2.674 0 0 1 2.666 24V8c0-1.467 1.2-2.667 2.667-2.667Z" stroke="#000" stroke-width="2" stroke-linecap="round" stroke-linejoin="round"/><path d="M5.333 5.333h21.334c1.466 0 2.666 1.2 2.666 2.667v16c0 1.467-1.2 2.667-2.666 2.667H5.332A2.674 2.674 0 0 1 2.666 24V8c0-1.467 1.2-2.667 2.667-2.667Z" fill="#EEBD20" stroke="#000" stroke-width="2" stroke-linecap="round" stroke-linejoin="round"/><path d="M29.333 8 16 17.333 2.666 8" stroke="#000" stroke-width="2" stroke-linecap="round" stroke-linejoin="round"/></svg>