<svg width="60" height="61" fill="none" xmlns="http://www.w3.org/2000/svg"><rect y=".912" width="60" height="60" rx="16" fill="#ECE6D5"/><path d="M39.516 17.427a2.43 2.43 0 0 0-1.755.732L27.314 29.005l-5.075-5.27a2.43 2.43 0 0 0-1.754-.733 2.43 2.43 0 0 0-1.755.732h-.003l-4.541 4.714a2.472 2.472 0 0 0 0 3.407l11.373 11.81a2.4 2.4 0 0 0 1.277.686h.003c.289.055.583.055.873.008a2.373 2.373 0 0 0 1.356-.694c.002-.002.005-.001.006-.003l16.711-17.35.01-.011.02-.02a2.472 2.472 0 0 0 0-3.408l-.03-.03-4.511-4.684h-.003a2.43 2.43 0 0 0-1.755-.732Zm0 3.234 3.77 3.917L31.28 37.047l-3.963 4.113-3.768-3.917 15.967-16.582Zm-19.031 5.575 4.749 4.931-3.777 3.917-4.746-4.93 3.774-3.918Z" fill="#000"/></svg>