<svg width="24" height="24" viewBox="0 0 24 24" fill="none" xmlns="http://www.w3.org/2000/svg">
<path fill-rule="evenodd" clip-rule="evenodd" d="M12 0C18.6274 0 24 5.37258 24 12C24 17.9895 19.6118 22.954 13.875 23.8542V15.4688H16.6711L17.2031 12H17.2031L17.2031 11.9998H13.875V9.75C13.875 9.61458 13.8844 9.47967 13.905 9.34787C13.9844 8.83803 14.2298 8.37437 14.7352 8.10859C15.0152 7.96143 15.375 7.875 15.8306 7.875H17.3438V4.92188C17.3438 4.92188 17.3437 4.92187 17.3437 4.92187V4.9217C17.3437 4.9217 15.9705 4.68733 14.6576 4.68733C11.9165 4.68733 10.125 6.34858 10.125 9.35608V11.9998H7.07811V15.4686H7.07812V15.4688H10.125V23.854C10.125 23.854 10.125 23.854 10.125 23.854V23.8542C4.3882 22.954 0 17.9895 0 12C0 5.37258 5.37258 0 12 0Z" fill="#1C1C1C"/>
</svg>
