<svg width="24" height="25" viewBox="0 0 24 25" fill="none" xmlns="http://www.w3.org/2000/svg">
<g clip-path="url(#clip0_230_1818)">
<path d="M22.2283 0.730957H1.77167C1.30179 0.730957 0.851161 0.917615 0.518909 1.24987C0.186657 1.58212 0 2.03275 0 2.50262V22.9593C0 23.4292 0.186657 23.8798 0.518909 24.212C0.851161 24.5443 1.30179 24.731 1.77167 24.731H22.2283C22.6982 24.731 23.1488 24.5443 23.4811 24.212C23.8133 23.8798 24 23.4292 24 22.9593V2.50262C24 2.03275 23.8133 1.58212 23.4811 1.24987C23.1488 0.917615 22.6982 0.730957 22.2283 0.730957ZM7.15333 21.176H3.545V9.71429H7.15333V21.176ZM5.34667 8.12596C4.93736 8.12365 4.53792 8.00015 4.19873 7.77104C3.85955 7.54194 3.59584 7.21749 3.44088 6.83865C3.28591 6.4598 3.24665 6.04355 3.32803 5.64241C3.40941 5.24127 3.6078 4.87323 3.89816 4.58474C4.18851 4.29624 4.55782 4.10022 4.95947 4.02142C5.36112 3.94261 5.77711 3.98455 6.15495 4.14194C6.53279 4.29933 6.85554 4.56512 7.08247 4.90577C7.30939 5.24641 7.43032 5.64665 7.43 6.05596C7.43386 6.32999 7.38251 6.602 7.27901 6.85576C7.17551 7.10953 7.02198 7.33986 6.82757 7.53302C6.63316 7.72619 6.40185 7.87824 6.14742 7.98011C5.893 8.08198 5.62067 8.13158 5.34667 8.12596ZM20.4533 21.186H16.8467V14.9243C16.8467 13.0776 16.0617 12.5076 15.0483 12.5076C13.9783 12.5076 12.9283 13.3143 12.9283 14.971V21.186H9.32V9.72262H12.79V11.311H12.8367C13.185 10.606 14.405 9.40096 16.2667 9.40096C18.28 9.40096 20.455 10.596 20.455 14.096L20.4533 21.186Z" fill="#1C1C1C"/>
</g>
<defs>
<clipPath id="clip0_230_1818">
<rect width="24" height="24" fill="white" transform="translate(0 0.730957)"/>
</clipPath>
</defs>
</svg>
