<svg width="110" height="27" viewBox="0 0 110 27" fill="none" xmlns="http://www.w3.org/2000/svg">
<path d="M45.0932 14.069V21.9593H41.1093V14.3768C41.1093 13.7806 40.978 13.3092 40.7133 12.9606C40.4486 12.6119 40.0612 12.4375 39.5511 12.4375C38.8365 12.4375 37.8658 12.7948 36.6411 13.5094V21.9615H32.6572V4.21359L36.6411 3.93164V10.367C37.3041 10.0097 37.9906 9.72134 38.6966 9.49965C39.4025 9.27796 40.0805 9.1682 40.7262 9.1682C43.6361 9.16604 45.0932 10.8018 45.0932 14.069Z" fill="#383A3E"/>
<path d="M58.5728 3.93164V21.9593H54.5889V4.21359L58.5728 3.93164Z" fill="#383A3E"/>
<path d="M67.2042 9.19238C68.4633 9.19238 69.5287 9.48294 70.3961 10.0598C71.2634 10.6387 71.9156 11.4136 72.3504 12.3843C72.7851 13.3549 73.0025 14.444 73.0025 15.6536V16.8546H65.0605C65.435 18.3009 66.5241 19.0241 68.3298 19.0241C69.505 19.0241 70.6694 18.7013 71.8273 18.0534L72.9509 20.8363C72.3719 21.2625 71.6616 21.6026 70.8179 21.8587C69.9742 22.1148 69.0509 22.2418 68.0479 22.2418C65.7837 22.2418 64.0016 21.6714 62.6994 20.5307C61.3973 19.39 60.7451 17.8081 60.7451 15.7806C60.7451 14.4526 61.0163 13.2904 61.563 12.296C62.1075 11.2995 62.8694 10.5333 63.8487 9.99735C64.8259 9.46142 65.9451 9.19238 67.2042 9.19238ZM67.103 12.4876C66.5413 12.4876 66.0699 12.6791 65.6868 13.0622C65.3037 13.4453 65.0777 13.9511 65.011 14.5818H69.1994C69.0982 13.9511 68.8722 13.4453 68.5236 13.0622C68.1706 12.6791 67.6992 12.4876 67.103 12.4876Z" fill="#383A3E"/>
<path d="M79.4356 12.6145C78.9427 12.6145 78.381 12.692 77.7504 12.8448C77.1197 12.9977 76.5666 13.1849 76.0909 13.4066L75.0191 10.3417C75.5808 10.0361 76.3557 9.76705 77.3436 9.53675C78.3315 9.30646 79.2161 9.19238 79.9995 9.19238C81.0369 9.19238 81.956 9.39685 82.7566 9.80579C83.5573 10.2147 84.1728 10.7894 84.6076 11.5298C85.0424 12.2702 85.2597 13.1182 85.2597 14.0695V21.9599H83.0364L82.0916 20.6577C81.1725 21.7145 80.1588 22.2418 79.0525 22.2418C77.5545 22.2418 76.4224 21.8716 75.6562 21.1312C74.8899 20.3908 74.5068 19.3814 74.5068 18.1051C74.5068 16.846 74.933 15.9011 75.7832 15.2705C76.6333 14.6399 77.7999 14.3256 79.2806 14.3256H81.222C81.1876 13.7811 81.0132 13.3592 80.699 13.0622C80.3848 12.7631 79.9629 12.6145 79.4356 12.6145ZM79.3086 16.7254C78.8825 16.7254 78.5381 16.8524 78.2755 17.1086C78.0108 17.3647 77.8795 17.6875 77.8795 18.0792C77.8795 18.3849 77.9893 18.6496 78.2109 18.8713C78.4326 19.093 78.721 19.2028 79.0783 19.2028C79.8273 19.2028 80.5505 18.8799 81.2478 18.2321V16.7254H79.3086Z" fill="#383A3E"/>
<path d="M93.9006 13.2662C93.1257 13.5976 92.4327 14.0281 91.8193 14.5554V21.9615H87.8096V9.60082H89.8521L90.9756 11.3636C91.5718 10.903 92.2605 10.4919 93.044 10.126C93.8274 9.76009 94.5333 9.57715 95.164 9.57715L95.956 12.769C95.3598 12.7669 94.6754 12.9326 93.9006 13.2662Z" fill="#383A3E"/>
<path d="M104.461 12.4352C103.746 12.4352 102.775 12.7924 101.551 13.507V21.9591H97.541V9.57475H100.018L100.707 10.8769C101.456 10.3668 102.27 9.95356 103.146 9.63932C104.022 9.32509 104.852 9.16797 105.636 9.16797C107.168 9.16797 108.279 9.60704 108.968 10.483C109.656 11.359 110.001 12.5557 110.001 14.0709V21.9613H105.991V14.3765C105.991 13.7804 105.864 13.309 105.608 12.9603C105.354 12.6095 104.971 12.4352 104.461 12.4352Z" fill="#383A3E"/>
<path d="M51.8837 5.66864C51.8837 6.26483 51.6663 6.77923 51.2316 7.214C50.7968 7.64876 50.2738 7.86615 49.6604 7.86615C49.0642 7.86615 48.5498 7.64876 48.115 7.214C47.6803 6.77923 47.4629 6.26483 47.4629 5.66864C47.4629 5.05524 47.6803 4.53223 48.115 4.09746C48.5498 3.6627 49.0642 3.44531 49.6604 3.44531C50.2738 3.44531 50.7968 3.6627 51.2316 4.09746C51.6663 4.53223 51.8837 5.05524 51.8837 5.66864Z" fill="#383A3E"/>
<path d="M51.6816 9.5752H47.6719V21.9595H51.6816V9.5752Z" fill="#383A3E"/>
<path d="M1.31721 20.533H0V0H8.34449V7.90541H14.0546V0H22.3969V12.7352H21.0797V1.31721H15.3718V9.22262H7.02728V1.31721H1.31721V20.533Z" fill="#EEBD20"/>
<path d="M1.33051 20.5326C0.592273 20.5326 0.609491 20.496 0.544922 20.4852L0.775219 19.1874C0.78598 19.1895 2.09243 19.4047 3.96494 19.0216C6.46591 18.5072 8.74305 17.2223 10.7318 15.2035C15.2861 10.5738 21.5665 11.3896 21.8334 11.4262L21.6526 12.7305L21.743 12.0783L21.6526 12.7305C21.6418 12.7283 21.0456 12.7477 21.0456 12.7477C19.4723 12.6766 15.002 12.7412 11.6702 16.1268C7.84124 20.016 3.3257 20.5326 1.33051 20.5326Z" fill="#EEBD20"/>
<path d="M0.046875 24.1788V22.7992C0.124358 22.7927 8.53341 22.1643 12.0632 18.8217C15.9546 15.1348 22.0886 15.0918 22.3232 15.0918V16.409C22.2716 16.409 16.4711 16.4585 12.9693 19.7774C9.09732 23.447 0.386939 24.1551 0.046875 24.1788Z" fill="#EEBD20"/>
<path d="M1.86988 26.357C1.13164 26.357 0.117901 26.2559 0.046875 26.2494V24.9688C0.113596 24.9731 7.43574 25.4143 11.9986 22.8897C16.9037 20.1756 22.1231 20.4231 22.3232 20.436V21.8157C22.278 21.8135 17.19 21.5229 12.6357 24.0433C8.93804 26.088 4.1341 26.357 1.86988 26.357Z" fill="#EEBD20"/>
</svg>
