<svg width="60" height="61" viewBox="0 0 60 61" fill="none" xmlns="http://www.w3.org/2000/svg">
<rect y="0.912109" width="60" height="60" rx="16" fill="#ECE6D5"/>
<g clip-path="url(#clip0_203_13525)">
<path d="M43.455 23.8173C44.04 23.2323 44.04 22.2873 43.455 21.7023L39.21 17.4573C38.625 16.8723 37.68 16.8723 37.095 17.4573L30.36 24.1923L24.525 18.3573C23.355 17.1873 21.45 17.1873 20.28 18.3573L17.43 21.2073C16.26 22.3773 16.26 24.2823 17.43 25.4523L23.265 31.2873L16.5 38.0523V44.4123H22.86L29.64 37.6323L35.475 43.4673C36.9 44.8923 38.82 44.3673 39.72 43.4673L42.57 40.6173C43.74 39.4473 43.74 37.5423 42.57 36.3723L36.735 30.5373L43.455 23.8173ZM19.56 23.3223L22.395 20.4723L24.3 22.3773L22.53 24.1623L24.645 26.2773L26.43 24.4923L28.23 26.2923L25.38 29.1423L19.56 23.3223ZM36.405 34.4823L34.62 36.2673L36.735 38.3823L38.52 36.5973L40.425 38.5023L37.575 41.3523L31.74 35.5173L34.59 32.6673L36.405 34.4823ZM21.615 41.4123H19.5V39.2973L33.915 24.8823L35.865 26.8323L36.03 26.9973L21.615 41.4123ZM36.03 22.7523L38.145 20.6373L40.26 22.7523L38.145 24.8673L36.03 22.7523Z" fill="black"/>
</g>
<defs>
<clipPath id="clip0_203_13525">
<rect width="36" height="36" fill="white" transform="translate(12 12.9121)"/>
</clipPath>
</defs>
</svg>
