<svg width="60" height="61" viewBox="0 0 60 61" fill="none" xmlns="http://www.w3.org/2000/svg">
<rect y="0.912109" width="60" height="60" rx="16" fill="#ECE6D5"/>
<path d="M39.5159 17.4268C38.8738 17.4268 38.2321 17.6709 37.761 18.1592L27.3137 29.0049L22.2395 23.7344C21.7684 23.2461 21.1267 23.002 20.4846 23.002C19.8426 23.002 19.2009 23.2461 18.7298 23.7344H18.7268L14.1858 28.4482C13.2779 29.3906 13.2779 30.9131 14.1858 31.8555L25.5589 43.665C25.9122 44.0312 26.3628 44.259 26.8362 44.3506C26.8371 44.3508 26.8382 44.3504 26.8391 44.3506C27.1277 44.406 27.4222 44.4059 27.7122 44.3594C27.8971 44.3297 28.0795 44.284 28.2542 44.2129C28.5541 44.0914 28.8323 43.9086 29.0686 43.665C29.0701 43.6635 29.073 43.6637 29.0745 43.6621L45.7854 26.3125C45.7889 26.3089 45.7908 26.3044 45.7942 26.3008L45.8147 26.2803C46.7226 25.3379 46.7226 23.8154 45.8147 22.873L45.7854 22.8438L41.2737 18.1592H41.2708C40.7997 17.6709 40.158 17.4268 39.5159 17.4268ZM39.5159 20.6611L43.2864 24.5781L31.2805 37.0469L27.3167 41.1602L23.5491 37.2432L39.5159 20.6611ZM20.4846 26.2363L25.2337 31.167L21.4573 35.084L16.7112 30.1533L20.4846 26.2363Z" fill="black"/>
</svg>
