<svg width="60" height="61" fill="none" xmlns="http://www.w3.org/2000/svg"><rect y=".912" width="60" height="60" rx="16" fill="#ECE6D5"/><g clip-path="url(#a)"><path d="M42 24.912h-4.215a8.977 8.977 0 0 0-2.73-2.94l2.445-2.445-2.115-2.115-3.255 3.255a9.098 9.098 0 0 0-2.13-.255c-.735 0-1.44.09-2.115.255l-3.27-3.255-2.115 2.115 2.43 2.445a9.093 9.093 0 0 0-2.715 2.94H18v3h3.135c-.075.495-.135.99-.135 1.5v1.5h-3v3h3v1.5c0 .51.06 1.005.135 1.5H18v3h4.215c1.56 2.685 4.455 4.5 7.785 4.5s6.225-1.815 7.785-4.5H42v-3h-3.135c.075-.495.135-.99.135-1.5v-1.5h3v-3h-3v-1.5c0-.51-.06-1.005-.135-1.5H42v-3Zm-6 6v4.5c0 .33-.045.705-.105 1.05l-.15.975-.555.975c-1.08 1.86-3.06 3-5.19 3-2.13 0-4.11-1.155-5.19-3l-.555-.96-.15-.975A6.404 6.404 0 0 1 24 35.412v-6c0-.345.045-.72.105-1.05l.15-.975.555-.975a6.15 6.15 0 0 1 1.815-1.965l.855-.585 1.11-.27a5.68 5.68 0 0 1 2.835 0l1.02.24.915.63c.75.51 1.365 1.17 1.815 1.965l.57.975.15.975c.06.33.105.705.105 1.035v1.5Zm-9 3h6v3h-6v-3Zm0-6h6v3h-6v-3Z" fill="#000"/></g><defs><clipPath id="a"><path fill="#fff" transform="translate(12 12.912)" d="M0 0h36v36H0z"/></clipPath></defs></svg>