<svg width="44" height="63" viewBox="0 0 44 63" fill="none" xmlns="http://www.w3.org/2000/svg">
<path d="M9.89577 42.0379L23.724 44.1483L23.9386 42.7421C24.6495 38.0838 27.2045 36.0754 31.8326 34.2335C38.0553 31.7655 42.5912 28.1707 43.6777 21.0515C45.3589 10.0359 36.9123 3.11063 24.4025 1.20141C13.0059 -0.537903 2.72026 3.40854 0.635724 16.2814L15.6358 18.5706C16.15 15.2015 19.2075 13.2398 22.3716 13.7227C25.3013 14.1698 27.341 16.5197 26.8939 19.4494C26.3931 22.7307 23.2428 24.3184 19.1509 26.1822C14.352 28.3578 11.5814 30.9929 10.1104 40.6316L9.89577 42.0379ZM14.0396 62.8165C18.3462 63.4738 22.7386 60.4267 23.4947 55.8653C24.1157 51.4032 20.8322 47.1846 16.5256 46.5273C11.9845 45.8343 7.70938 48.8993 7.08835 53.3614C6.33224 57.9228 9.49853 62.1234 14.0396 62.8165Z" fill="#E2B31C"/>
</svg>
