<svg width="24" height="24" viewBox="0 0 24 24" fill="none" xmlns="http://www.w3.org/2000/svg">
<path d="M12 4C7.59 4 4 7.59 4 12C4 16.41 7.59 20 12 20C16.41 20 20 16.41 20 12C20 7.59 16.41 4 12 4Z" fill="#EEBD20"/>
<path d="M12 2C6.48 2 2 6.48 2 12C2 17.52 6.48 22 12 22C17.52 22 22 17.52 22 12C22 6.48 17.52 2 12 2ZM12 20C7.59 20 4 16.41 4 12C4 7.59 7.59 4 12 4C16.41 4 20 7.59 20 12C20 16.41 16.41 20 12 20Z" fill="#1C1C1C"/>
<path d="M12.68 7.76008C11.57 6.65008 9.88999 6.46008 8.57999 7.17008L10.93 9.52008L9.51999 10.9301L7.16999 8.58008C6.45999 9.90008 6.64999 11.5701 7.75999 12.6801C8.73999 13.6601 10.16 13.9201 11.38 13.4901L14.79 16.9001C14.99 17.1001 15.3 17.1001 15.5 16.9001L16.9 15.5001C17.1 15.3001 17.1 14.9901 16.9 14.7901L13.49 11.3801C13.92 10.1501 13.66 8.74008 12.68 7.76008Z" fill="#1C1C1C"/>
</svg>
