<svg width="69" height="98" viewBox="0 0 69 98" fill="none" xmlns="http://www.w3.org/2000/svg">
<path d="M15.2288 64.9813L36.8966 68.2882L37.2329 66.0847C38.3469 58.7856 42.3504 55.6385 49.6023 52.7524C59.3528 48.8852 66.4602 43.2524 68.1627 32.0972C70.797 14.8364 57.5618 3.98505 37.9598 0.993436C20.1022 -1.73195 3.98532 4.45185 0.718998 24.6226L24.2231 28.2098C25.0288 22.9305 29.8197 19.8567 34.7775 20.6133C39.3682 21.314 42.5643 24.9961 41.8637 29.5867C41.079 34.7282 36.1426 37.2162 29.731 40.1366C22.2114 43.5456 17.8701 47.6746 15.5651 62.7778L15.2288 64.9813ZM21.7219 97.5399C28.4701 98.5698 35.3526 93.7952 36.5374 86.6478C37.5105 79.656 32.3655 73.0459 25.6173 72.016C18.5018 70.93 11.8029 75.7326 10.8298 82.7244C9.64503 89.8718 14.6064 96.4539 21.7219 97.5399Z" fill="#E2B31C"/>
</svg>
