<svg width="36" height="36" viewBox="0 0 36 36" fill="none" xmlns="http://www.w3.org/2000/svg">
<path d="M7.5 28.5H28.5V7.5H7.5V28.5Z" fill="#EEBD20"/>
<path d="M28.5 4.5H7.5C5.85 4.5 4.5 5.85 4.5 7.5V28.5C4.5 30.15 5.85 31.5 7.5 31.5H28.5C30.15 31.5 31.5 30.15 31.5 28.5V7.5C31.5 5.85 30.15 4.5 28.5 4.5ZM28.5 28.5H7.5V7.5H28.5V28.5Z" fill="#1C1C1C"/>
<path d="M9.90927 24.6496L9.82773 24.7357L9.90933 24.8217L11.1093 26.0862L11.2001 26.1818L11.2907 26.0861L16.0001 21.1154L19.1093 24.3918L19.2055 24.4931L19.2955 24.3863L26.0955 16.3273L26.1677 16.2418L26.0907 16.1607L24.9627 14.972L24.8666 14.8708L24.7765 14.9774L19.1946 21.5894L16.0907 18.3187L15.9999 18.2231L15.9093 18.3188L9.90927 24.6496ZM11.1093 21.0282L11.2001 21.1238L11.2907 21.0281L16.0001 16.0574L19.1093 19.3338L19.2055 19.4351L19.2955 19.3284L26.0955 11.2694L26.1677 11.1838L26.0907 11.1027L24.9627 9.91408L24.8666 9.8128L24.7765 9.91949L19.1946 16.5314L16.0907 13.2608L15.9999 13.1652L15.9093 13.2608L9.90927 19.5917L9.82773 19.6777L9.90933 19.7637L11.1093 21.0282Z" fill="#1C1C1C" stroke="#1C1C1C" stroke-width="0.25"/>
</svg>
