<svg width="143" height="217" viewBox="0 0 143 217" fill="none" xmlns="http://www.w3.org/2000/svg">
<mask id="mask0_190_1743" style="mask-type:alpha" maskUnits="userSpaceOnUse" x="0" y="0" width="143" height="217">
<rect width="143" height="217" fill="#D9D9D9"/>
</mask>
<g mask="url(#mask0_190_1743)">
<path d="M134.491 116.57C135.776 116.937 136.57 118.345 136.142 119.691C135.714 120.977 134.308 121.711 133.024 121.283C131.74 120.854 131.067 119.447 131.495 118.223C131.862 116.937 133.146 116.203 134.491 116.57Z" fill="#EEBD20"/>
<path d="M136.937 107.083C138.282 107.389 139.077 108.735 138.772 110.082C138.466 111.428 137.059 112.224 135.775 111.857C134.43 111.49 133.757 110.204 134.002 108.919C134.307 107.573 135.653 106.777 136.937 107.083Z" fill="#EEBD20"/>
<path d="M138.833 97.4126C140.178 97.5962 141.095 98.8815 140.851 100.289C140.606 101.636 139.383 102.554 138.038 102.309C136.692 102.064 135.836 100.779 136.02 99.4323C136.203 98.0858 137.487 97.1678 138.833 97.4126Z" fill="#EEBD20"/>
<path d="M140.056 87.6207C141.401 87.7431 142.379 88.9672 142.196 90.3136C142.012 91.6601 140.851 92.6394 139.505 92.517C138.16 92.3333 137.181 91.1093 137.365 89.824C137.487 88.4775 138.71 87.4983 140.056 87.6207Z" fill="#EEBD20"/>
<path d="M140.606 77.7666C141.952 77.7666 143.114 78.9295 142.991 80.3371C142.93 81.7448 141.768 82.7853 140.423 82.7241C139.078 82.6629 138.038 81.5 138.099 80.1535C138.16 78.8071 139.2 77.7666 140.606 77.7666Z" fill="#EEBD20"/>
<path d="M140.423 67.9127C141.768 67.8515 142.93 68.892 142.991 70.2997C143.053 71.7073 141.952 72.809 140.606 72.8702C139.261 72.8702 138.16 71.8298 138.099 70.4833C138.038 69.1368 139.078 68.0351 140.423 67.9127Z" fill="#EEBD20"/>
<path d="M139.566 58.1208C140.912 57.9371 142.135 58.9164 142.257 60.3241C142.379 61.7318 141.401 62.9558 140.056 63.017C138.71 63.1394 137.487 62.1602 137.365 60.8137C137.304 59.5284 138.282 58.3044 139.566 58.1208Z" fill="#EEBD20"/>
<path d="M137.793 48.4507C139.139 48.1447 140.423 49.0015 140.79 50.348C141.034 51.6945 140.117 53.041 138.833 53.2858C137.488 53.5306 136.265 52.6737 136.02 51.3273C135.653 50.042 136.509 48.7567 137.793 48.4507Z" fill="#EEBD20"/>
<path d="M135.103 38.9637C136.387 38.4741 137.732 39.2085 138.16 40.555C138.588 41.9015 137.854 43.3092 136.57 43.6764C135.286 44.0436 133.88 43.3092 133.513 42.0851C133.146 40.7998 133.818 39.4533 135.103 38.9637Z" fill="#EEBD20"/>
<path d="M131.067 29.9669C132.229 29.2937 133.757 29.7833 134.369 31.0686C135.042 32.3539 134.491 33.8228 133.207 34.3736C131.984 34.9244 130.578 34.3736 129.966 33.2107C129.416 32.1091 129.905 30.6402 131.067 29.9669Z" fill="#EEBD20"/>
<path d="M125.563 21.8876C126.602 20.9696 128.131 21.1532 129.109 22.2548C130.027 23.3565 129.66 25.009 128.559 25.7434C127.397 26.5391 125.991 26.1719 125.196 25.1926C124.34 24.2745 124.523 22.8057 125.563 21.8876Z" fill="#EEBD20"/>
<path d="M118.47 15.0331C119.326 13.9314 120.855 13.8702 121.894 14.8494C122.934 15.8287 122.995 17.42 122.078 18.338C121.16 19.3173 119.632 19.3785 118.653 18.5216C117.736 17.6036 117.675 16.0735 118.47 15.0331Z" fill="#EEBD20"/>
<path d="M110.337 9.46371C111.009 8.30085 112.538 7.87242 113.822 8.60686C115.045 9.40251 115.29 10.9938 114.495 12.0955C113.7 13.1971 112.232 13.4419 111.193 12.7687C110.092 12.1567 109.725 10.6878 110.337 9.46371Z" fill="#EEBD20"/>
<path d="M101.469 5.36269C101.897 4.07741 103.365 3.46538 104.649 4.01621C105.994 4.56704 106.606 5.97472 105.994 7.19879C105.444 8.42286 103.976 9.0349 102.814 8.54527C101.652 8.05564 101.041 6.64796 101.469 5.36269Z" fill="#EEBD20"/>
<path d="M91.93 2.91501C92.1746 1.62973 93.4588 0.589278 94.8653 0.956498C96.2717 1.32372 97.0667 2.6702 96.761 3.95547C96.3941 5.24074 95.1099 6.09759 93.8868 5.73037C92.6027 5.36315 91.7465 4.26148 91.93 2.91501Z" fill="#EEBD20"/>
<path d="M82.1455 1.99679C82.1455 0.65031 83.3685 -0.451349 84.775 -0.390145C86.1815 -0.390145 87.2211 0.895124 87.0988 2.2416C86.9765 3.58808 85.8146 4.50613 84.5304 4.50613C83.1851 4.50613 82.1455 3.34326 82.1455 1.99679Z" fill="#EEBD20"/>
<path d="M72.2998 2.30341C72.1775 0.956933 73.2171 -0.20593 74.6236 -0.328337C76.0301 -0.389541 77.1919 0.589713 77.1919 1.93619C77.2531 3.28267 76.2135 4.44553 74.8682 4.56794C73.584 4.69035 72.4221 3.64989 72.2998 2.30341Z" fill="#EEBD20"/>
<path d="M62.5767 3.52654C62.3321 2.18006 63.3105 0.95599 64.6558 0.77238C66.0623 0.58877 67.2853 1.50682 67.4688 2.8533C67.6522 4.19977 66.6738 5.42384 65.3897 5.60745C64.0443 5.79106 62.7601 4.87301 62.5767 3.52654Z" fill="#EEBD20"/>
<path d="M52.9155 5.42394C52.6097 4.07747 53.4658 2.79219 54.8112 2.54738C56.1565 2.24136 57.5019 3.09821 57.7465 4.44468C57.9911 5.79116 57.1349 7.07644 55.8508 7.32125C54.5054 7.56606 53.2212 6.70922 52.9155 5.42394Z" fill="#EEBD20"/>
<path d="M43.3756 7.81117C43.0087 6.5259 43.8036 5.17942 45.149 4.8122C46.4943 4.44498 47.8397 5.24062 48.1454 6.5871C48.4512 7.87237 47.6562 9.21885 46.372 9.58607C45.0878 9.89209 43.7425 9.09644 43.3756 7.81117Z" fill="#EEBD20"/>
<path d="M33.8969 10.5658C33.4689 9.28056 34.2638 7.93409 35.548 7.50566C36.8934 7.13844 38.2387 7.87289 38.6056 9.15816C38.9725 10.4434 38.2387 11.8511 36.9545 12.2183C35.6703 12.6468 34.325 11.8511 33.8969 10.5658Z" fill="#EEBD20"/>
<path d="M24.5404 13.6257C24.1123 12.3405 24.8461 10.9328 26.1303 10.5044C27.4145 10.0759 28.821 10.8104 29.249 12.0956C29.6771 13.3809 28.9433 14.7886 27.6591 15.217C26.3749 15.5842 24.9684 14.911 24.5404 13.6257Z" fill="#EEBD20"/>
<path d="M15.2459 16.8078C14.8178 15.5225 15.4905 14.1149 16.7747 13.6864C18.0589 13.258 19.4654 13.9312 19.8934 15.2165C20.3215 16.5018 19.6488 17.9095 18.3646 18.3379C17.0804 18.7663 15.674 18.0931 15.2459 16.8078Z" fill="#EEBD20"/>
<path d="M5.95107 20.1748C5.46185 18.8895 6.13452 17.4818 7.4187 16.9922C8.70288 16.5026 10.1094 17.1758 10.5374 18.4611C10.9655 19.7464 10.354 21.1541 9.06978 21.6437C7.84675 22.0721 6.44028 21.3989 5.95107 20.1748Z" fill="#EEBD20"/>
<path d="M-3.28331 23.54C-3.77252 22.2548 -3.09986 20.8471 -1.81567 20.3575C-0.531492 19.8678 0.875001 20.5411 1.36421 21.8263C1.85343 23.1116 1.18074 24.5193 -0.103439 24.9477C-1.38762 25.4373 -2.7941 24.8253 -3.28331 23.54Z" fill="#EEBD20"/>
<path d="M3.81048 209.293C4.11624 210.639 3.32127 211.925 1.97593 212.231C0.630599 212.537 -0.714746 211.68 -0.959352 210.394C-1.26511 209.048 -0.408988 207.763 0.875194 207.457C2.15938 207.151 3.50472 208.008 3.81048 209.293Z" fill="#EEBD20"/>
<path d="M13.3499 206.845C13.7168 208.13 12.9218 209.477 11.6377 209.844C10.2923 210.211 8.94699 209.416 8.64123 208.13C8.27432 206.784 9.06929 205.499 10.4146 205.131C11.6377 204.764 12.983 205.499 13.3499 206.845Z" fill="#EEBD20"/>
<path d="M22.767 204.029C23.1951 205.315 22.4612 206.722 21.1159 207.089C19.8317 207.457 18.4252 206.722 18.0583 205.437C17.6914 204.152 18.4252 202.744 19.7094 202.377C20.9936 202.01 22.4001 202.744 22.767 204.029Z" fill="#EEBD20"/>
<path d="M32.1229 200.969C32.551 202.255 31.8783 203.662 30.5941 204.091C29.3099 204.519 27.9034 203.846 27.4754 202.561C27.0473 201.275 27.72 199.868 29.0042 199.439C30.2884 199.011 31.6948 199.684 32.1229 200.969Z" fill="#EEBD20"/>
<path d="M41.3577 197.542C41.847 198.827 41.1743 200.235 39.9513 200.725C38.6671 201.214 37.2606 200.602 36.7714 199.317C36.2822 198.032 36.9548 196.624 38.239 196.134C39.4621 195.645 40.8685 196.318 41.3577 197.542Z" fill="#EEBD20"/>
<path d="M50.4693 193.87C51.0197 195.094 50.4081 196.563 49.1239 197.053C47.8398 197.603 46.4333 196.991 45.8829 195.706C45.3937 194.421 45.9441 193.013 47.2283 192.524C48.5124 192.034 49.9801 192.646 50.4693 193.87Z" fill="#EEBD20"/>
<path d="M59.4579 189.83C60.0083 191.054 59.5191 192.523 58.2349 193.135C56.9507 193.686 55.5443 193.135 54.9939 191.911C54.4435 190.687 54.9939 189.218 56.2169 188.667C57.44 188.116 58.9076 188.606 59.4579 189.83Z" fill="#EEBD20"/>
<path d="M68.3254 185.485C68.9369 186.709 68.4477 188.178 67.2246 188.79C66.0016 189.402 64.534 188.912 63.9224 187.688C63.3109 186.464 63.8001 184.995 65.0232 184.383C66.185 183.832 67.7138 184.322 68.3254 185.485Z" fill="#EEBD20"/>
<path d="M76.9477 180.834C77.6204 181.997 77.1923 183.527 75.9693 184.2C74.7463 184.873 73.2786 184.445 72.606 183.221C71.9333 182.058 72.4225 180.528 73.5844 179.916C74.8074 179.242 76.275 179.671 76.9477 180.834Z" fill="#EEBD20"/>
<path d="M85.3867 175.753C86.1205 176.916 85.7536 178.446 84.5917 179.181C83.4299 179.915 81.9011 179.487 81.1673 178.324C80.4946 177.161 80.8615 175.631 82.0234 174.958C83.1853 174.285 84.6529 174.591 85.3867 175.753Z" fill="#EEBD20"/>
<path d="M93.5804 170.245C94.3754 171.347 94.0697 172.877 92.9689 173.673C91.8071 174.468 90.3394 174.223 89.5445 173.061C88.8106 171.959 89.0552 170.429 90.156 169.633C91.2567 168.837 92.7855 169.143 93.5804 170.245Z" fill="#EEBD20"/>
<path d="M101.408 164.309C102.264 165.349 102.08 166.94 100.98 167.736C99.8788 168.593 98.3501 168.409 97.494 167.307C96.699 166.206 96.8824 164.676 97.922 163.88C99.0227 163.084 100.552 163.268 101.408 164.309Z" fill="#EEBD20"/>
<path d="M108.808 157.821C109.725 158.8 109.664 160.391 108.624 161.309C107.646 162.288 106.056 162.166 105.139 161.126C104.283 160.085 104.405 158.616 105.322 157.637C106.362 156.78 107.891 156.841 108.808 157.821Z" fill="#EEBD20"/>
<path d="M115.717 150.783C116.757 151.701 116.818 153.292 115.84 154.272C114.861 155.251 113.332 155.312 112.354 154.333C111.376 153.353 111.376 151.823 112.293 150.905C113.21 149.987 114.739 149.926 115.717 150.783Z" fill="#EEBD20"/>
<path d="M121.955 143.132C123.056 143.928 123.239 145.458 122.444 146.621C121.649 147.784 120.059 147.967 119.02 147.049C117.98 146.192 117.797 144.662 118.592 143.622C119.325 142.581 120.854 142.337 121.955 143.132Z" fill="#EEBD20"/>
<path d="M127.214 134.87C128.376 135.482 128.865 137.073 128.131 138.297C127.397 139.46 125.807 139.827 124.707 139.093C123.545 138.358 123.239 136.889 123.912 135.788C124.584 134.625 125.991 134.197 127.214 134.87Z" fill="#EEBD20"/>
<path d="M131.372 125.934C132.656 126.424 133.207 127.831 132.656 129.117C132.106 130.402 130.638 131.014 129.415 130.463C128.192 129.912 127.581 128.443 128.131 127.28C128.682 126.056 130.088 125.506 131.372 125.934Z" fill="#EEBD20"/>
</g>
</svg>
