<svg width="170" height="38" viewBox="0 0 170 38" fill="none" xmlns="http://www.w3.org/2000/svg">
<g clip-path="url(#clip0_203_13551)">
<path fill-rule="evenodd" clip-rule="evenodd" d="M135.336 10.9149C135.301 9.83754 136.153 8.99038 137.278 8.98344C138.37 8.9765 139.187 9.77567 139.188 10.8501C139.188 11.9384 138.402 12.7277 137.303 12.7422C136.213 12.7572 135.371 11.9742 135.336 10.9149ZM65.9216 10.1125C66.237 9.88814 66.612 9.80545 67.0035 9.79389C67.3779 9.7829 67.767 9.83784 68.1343 9.8974L68.1358 17.8937C68.1362 20.5764 68.1367 23.2591 68.1373 25.942H64.9211L64.8976 21.5437L64.8739 17.1228C63.9113 18.0943 63.1493 19.2277 62.3867 20.362C61.7318 21.3362 61.0763 22.3111 60.2928 23.1848C60.1077 23.3907 59.896 23.6011 59.6213 23.6497C59.1325 23.7347 58.7351 23.2872 58.4504 22.8893L56.3234 19.9133L54.1989 16.9407L54.1635 25.9541L50.9697 25.9576L50.9679 25.5268C50.9614 23.4722 50.9573 21.4182 50.9556 19.3636C50.9532 17.3096 50.9538 15.255 50.9567 13.201L50.9567 13.1946L50.9567 13.1881L50.9568 13.1816L50.9568 13.175L50.9568 13.1685L50.9568 13.1619L50.9568 13.1552L50.9568 13.1486L50.9568 13.1419C50.9574 12.6476 50.9579 12.1544 50.9591 11.6605L50.9609 10.8903C50.961 10.8156 50.9576 10.738 50.9542 10.6594C50.9468 10.4916 50.9393 10.3194 50.9662 10.1622C51.021 9.84188 51.5162 9.76902 51.788 9.75861C52.1972 9.743 52.6117 9.87138 52.9537 10.0882C53.5208 10.4479 53.9194 11.0071 54.3032 11.5518L56.9259 15.2723L59.547 18.9906L61.4566 16.2738C62.7308 14.461 64.0049 12.6481 65.2796 10.8353C65.4653 10.5711 65.6563 10.301 65.9216 10.1125ZM103.095 16.3435C101.48 16.3359 100.209 17.3462 100.02 18.8075H105.975C105.825 17.3543 104.64 16.3504 103.095 16.3435ZM98.7595 15.3222C100.587 13.6308 103.835 13.2925 106.136 14.4838C108.262 15.5842 109.449 18.0181 109.099 20.5729C109.083 20.6904 109.048 20.8053 109.007 20.9393C108.985 21.0078 108.963 21.0813 108.941 21.1627H100.03C100.379 23.7962 103.454 24.3715 107.402 22.524C107.692 23.0317 107.986 23.5433 108.293 24.0787L108.612 24.6346C106.788 25.8623 104.839 26.3903 102.713 26.2515C100.008 26.0739 97.9548 24.8706 97.0951 22.2759C96.2385 19.6893 96.6588 17.2652 98.7595 15.3222ZM120.929 14.098C120.419 14.0864 119.908 14.0772 119.397 14.0685C119.108 14.0639 118.802 14.0633 118.551 14.205C118.201 14.4022 118.054 14.8145 117.932 15.1915C117.212 17.4219 116.436 19.6349 115.604 21.8271C114.653 19.462 113.689 17.1009 112.715 14.7457C112.633 14.5496 112.543 14.342 112.363 14.2264C112.19 14.1142 111.969 14.1101 111.762 14.1101C111.243 14.1101 110.723 14.1096 110.204 14.109L109.815 14.1087L109.425 14.1084C109.384 14.1084 109.343 14.108 109.301 14.1076H109.301H109.301H109.301C109.218 14.1069 109.135 14.1061 109.052 14.1084L109.042 14.1086C108.906 14.1118 108.876 14.1125 108.915 14.2472C108.962 14.4071 109.042 14.567 109.121 14.7236L109.121 14.7237C109.159 14.8009 109.198 14.8774 109.231 14.9527C109.303 15.1104 109.374 15.2687 109.445 15.427L109.548 15.657C109.759 16.1266 109.97 16.5967 110.181 17.0662L110.749 18.3331C111.403 19.7898 112.057 21.2467 112.711 22.7032L113.087 23.542L113.089 23.5468L113.091 23.5495L113.092 23.5523C113.302 24.0208 113.512 24.4892 113.722 24.9578C113.876 25.2996 114.032 25.6535 114.035 26.0271C114.037 26.3983 113.884 26.7586 113.67 27.065C112.886 28.188 111.199 28.5899 109.977 27.9452L109.711 29.2195L109.449 30.4722C110.705 31.1569 112.288 31.3124 113.599 30.7347C114.567 30.308 115.334 29.5204 115.899 28.6391C116.465 27.7578 116.848 26.7782 117.227 25.8056L119.509 19.9619L121.791 14.1182C121.508 14.1108 121.223 14.1045 120.94 14.0982L120.939 14.0982L120.929 14.098ZM72.7701 19.9773C72.7483 21.9457 74.2387 23.4844 76.1443 23.4607C78.0239 23.4376 79.4973 21.9179 79.4914 20.0079C79.4849 18.1592 77.9809 16.6528 76.1378 16.6493C74.2706 16.6447 72.7907 18.1077 72.7701 19.9773ZM69.6158 20.0114C69.6217 16.4279 72.3839 13.7892 76.1372 13.7823C79.8062 13.7754 82.6244 16.455 82.6398 19.9645C82.6557 23.5989 79.874 26.3226 76.1466 26.3226C72.3774 26.322 69.6099 23.6475 69.6158 20.0114ZM146.568 23.4608C144.678 23.4325 143.243 21.9278 143.258 19.9912C143.273 18.1217 144.746 16.6529 146.612 16.6494C148.487 16.6454 150.003 18.1864 149.979 20.071C149.953 21.9775 148.433 23.4891 146.568 23.4608ZM146.669 13.7824C142.916 13.7656 140.124 16.3967 140.105 19.9681C140.086 23.6175 142.828 26.3047 146.591 26.3226C150.331 26.34 153.103 23.662 153.129 20.0074C153.154 16.5129 150.337 13.7986 146.669 13.7824ZM87.2647 15.3972C88.6679 13.7503 90.4838 13.4496 92.4513 14.0279C94.3916 14.598 95.4393 16.0593 95.533 17.9751C95.6228 19.8215 95.6027 21.6732 95.5824 23.5409C95.5737 24.3471 95.5649 25.1561 95.5649 25.9691H92.4377L92.4378 25.6878V25.6866V25.6854V25.6842V25.683C92.438 25.4993 92.4381 25.3171 92.4377 25.1352C92.4361 24.5474 92.4373 23.9595 92.4386 23.3716C92.4414 22.0071 92.4443 20.6427 92.4118 19.2791C92.3717 17.5836 91.4 16.6208 89.8453 16.6249C88.32 16.6289 87.1898 17.7062 87.145 19.315C87.1078 20.663 87.1106 22.0122 87.1133 23.3616C87.1145 23.9385 87.1157 24.5155 87.1138 25.0924C87.1134 25.2758 87.1135 25.4593 87.1136 25.6548L87.1138 25.9731H83.9895V14.158H86.9834L87.0097 14.7433L87.0107 14.7665L87.0126 14.8087L87.013 14.8169C87.0229 15.0388 87.0329 15.2637 87.0436 15.4984C87.0766 15.4837 87.1086 15.4727 87.1378 15.4626C87.1926 15.4438 87.2382 15.4281 87.2647 15.3972ZM166.046 18.1778C165.972 16.2348 165.005 14.7585 163.064 14.0559C161.174 13.3712 159.177 13.8622 157.829 15.2957C157.78 15.3472 157.72 15.3888 157.65 15.4382C157.614 15.4631 157.575 15.49 157.534 15.5212C157.509 15.0112 157.488 14.5815 157.466 14.1397H154.502V25.9612H157.602L157.602 25.6039C157.602 25.3872 157.602 25.1856 157.602 24.9845C157.605 24.3956 157.604 23.8064 157.602 23.2173V23.2162C157.598 21.8531 157.594 20.4901 157.649 19.1296C157.711 17.603 158.916 16.5927 160.445 16.6263C161.883 16.6581 162.808 17.6065 162.902 19.1533C162.921 19.465 162.924 19.7778 162.925 20.0901C162.926 21.4468 162.926 22.8038 162.926 24.1607L162.926 25.165V25.9589H166.071C166.071 25.1635 166.077 24.3732 166.084 23.5865C166.1 21.7694 166.115 19.972 166.046 18.1778ZM122.883 9.89926H126.106V22.8698H134.455V25.967H122.883V9.89926ZM135.73 25.9722H138.797V14.1513H135.73V25.9722Z" fill="black"/>
<path fill-rule="evenodd" clip-rule="evenodd" d="M13.4697 2.71341C12.952 3.01584 12.4621 3.30093 12.0594 3.46458C11.619 3.64384 11.0424 3.79188 10.4321 3.94859C8.89509 4.34296 6.98365 4.83333 5.49141 6.29808C3.99857 7.76109 3.49861 9.63583 3.09651 11.1422C2.93732 11.7413 2.78638 12.3068 2.60302 12.7405C2.43676 13.1332 2.14668 13.6131 1.83892 14.1203C1.01881 15.4752 0 17.1573 0 19.2998C0 21.4429 1.01881 23.1245 1.83715 24.477C2.1455 24.9859 2.43676 25.4659 2.60302 25.8602C2.78638 26.2934 2.93732 26.8589 3.09651 27.458C3.49861 28.9638 3.99798 30.8385 5.49082 32.3033C6.98365 33.7669 8.8945 34.2567 10.4298 34.6511C11.0441 34.8089 11.6196 34.9564 12.0594 35.1356C12.4621 35.2993 12.9514 35.5844 13.4697 35.8862C14.8481 36.6894 16.5638 37.6887 18.7483 37.6887C20.9333 37.6887 22.649 36.6894 24.0274 35.8862C24.548 35.5832 25.0368 35.2981 25.4365 35.1356C25.8775 34.9564 26.4524 34.8089 27.0614 34.6522C28.6026 34.2567 30.5134 33.7669 32.0051 32.3033C33.4979 30.8391 33.9979 28.965 34.4 27.4592C34.5598 26.8589 34.7113 26.2934 34.8941 25.8608C35.0609 25.4659 35.3516 24.9859 35.66 24.4776C36.4783 23.125 37.4965 21.4429 37.4965 19.2998C37.4965 17.1579 36.4783 15.4757 35.6605 14.1243C35.3516 13.6149 35.0609 13.1338 34.8941 12.7405C34.7113 12.3074 34.5598 11.7419 34.4006 11.1434C33.9979 9.63526 33.4979 7.76109 32.0051 6.29808C30.5134 4.83333 28.602 4.34296 27.0661 3.94916C26.4553 3.79245 25.8787 3.64384 25.4371 3.46458C25.035 3.30093 24.5451 3.01584 24.0268 2.71341C22.6484 1.91078 20.9333 0.912109 18.7483 0.912109C16.5638 0.912109 14.8493 1.91078 13.4697 2.71341ZM11.606 12.8984C11.3537 12.8371 11.0966 12.7562 10.902 12.5856C10.0978 11.8795 11.4132 11.3897 11.9633 11.259C14.7173 10.6062 17.5508 10.3032 20.3826 10.2656C21.9208 10.2459 23.4732 10.3055 24.9678 10.6651C25.6393 10.8265 26.3115 11.0572 26.8492 11.4857C27.1109 11.695 27.3456 11.9686 27.3881 12.297C27.4299 12.6249 27.2088 12.9979 26.8739 13.0285C26.7607 13.0389 26.6434 13.0129 26.5278 12.9869C26.3474 12.9464 26.1711 12.9054 26.0255 13.0025C25.8422 13.1251 25.8398 13.3888 25.8923 13.6004C26.2006 14.8356 27.6109 15.5521 27.9995 16.7664C28.0507 16.926 28.0767 17.1169 27.9682 17.2464C27.8798 17.3528 27.7294 17.3823 27.5915 17.4054C26.9482 17.5124 26.2985 17.62 25.6464 17.5939C24.9943 17.5685 24.3299 17.3985 23.8169 17.0018C23.0693 16.4241 22.7504 15.4688 22.1531 14.7419C21.5087 13.9578 20.5583 13.4726 19.5554 13.2234C19.3573 13.1737 19.1574 13.1338 18.957 13.1031C17.743 12.9129 16.5043 13.0071 15.2762 13.0771C14.7892 13.1049 14.2986 13.128 13.8093 13.128C13.0658 13.128 12.3259 13.0742 11.606 12.8984ZM13.8624 19.2715C13.5098 19.1761 13.1401 19.0564 12.9025 18.7834C12.4367 18.2468 12.6401 17.2522 13.0717 16.7549C13.5546 16.1986 14.3765 15.9944 15.0745 15.8591C16.3156 15.6197 17.5826 15.5122 18.8473 15.5365C19.3685 15.5469 19.9209 15.5897 20.3466 15.8875C20.8401 16.2327 21.0512 16.8399 21.2334 17.4072C21.2664 17.5107 21.3006 17.6182 21.3071 17.7252C21.3112 17.7813 21.3071 17.8374 21.2929 17.8929C21.2522 18.045 21.1331 18.1641 21.014 18.2693C20.079 19.094 18.8402 19.5421 17.5891 19.6641C17.3274 19.6901 17.065 19.7017 16.8026 19.7017C15.8115 19.7017 14.8204 19.5305 13.8624 19.2715ZM29.4451 23.6472C29.3708 23.6374 29.3048 23.5952 29.2441 23.553C28.9009 23.3176 28.5731 23.0476 28.3514 22.6994C27.7123 21.6933 27.7707 19.9596 28.7288 19.1807C28.7818 19.1373 28.8402 19.0957 28.908 19.0864C29.0047 19.0737 29.0967 19.1287 29.1739 19.1882C29.892 19.7358 30.1444 20.6801 30.2847 21.5626C30.3289 21.8459 30.3672 22.1356 30.3501 22.4207C30.3448 22.515 30.333 22.6092 30.313 22.7029C30.2358 23.0771 30.0129 23.4419 29.6591 23.6027C29.6031 23.6293 29.5418 23.6495 29.4805 23.6495C29.4687 23.6495 29.4569 23.649 29.4451 23.6472ZM22.6342 24.0763C22.3866 24.0751 22.1331 24.0537 21.8919 23.9988C21.3389 23.8716 20.7876 23.7311 20.244 23.5703C20.0082 23.5009 19.7794 23.3899 19.5731 23.2592C19.3685 23.1291 19.2836 22.9146 19.3007 22.6682C19.3137 22.4855 19.3213 22.3028 19.3319 22.1096C19.3319 21.9373 19.3378 21.754 19.3308 21.5707C19.3213 21.3157 19.3986 21.0843 19.5866 20.9166C19.7842 20.7403 19.9982 20.5714 20.2322 20.4488C20.8036 20.1499 21.3872 19.8752 21.9698 19.5982C22.4856 19.3519 23.0216 19.3004 23.5717 19.4791C23.9997 19.6179 24.4266 19.7619 24.8511 19.9105C25.3563 20.0874 25.6612 20.4193 25.6741 20.9687C25.6806 21.2867 25.6895 21.6042 25.7036 21.9217C25.7266 22.4641 25.4595 22.8417 24.9961 23.0956C24.5421 23.3436 24.0787 23.5749 23.6188 23.8132C23.3128 23.9716 22.988 24.0763 22.6419 24.0763C22.6395 24.0763 22.6372 24.0763 22.6342 24.0763ZM25.1099 28.8719C24.7143 28.6799 24.3305 28.4642 23.9396 28.2629C23.5522 28.0634 23.4036 27.7518 23.5156 27.3395C23.6436 26.8647 23.7745 26.3911 23.9113 25.9192C24.0298 25.5081 24.3033 25.2057 24.6665 24.9934C25.2396 24.6586 25.8227 24.3377 26.4099 24.0289C26.7731 23.8369 27.1416 23.8323 27.4859 24.0988C27.7023 24.2654 27.924 24.4256 28.1469 24.5829C28.523 24.8465 28.6226 25.2213 28.5702 25.6417C28.5083 26.1332 28.4304 26.6236 28.3461 27.1122C28.2677 27.5627 28.0354 27.9195 27.6221 28.1479C27.2076 28.3769 26.792 28.6041 26.3751 28.8291C26.1523 28.9493 25.9135 29.017 25.6452 29.0494C25.466 28.9921 25.2767 28.9534 25.1099 28.8719Z" fill="url(#paint0_linear_203_13551)"/>
</g>
<defs>
<linearGradient id="paint0_linear_203_13551" x1="-5.94726" y1="19.3001" x2="46.5138" y2="19.3001" gradientUnits="userSpaceOnUse">
<stop stop-color="#00CD87"/>
<stop offset="1" stop-color="#00C8D6"/>
</linearGradient>
<clipPath id="clip0_203_13551">
<rect width="169.46" height="37" fill="white" transform="translate(0 0.912109)"/>
</clipPath>
</defs>
</svg>
