<svg width="60" height="61" fill="none" xmlns="http://www.w3.org/2000/svg"><rect y=".912" width="60" height="60" rx="16" fill="#ECE6D5"/><path d="M30 15.912a4.58 4.58 0 0 0-3.231 1.339l-3.578 3.577-1.057 1.058-5.792 5.795A4.574 4.574 0 0 0 15 30.912c0 1.206.48 2.375 1.339 3.232l2.265 2.264 1.33 1.33 6.835 6.835A4.58 4.58 0 0 0 30 45.913c1.208 0 2.38-.48 3.237-1.348l7.905-7.902 2.522-2.516.003-.003A4.583 4.583 0 0 0 45 30.94a4.57 4.57 0 0 0-1.339-3.26l-1.151-1.149-4.902-4.904-4.37-4.374A4.57 4.57 0 0 0 30 15.912Zm0 3c.433 0 .811.156 1.11.457l.003.003 2.256 2.256-3.627 3.63-3.369-3.372 2.517-2.514c.305-.305.677-.46 1.11-.46Zm5.487 4.837 2.912 2.915-3.647 3.606-2.889-2.891 3.624-3.63Zm-11.232.26 3.366 3.37-6.9 6.908-2.264-2.264v-.004A1.504 1.504 0 0 1 18 30.913c0-.433.154-.802.46-1.107v-.003l5.795-5.792Zm16.268 4.776 1.017 1.017c.31.31.464.682.46 1.116v.009a1.54 1.54 0 0 1-.463 1.104l-2.517 2.511-2.147-2.15 3.65-3.607Zm-10.78.718 7.156 7.16-5.792 5.792-.005.003a1.507 1.507 0 0 1-1.102.454c-.433 0-.805-.154-1.11-.46l-6.044-6.044 6.896-6.905Z" fill="#000"/></svg>