<svg width="809" height="498" fill="none" xmlns="http://www.w3.org/2000/svg"><path fill-rule="evenodd" clip-rule="evenodd" d="M668.708 407.023s-4.301-.933-4.947-.717c-.645.287-8.172 2.726-8.172 2.726l-5.305 6.888-2.437 7.892 1.29 12.126-1.29 5.453-6.237 6.457-2.222 4.018-1.577 5.74 1.003 4.161 2.438 4.735 4.014 3.014 4.301 2.224s4.732 1.435 8.818-.789c4.014-2.224 7.527-8.036 8.602-14.278 1.004-6.242-2.509-10.978-1.577-15.282 1.004-4.305 3.226-7.462 3.226-7.462l3.083-6.242-3.011-20.664Zm-45.522 19.659c4.301-2.296 11.972 1.005 12.187 6.314.072 2.44.358 7.103-1.864 10.188-2.796 3.803-8.244 6.099-8.674 10.332 0 0-.359 5.238 3.441 10.332 3.799 5.094-9.104 17.865-20.503 8.251-11.398-9.614 2.796-11.695 3.298-18.798.573-7.031-7.241-16.143 12.115-26.619Zm157.139-65.29 7.455 5.094 3.513 5.883 1.004 6.673-.646 5.955-2.365 7.318-5.09 4.592-5.878 3.372-3.011 2.87 1.147 7.319.86 7.39-2.007 5.381-6.596 4.377-7.24 2.582-2.509 3.373v6.6l-.86 6.099-6.094 4.592-5.376 1.65s-10.395 1.937-18.424-21.811l1.505-5.238 4.015-2.87 6.954-3.229 3.226-4.878 1.147-5.382-2.366-9.829.143-5.883 1.147-4.449 3.728-1.793 5.878-2.081h4.588l3.226-4.592 1.506-10.547 4.014-6.96 6.094-1.506c.071-.072 4.946-1.722 7.312-.072Z" fill="#fff"/><path fill-rule="evenodd" clip-rule="evenodd" d="M805.487 260.441c1.935 0 3.441 1.579 3.441 3.444a3.443 3.443 0 0 1-3.441 3.444 3.443 3.443 0 0 1-3.441-3.444c0-1.865 1.577-3.444 3.441-3.444Zm-11.828 0c1.935 0 3.441 1.579 3.441 3.444a3.443 3.443 0 0 1-3.441 3.444 3.443 3.443 0 0 1-3.441-3.444c0-1.865 1.577-3.444 3.441-3.444Zm-11.828 0c1.935 0 3.441 1.579 3.441 3.444a3.443 3.443 0 0 1-3.441 3.444c-1.864 0-3.441-1.578-3.441-3.444 0-1.865 1.577-3.444 3.441-3.444Z" fill="#1C1C1C"/><path fill-rule="evenodd" clip-rule="evenodd" d="M781.831 260.441c1.935 0 3.441 1.579 3.441 3.444a3.443 3.443 0 0 1-3.441 3.444c-1.864 0-3.441-1.578-3.441-3.444 0-1.865 1.577-3.444 3.441-3.444Zm-11.828 0c1.935 0 3.441 1.579 3.441 3.444a3.443 3.443 0 0 1-3.441 3.444 3.443 3.443 0 0 1-3.441-3.444c0-1.865 1.577-3.444 3.441-3.444Zm-11.83 0a3.443 3.443 0 0 1 3.441 3.444 3.443 3.443 0 0 1-3.441 3.444 3.443 3.443 0 0 1-3.441-3.444c0-1.865 1.506-3.444 3.441-3.444Zm-11.828 0a3.443 3.443 0 0 1 3.441 3.444 3.443 3.443 0 0 1-3.441 3.444 3.443 3.443 0 0 1-3.441-3.444c0-1.865 1.506-3.444 3.441-3.444Zm59.142 0c1.935 0 3.441 1.579 3.441 3.444a3.443 3.443 0 0 1-3.441 3.444 3.443 3.443 0 0 1-3.441-3.444c0-1.865 1.577-3.444 3.441-3.444Zm-11.828 0c1.935 0 3.441 1.579 3.441 3.444a3.443 3.443 0 0 1-3.441 3.444 3.443 3.443 0 0 1-3.441-3.444c0-1.865 1.577-3.444 3.441-3.444Z" fill="#1C1C1C"/><path fill-rule="evenodd" clip-rule="evenodd" d="M781.831 260.441c1.935 0 3.441 1.579 3.441 3.444a3.443 3.443 0 0 1-3.441 3.444c-1.864 0-3.441-1.578-3.441-3.444 0-1.865 1.577-3.444 3.441-3.444Z" fill="#1C1C1C"/><path fill-rule="evenodd" clip-rule="evenodd" d="M781.831 260.441c1.935 0 3.441 1.579 3.441 3.444a3.443 3.443 0 0 1-3.441 3.444c-1.864 0-3.441-1.578-3.441-3.444 0-1.865 1.577-3.444 3.441-3.444Zm-11.828 0c1.935 0 3.441 1.579 3.441 3.444a3.443 3.443 0 0 1-3.441 3.444 3.443 3.443 0 0 1-3.441-3.444c0-1.865 1.577-3.444 3.441-3.444Zm-11.83 0a3.443 3.443 0 0 1 3.441 3.444 3.443 3.443 0 0 1-3.441 3.444 3.443 3.443 0 0 1-3.441-3.444c0-1.865 1.506-3.444 3.441-3.444Zm-11.828 0a3.443 3.443 0 0 1 3.441 3.444 3.443 3.443 0 0 1-3.441 3.444 3.443 3.443 0 0 1-3.441-3.444c0-1.865 1.506-3.444 3.441-3.444Zm59.142 11.911a3.443 3.443 0 0 1 0 6.887 3.443 3.443 0 0 1-3.441-3.444c0-1.865 1.577-3.443 3.441-3.443Zm-11.828 0a3.443 3.443 0 0 1 0 6.887 3.443 3.443 0 0 1-3.441-3.444c0-1.865 1.577-3.443 3.441-3.443Zm-11.828 0a3.443 3.443 0 0 1 0 6.887c-1.864 0-3.441-1.578-3.441-3.444 0-1.865 1.577-3.443 3.441-3.443Z" fill="#1C1C1C"/><path fill-rule="evenodd" clip-rule="evenodd" d="M781.831 272.352a3.443 3.443 0 0 1 0 6.887c-1.864 0-3.441-1.578-3.441-3.444 0-1.865 1.577-3.443 3.441-3.443Zm-11.828 0a3.443 3.443 0 0 1 0 6.887 3.443 3.443 0 0 1-3.441-3.444c0-1.865 1.577-3.443 3.441-3.443Zm-11.83 0a3.442 3.442 0 0 1 3.441 3.443 3.443 3.443 0 0 1-3.441 3.444 3.443 3.443 0 0 1-3.441-3.444 3.443 3.443 0 0 1 3.441-3.443Zm-11.828 0a3.442 3.442 0 0 1 3.441 3.443 3.443 3.443 0 0 1-3.441 3.444 3.443 3.443 0 0 1-3.441-3.444 3.443 3.443 0 0 1 3.441-3.443Z" fill="#1C1C1C"/><path d="m459.427 192.393-12.216 12.227 3.092 3.095 12.216-12.227-3.092-3.095Z" fill="#EEBD20"/><path d="m450.302 192.484-3.092 3.095 12.218 12.225 3.092-3.095-12.218-12.225Z" fill="#EEBD20"/><path d="M737.384 187.116c1.506.43 2.438 2.08 1.936 3.659-.502 1.507-2.151 2.368-3.656 1.865-1.506-.502-2.294-2.152-1.792-3.587.43-1.507 1.935-2.368 3.512-1.937Zm2.868-11.121c1.577.358 2.509 1.937 2.151 3.515-.359 1.579-2.008 2.511-3.513 2.081-1.577-.431-2.366-1.937-2.079-3.444a2.862 2.862 0 0 1 3.441-2.152Zm2.222-11.336c1.577.215 2.652 1.722 2.366 3.372-.287 1.578-1.721 2.655-3.298 2.368-1.577-.287-2.581-1.794-2.366-3.373.215-1.578 1.721-2.654 3.298-2.367Zm1.434-11.48a2.792 2.792 0 0 1 2.509 3.157c-.215 1.578-1.577 2.726-3.154 2.583-1.578-.215-2.725-1.65-2.51-3.157.144-1.578 1.578-2.726 3.155-2.583Zm.645-11.552c1.577 0 2.939 1.363 2.795 3.013-.071 1.651-1.433 2.87-3.011 2.799-1.577-.072-2.795-1.435-2.724-3.014.072-1.578 1.291-2.798 2.94-2.798Zm-.216-11.552c1.578-.071 2.94 1.148 3.011 2.798.072 1.651-1.218 2.942-2.795 3.014a2.926 2.926 0 0 1-2.94-2.798c-.071-1.579 1.147-2.87 2.724-3.014Zm-1.003-11.479c1.577-.215 3.011.933 3.154 2.583.144 1.65-1.003 3.085-2.581 3.157-1.577.144-3.01-1.004-3.154-2.583-.072-1.507 1.076-2.942 2.581-3.157Zm-2.079-11.336c1.577-.359 3.083.646 3.513 2.224.287 1.579-.789 3.157-2.294 3.444-1.577.287-3.011-.717-3.298-2.296-.43-1.506.574-3.013 2.079-3.372Zm-3.154-11.122c1.505-.574 3.082.287 3.584 1.866.502 1.578-.358 3.228-1.864 3.659-1.505.43-3.154-.431-3.584-1.865-.43-1.507.358-3.086 1.864-3.66Zm-4.731-10.546c1.362-.789 3.154-.215 3.871 1.292.788 1.506.143 3.228-1.362 3.874-1.434.646-3.083 0-3.8-1.363-.645-1.292-.071-3.014 1.291-3.803Zm-6.453-9.472c1.219-1.076 3.011-.86 4.158.431 1.076 1.292.646 3.229-.645 4.09-1.362.933-3.011.502-3.943-.646-1.003-1.076-.788-2.798.43-3.874Zm-8.315-8.035c1.004-1.291 2.796-1.363 4.015-.215 1.218 1.148 1.29 3.013.215 4.09-1.076 1.148-2.868 1.22-4.015.215-1.075-1.076-1.147-2.87-.215-4.09Zm-9.534-6.529c.789-1.363 2.581-1.866 4.086-1.005a2.866 2.866 0 0 1 .789 4.09c-.932 1.291-2.653 1.578-3.871.79-1.291-.718-1.721-2.44-1.004-3.875Zm-10.395-4.807c.502-1.507 2.222-2.224 3.728-1.579 1.577.646 2.294 2.296 1.577 3.731-.645 1.435-2.366 2.153-3.728 1.579-1.362-.574-2.079-2.224-1.577-3.731Zm-11.183-2.87c.287-1.507 1.792-2.727 3.441-2.296 1.649.43 2.581 2.009 2.222 3.515-.43 1.507-1.935 2.511-3.369 2.081-1.506-.43-2.509-1.722-2.294-3.3Zm-11.47-1.076c0-1.578 1.433-2.87 3.082-2.798 1.649 0 2.868 1.506 2.724 3.085-.143 1.578-1.505 2.655-3.011 2.655-1.577 0-2.795-1.364-2.795-2.942Zm-11.542.359c-.143-1.579 1.076-2.942 2.724-3.086 1.649-.071 3.011 1.077 3.011 2.655.072 1.579-1.147 2.942-2.724 3.085-1.505.144-2.867-1.076-3.011-2.654Zm-11.398 1.435c-.287-1.579.86-3.014 2.438-3.229 1.648-.215 3.082.861 3.297 2.44.215 1.578-.932 3.013-2.437 3.228-1.577.216-3.083-.86-3.298-2.44Zm-11.327 2.223a2.773 2.773 0 0 1 2.223-3.371c1.577-.36 3.154.645 3.441 2.224.286 1.578-.717 3.085-2.223 3.372-1.577.287-3.082-.717-3.441-2.224Zm-11.183 2.799c-.43-1.507.502-3.086 2.079-3.516 1.577-.43 3.154.502 3.512 2.08.359 1.507-.573 3.086-2.079 3.516-1.505.36-3.082-.574-3.512-2.08Zm-11.112 3.229c-.502-1.507.43-3.085 1.936-3.588 1.577-.43 3.154.43 3.584 1.937.43 1.507-.43 3.157-1.936 3.588-1.505.502-3.082-.43-3.584-1.937Zm-10.968 3.587c-.502-1.507.359-3.157 1.864-3.66 1.505-.502 3.154.36 3.656 1.866.502 1.507-.358 3.157-1.864 3.66-1.505.43-3.154-.36-3.656-1.866Zm-10.897 3.731c-.502-1.507.287-3.157 1.792-3.66 1.506-.502 3.155.287 3.657 1.794.501 1.507-.287 3.157-1.793 3.66-1.505.502-3.154-.288-3.656-1.794Zm-10.896 3.946c-.573-1.507.215-3.157 1.721-3.73a2.79 2.79 0 0 1 3.656 1.721c.502 1.507-.215 3.157-1.721 3.731-1.433.502-3.082-.287-3.656-1.722Zm-10.825 3.946c-.573-1.506.215-3.157 1.721-3.73 1.505-.575 3.154.215 3.727 1.721a2.793 2.793 0 0 1-1.72 3.66c-1.506.573-3.154-.144-3.728-1.65Zm-10.753 4.162c-.573-1.508.215-3.158 1.649-3.732 1.505-.574 3.154.144 3.728 1.65.573 1.507-.215 3.157-1.649 3.731-1.506.574-3.154-.215-3.728-1.65Zm-11.04 3.371c-.287-1.578.645-3.085 2.079-3.372 1.434-.43 3.011.43 3.441 1.937.502 1.507-.43 3.157-2.007 3.66-1.577.287-3.226-.718-3.513-2.225Zm-11.398 1.364c-.072-1.578 1.147-2.87 2.652-3.013 1.506-.144 2.868 1.004 3.083 2.583.215 1.578-1.004 3.013-2.653 3.157-1.648.143-3.082-1.22-3.082-2.727Zm-11.542-.287c.144-1.579 1.506-2.727 3.011-2.727 1.506.072 2.724 1.435 2.724 3.014 0 1.578-1.362 2.798-3.011 2.726-1.648 0-2.867-1.435-2.724-3.013Zm-11.47-1.435c.287-1.578 1.721-2.654 3.298-2.439 1.505.215 2.652 1.722 2.437 3.3-.215 1.579-1.649 2.655-3.298 2.44-1.577-.287-2.724-1.722-2.437-3.3Zm-11.326-2.296c.359-1.578 1.864-2.511 3.441-2.152 1.506.287 2.509 1.793 2.222 3.372-.286 1.578-1.863 2.583-3.441 2.224-1.577-.359-2.58-1.865-2.222-3.444Zm-11.183-2.798c.43-1.507 2.007-2.44 3.512-2.08 1.506.43 2.438 2.008 2.079 3.515-.358 1.578-1.935 2.44-3.512 2.08-1.578-.358-2.51-1.937-2.079-3.515Zm-11.112-3.157c.43-1.507 2.079-2.368 3.585-1.938 1.505.43 2.365 2.01 1.935 3.588-.43 1.506-2.079 2.44-3.584 1.937-1.506-.502-2.366-2.08-1.936-3.587Zm-10.968-3.444c.502-1.506 2.079-2.367 3.584-1.865 1.506.502 2.366 2.08 1.864 3.587-.502 1.507-2.079 2.368-3.584 1.866-1.506-.43-2.366-2.08-1.864-3.588Zm-10.968-3.587c.502-1.507 2.151-2.296 3.656-1.865 1.506.502 2.366 2.08 1.864 3.659-.502 1.506-2.151 2.367-3.656 1.865a2.868 2.868 0 0 1-1.864-3.659Zm-10.969-3.587c.502-1.507 2.151-2.296 3.657-1.794 1.505.502 2.365 2.152 1.863 3.66-.501 1.506-2.15 2.295-3.656 1.793a2.869 2.869 0 0 1-1.864-3.66Zm-10.967-3.588c.501-1.507 2.079-2.368 3.656-1.866 1.505.503 2.365 2.153 1.864 3.66-.502 1.506-2.151 2.295-3.656 1.865-1.578-.574-2.366-2.153-1.864-3.66Zm-11.04-3.516c.43-1.507 2.078-2.368 3.584-1.865 1.505.502 2.366 2.08 1.864 3.587-.502 1.507-2.079 2.368-3.585 1.865-1.433-.43-2.294-2.08-1.863-3.587Zm-11.04-3.3c.43-1.507 2.007-2.44 3.584-1.937a2.805 2.805 0 0 1 1.936 3.587c-.43 1.507-2.079 2.368-3.584 1.937-1.506-.43-2.366-2.08-1.936-3.587Zm-11.112-3.014c.43-1.506 2.007-2.44 3.512-2.009a2.926 2.926 0 0 1 2.079 3.516c-.43 1.507-2.007 2.44-3.512 2.009-1.577-.43-2.509-2.009-2.079-3.516Zm-11.255-2.726c.359-1.507 1.936-2.583 3.441-2.153a2.865 2.865 0 0 1 2.151 3.444 2.862 2.862 0 0 1-3.441 2.153c-1.506-.43-2.509-1.866-2.151-3.444Zm-11.326-2.225c.287-1.578 1.792-2.583 3.369-2.296 1.577.287 2.653 1.794 2.294 3.372-.286 1.579-1.792 2.583-3.369 2.296a3.025 3.025 0 0 1-2.294-3.372Zm-11.399-1.722a2.843 2.843 0 0 1 3.226-2.439c1.577.215 2.724 1.65 2.509 3.229a2.843 2.843 0 0 1-3.226 2.44c-1.577-.216-2.652-1.651-2.509-3.23Zm-11.47-.933c.072-1.578 1.434-2.797 3.083-2.726 1.649.072 2.796 1.579 2.652 3.086-.143 1.578-1.505 2.726-3.082 2.654-1.506-.072-2.724-1.435-2.653-3.013Zm-11.541-.143c-.072-1.578 1.219-2.87 2.868-2.941 1.648 0 2.939 1.291 2.939 2.87 0 1.578-1.291 2.87-2.868 2.942-1.577 0-2.867-1.292-2.939-2.87Zm-11.47 1.005c-.215-1.578.932-3.013 2.581-3.229 1.649-.143 3.082 1.077 3.154 2.655a2.828 2.828 0 0 1-2.581 3.085 2.88 2.88 0 0 1-3.154-2.51Zm-11.398 2.08c-.43-1.506.574-3.085 2.222-3.443 1.577-.36 3.155.645 3.441 2.152.287 1.578-.717 3.085-2.222 3.444-1.505.43-3.011-.574-3.441-2.153Zm-10.969 3.588c-.645-1.435.144-3.157 1.721-3.802 1.577-.503 3.226.358 3.728 1.865.501 1.507-.359 3.085-1.793 3.587-1.362.503-3.01-.215-3.656-1.65Zm-10.035 5.525c-.932-1.292-.502-3.085.932-4.018 1.362-.933 3.225-.43 4.014 1.004.789 1.435.287 3.014-1.004 3.875-1.29.86-3.082.43-3.942-.861Zm-8.962 7.245c-1.075-1.147-1.004-2.94.287-4.089 1.218-1.076 3.082-1.004 4.086.287 1.004 1.22.86 3.014-.287 4.09-1.218 1.004-3.011.86-4.086-.287Zm-7.957 8.468c-1.219-1.005-1.362-2.87-.215-4.09 1.075-1.22 2.939-1.363 4.086-.287 1.147 1.076 1.29 2.942.215 4.09-1.004 1.148-2.796 1.291-4.086.287Zm-6.882 9.183c-1.29-.86-1.649-2.726-.645-4.018.932-1.363 2.724-1.65 4.014-.645 1.219.932 1.578 2.726.646 4.017-.932 1.22-2.724 1.579-4.015.646Zm-6.094 9.829c-1.362-.788-1.863-2.582-1.075-3.945.789-1.435 2.653-1.866 3.943-1.005 1.362.861 1.72 2.583 1.004 3.946-.717 1.364-2.438 1.794-3.872 1.005Zm-5.233 10.332c-1.433-.645-2.079-2.439-1.362-3.874.717-1.435 2.509-2.01 3.871-1.292 1.434.718 2.008 2.44 1.291 3.803-.645 1.363-2.366 2.009-3.8 1.363Zm-4.516 10.619a2.77 2.77 0 0 1-1.577-3.73c.645-1.507 2.294-2.225 3.727-1.579 1.434.646 2.151 2.296 1.577 3.731-.573 1.363-2.222 2.081-3.727 1.578Zm-3.656 10.906c-1.506-.431-2.366-2.081-1.864-3.659.502-1.579 2.079-2.368 3.656-1.866 1.505.502 2.294 2.153 1.864 3.659-.574 1.507-2.151 2.296-3.656 1.866Zm-2.939 11.193c-1.506-.359-2.509-1.937-2.151-3.516.43-1.578 2.007-2.511 3.513-2.08 1.505.43 2.437 1.937 2.079 3.444-.43 1.506-1.936 2.511-3.441 2.152Zm-2.223 11.336c-1.577-.215-2.58-1.722-2.365-3.372.286-1.579 1.792-2.655 3.297-2.368 1.577.287 2.581 1.794 2.366 3.372-.215 1.507-1.721 2.583-3.298 2.368Zm-1.362 11.48c-1.577-.144-2.724-1.507-2.652-3.157.143-1.651 1.649-2.799 3.154-2.583 1.577.215 2.652 1.578 2.509 3.157 0 1.506-1.362 2.654-3.011 2.583Zm-.43 11.48c-1.577 0-2.939-1.292-2.867-2.942.071-1.65 1.362-2.87 3.011-2.798a2.925 2.925 0 0 1 2.795 2.941c-.143 1.579-1.362 2.799-2.939 2.799Zm.431 11.551c-1.577.143-2.94-1.076-3.083-2.727-.072-1.65 1.075-3.013 2.653-3.085 1.577-.072 2.939 1.148 3.082 2.727.143 1.578-1.075 2.941-2.652 3.085Zm1.504 11.479c-1.577.287-3.082-.789-3.369-2.439a2.928 2.928 0 0 1 2.509-3.301c1.577-.215 3.011.933 3.226 2.44.215 1.507-.86 3.013-2.366 3.3Zm2.438 11.265c-1.577.431-3.083-.502-3.513-2.081-.358-1.578.574-3.157 2.079-3.515 1.577-.359 3.083.574 3.441 2.08.43 1.507-.502 3.086-2.007 3.516Zm3.728 10.906c-1.506.574-3.154-.144-3.728-1.722-.645-1.507.215-3.229 1.721-3.731 1.505-.502 3.082.287 3.656 1.722.573 1.507-.144 3.157-1.649 3.731Zm4.875 10.475c-1.362.718-3.226.215-3.943-1.291-.717-1.507-.072-3.229 1.362-3.875 1.434-.645 3.154-.071 3.799 1.364.646 1.363.215 3.013-1.218 3.802Zm6.022 9.829c-1.291.933-3.083.574-3.943-.861-.932-1.363-.502-3.157.86-4.018 1.362-.861 3.154-.43 4.015.861.716 1.364.358 3.157-.932 4.018Zm7.455 8.825c-1.147 1.148-2.939 1.077-4.086-.143-1.219-1.148-1.076-3.085.215-4.09 1.218-1.004 2.939-.861 4.014.215 1.004 1.077 1.004 2.87-.143 4.018Zm8.746 7.534c-.932 1.291-2.796 1.506-4.086.502-1.219-1.076-1.434-2.942-.359-4.161 1.075-1.22 2.796-1.364 4.015-.359 1.147 1.004 1.362 2.726.43 4.018Zm9.534 6.457c-.789 1.363-2.581 1.722-3.943.861s-1.792-2.655-.86-4.018c.86-1.291 2.652-1.722 3.943-.861 1.218.933 1.648 2.655.86 4.018Zm10.108 5.526c-.717 1.435-2.437 2.009-3.943 1.291-1.433-.717-1.935-2.583-1.218-3.946.788-1.363 2.509-1.866 3.871-1.148 1.433.717 2.007 2.439 1.29 3.803Zm10.466 4.878c-.645 1.435-2.294 2.152-3.799 1.435a2.864 2.864 0 0 1-1.506-3.803c.645-1.435 2.366-2.08 3.8-1.435 1.433.646 2.079 2.368 1.505 3.803Zm10.753 4.233c-.502 1.506-2.222 2.296-3.728 1.722-1.505-.574-2.222-2.296-1.648-3.731.573-1.507 2.222-2.224 3.727-1.65a2.968 2.968 0 0 1 1.649 3.659Zm10.897 3.731c-.502 1.507-2.079 2.368-3.656 1.866-1.506-.502-2.366-2.153-1.864-3.659.501-1.507 2.15-2.296 3.656-1.794 1.505.43 2.365 2.009 1.864 3.587Zm11.04 3.301c-.43 1.506-2.007 2.439-3.584 1.937-1.577-.431-2.438-2.009-2.008-3.588.431-1.506 2.079-2.439 3.585-1.937 1.577.431 2.437 2.009 2.007 3.588Zm11.183 2.941c-.358 1.579-1.935 2.511-3.513 2.081-1.577-.431-2.509-2.009-2.079-3.516.431-1.507 2.008-2.439 3.513-2.081a2.95 2.95 0 0 1 2.079 3.516Zm11.255 2.583c-.359 1.578-1.864 2.511-3.441 2.224a2.865 2.865 0 0 1-2.151-3.444 2.862 2.862 0 0 1 3.441-2.152c1.506.287 2.438 1.794 2.151 3.372Zm11.255 2.368c-.287 1.578-1.792 2.583-3.369 2.296-1.578-.287-2.581-1.794-2.294-3.372.286-1.579 1.863-2.583 3.369-2.225 1.649.216 2.652 1.722 2.294 3.301Zm11.398 2.081c-.287 1.578-1.792 2.583-3.369 2.296-1.577-.287-2.653-1.794-2.294-3.372.287-1.579 1.792-2.583 3.369-2.296 1.506.358 2.509 1.865 2.294 3.372Zm11.327 1.936c-.215 1.579-1.721 2.655-3.298 2.368-1.577-.287-2.652-1.722-2.365-3.3.286-1.579 1.72-2.655 3.297-2.368 1.577.215 2.653 1.722 2.366 3.3Zm11.47 1.723c-.215 1.578-1.721 2.654-3.298 2.439-1.577-.215-2.652-1.722-2.437-3.3.215-1.579 1.72-2.655 3.297-2.44 1.506.287 2.653 1.722 2.438 3.301Zm11.399 1.506c-.215 1.579-1.649 2.727-3.226 2.512-1.577-.216-2.724-1.651-2.509-3.229a2.842 2.842 0 0 1 3.226-2.439 2.79 2.79 0 0 1 2.509 3.156Zm11.469 1.435c-.215 1.579-1.648 2.726-3.226 2.511-1.577-.215-2.724-1.65-2.509-3.228.215-1.579 1.649-2.727 3.226-2.512 1.577.216 2.653 1.651 2.509 3.229Zm11.47 1.22c-.144 1.579-1.577 2.727-3.154 2.583-1.577-.143-2.725-1.578-2.581-3.157.143-1.578 1.577-2.726 3.154-2.583 1.577.144 2.724 1.579 2.581 3.157Zm11.471 1.149c-.144 1.578-1.578 2.726-3.155 2.582-1.577-.143-2.724-1.578-2.58-3.156.143-1.579 1.577-2.727 3.154-2.583 1.577.143 2.724 1.578 2.581 3.157Zm11.469 1.075c-.143 1.579-1.505 2.727-3.154 2.583-1.577-.143-2.796-1.507-2.653-3.085.144-1.578 1.578-2.726 3.155-2.583 1.648.072 2.795 1.435 2.652 3.085Zm11.542.933c-.144 1.578-1.506 2.798-3.083 2.654-1.577-.143-2.796-1.506-2.652-3.085.143-1.578 1.505-2.726 3.082-2.654 1.577.143 2.796 1.506 2.653 3.085Zm11.469.861c-.143 1.578-1.505 2.798-3.082 2.654-1.577-.143-2.796-1.506-2.653-3.085.144-1.578 1.506-2.798 3.083-2.655 1.649.144 2.796 1.507 2.652 3.086Zm11.542.933c-.143 1.579-1.505 2.798-3.082 2.655-1.577-.144-2.796-1.507-2.653-3.085.144-1.579 1.506-2.799 3.083-2.655 1.577.072 2.796 1.435 2.652 3.085Zm11.471.789c-.072 1.579-1.434 2.798-3.083 2.727-1.649-.072-2.796-1.507-2.652-3.085.143-1.579 1.577-2.727 3.082-2.655 1.506.072 2.724 1.363 2.653 3.013Zm11.541-.143c.072 1.578-1.147 2.941-2.795 3.013a2.792 2.792 0 0 1-2.94-2.798 2.926 2.926 0 0 1 2.796-2.942c1.577-.072 2.868 1.148 2.939 2.727Zm11.542-.934c.143 1.579-1.004 3.014-2.581 3.157-1.577.144-3.011-1.076-3.154-2.654a2.827 2.827 0 0 1 2.58-3.086c1.578-.143 2.94 1.005 3.155 2.583Zm11.398-1.506c.287 1.579-.86 3.085-2.438 3.301-1.577.215-3.082-.861-3.297-2.44a2.844 2.844 0 0 1 2.437-3.228c1.577-.287 3.083.789 3.298 2.367Zm11.398-2.081c.287 1.579-.717 3.085-2.294 3.372-1.577.287-3.083-.717-3.369-2.296-.287-1.578.716-3.085 2.294-3.372 1.505-.287 3.01.718 3.369 2.296Zm11.255-2.511c.358 1.579-.574 3.085-2.151 3.444s-3.154-.646-3.441-2.152a2.885 2.885 0 0 1 2.151-3.444c1.505-.359 3.082.646 3.441 2.152Zm11.184-2.869c.43 1.506-.502 3.085-2.007 3.515-1.577.431-3.155-.502-3.513-2.009-.43-1.578.502-3.085 2.079-3.515 1.434-.431 3.011.43 3.441 2.009Zm11.039-3.301a2.805 2.805 0 0 1-1.936 3.587c-1.505.431-3.154-.43-3.584-1.937-.43-1.507.43-3.157 1.936-3.587 1.505-.431 3.154.43 3.584 1.937Zm10.968-3.588c.502 1.507-.286 3.157-1.792 3.659-1.505.502-3.154-.287-3.656-1.794-.502-1.506.287-3.156 1.792-3.659 1.506-.502 3.155.287 3.656 1.794Zm10.825-4.018c.573 1.507-.215 3.157-1.649 3.731-1.505.574-3.154-.144-3.728-1.65-.573-1.507.215-3.157 1.721-3.731 1.434-.574 3.082.215 3.656 1.65Zm10.682-4.304c.645 1.435-.072 3.157-1.577 3.731-1.506.645-3.155-.072-3.8-1.579-.573-1.507.072-3.157 1.577-3.731 1.506-.574 3.226.144 3.8 1.579Zm10.538-4.736a2.934 2.934 0 0 1-1.434 3.874c-1.505.646-3.154 0-3.799-1.435s0-3.157 1.434-3.802c1.433-.646 3.154-.072 3.799 1.363Zm10.395-5.094a2.878 2.878 0 0 1-1.291 3.875 2.873 2.873 0 0 1-3.871-1.292 2.876 2.876 0 0 1 1.291-3.874c1.362-.646 3.154-.072 3.871 1.291Zm10.107-5.453c.789 1.363.287 3.157-1.147 3.946-1.434.79-3.154.287-3.943-1.148-.788-1.363-.215-3.156 1.147-3.874 1.434-.789 3.155-.287 3.943 1.076Zm9.893-5.955c.86 1.363.43 3.157-.932 4.018-1.362.861-3.154.359-4.015-1.004-.788-1.364-.358-3.157 1.004-3.947 1.362-.789 3.083-.43 3.943.933Zm9.606-6.457c.932 1.291.574 3.085-.717 4.018-1.362.933-3.082.646-4.014-.718-.86-1.291-.574-3.085.717-4.018 1.29-.932 3.082-.574 4.014.718Zm9.176-6.96c1.004 1.219.789 3.085-.501 4.018-1.291 1.004-3.083.789-4.087-.503-.931-1.291-.716-3.085.502-4.018 1.291-.932 3.083-.717 4.086.503Zm8.674-7.605c1.075 1.148 1.004 3.013-.215 4.09-1.147 1.148-3.011 1.004-4.086-.216-1.004-1.219-.861-2.941.215-4.089 1.218-1.005 3.011-.933 4.086.215Zm8.101-8.252a2.803 2.803 0 0 1 .143 4.09c-1.147 1.148-2.939 1.22-4.086.072-1.147-1.148-1.147-2.942-.072-4.018 1.076-1.076 2.868-1.148 4.015-.144Zm7.313-8.968c1.29.933 1.505 2.727.573 4.09a2.682 2.682 0 0 1-4.014.502c-1.219-1.004-1.434-2.798-.502-4.018.86-1.219 2.652-1.506 3.943-.574Zm6.164-9.686c1.362.718 1.936 2.583 1.075 4.018-.86 1.364-2.724 1.794-4.014.933a2.825 2.825 0 0 1-.932-3.874c.789-1.364 2.437-1.866 3.871-1.077Zm4.875-10.475c1.506.574 2.151 2.224 1.506 3.73-.645 1.507-2.366 2.225-3.8 1.579-1.433-.646-2.15-2.368-1.505-3.731.645-1.435 2.294-2.081 3.799-1.578Z" fill="#1C1C1C"/><path fill-rule="evenodd" clip-rule="evenodd" d="M609.853 472.314c1.648-2.942 4.516-5.022 4.803-9.471.143-2.798-.646-5.668-.646-8.897 0-5.883 2.94-9.614 6.022-12.699.717-.718 3.871-4.018 4.445-1.363.215 1.148-1.076 2.009-1.792 2.654-2.725 2.512-5.735 6.027-5.807 11.05 0 2.798.717 6.027.645 8.681-.072 8.467-6.954 9.256-6.38 18.296.287 4.233 1.935 8.108 3.584 11.264.574 1.077 1.506 2.081 1.434 3.444-.645.431-2.007-.071-2.867-.143-2.653-5.022-6.381-12.484-4.445-20.09-3.226-2.296-6.237-4.448-6.38-9.399 0-1.937.645-3.946 1.362-5.094 1.29-2.152 4.731-4.161 5.233-6.601.502-2.511-.932-5.022-1.147-7.246-.502-7.031 2.366-11.695 5.878-15.283 2.796-2.798 7.026-5.668 11.685-6.026 8.531-.646 13.908 8.251 10.395 16.071-1.147 2.511-3.369 4.807-5.233 6.673-1.864 1.937-4.731 4.089-5.018 6.816-.215 2.296 1.218 4.233 2.222 5.883 1.219 2.153 2.939 4.377 2.366 7.606-.502 2.726-3.37 4.735-5.664 6.026-.788.431-2.365 1.292-4.014 1.866-1.434.574-3.584 1.291-3.799-.431-.144-1.291 1.505-1.722 2.58-2.152 1.219-.502 2.438-1.005 3.226-1.435 1.649-.933 4.588-2.583 4.875-4.448.502-2.655-1.721-4.808-2.581-6.386-1.003-1.794-2.294-4.09-2.15-6.673.286-3.3 2.939-5.811 4.874-7.82 2.653-2.655 6.094-5.238 6.38-9.901.287-5.095-2.724-8.897-7.383-8.897-4.588 0-8.029 2.655-10.467 5.022-3.082 3.014-5.735 6.888-5.376 13.13.215 2.798 1.505 5.238 1.147 7.892-.574 3.731-4.875 5.453-6.094 8.825-1.505 4.592 1.219 7.319 4.087 9.256Z" fill="#1C1C1C"/><path fill-rule="evenodd" clip-rule="evenodd" d="M2.23 494.269c2.452-.43 8.025-.143 12.148-.143h739.676c2.117 0 3.343-.072 5.906 0 5.684.072 5.684 3.587-.223 3.659-13.931.287-28.642 0-41.904 0H10.701c-4.235 0-9.362.359-10.365-1.004-.78-.861-.223-2.081 1.895-2.512Z" fill="#1C1C1C"/><path fill-rule="evenodd" clip-rule="evenodd" d="M664.622 405.086h1.219c6.595.646 8.315 5.094 10.036 10.906 1.29 4.448 2.222 9.327 0 13.058-1.147 1.937-2.939 3.587-4.588 5.237-1.936 1.938-4.373 3.875-4.588 7.104-.215 3.228 1.147 6.744 1.434 10.475.788 10.188-3.585 15.856-9.606 19.946-.861.574-3.37 2.224-3.8.359-.287-1.364 1.506-2.081 2.581-2.799 5.018-3.587 9.032-9.399 7.885-18.511-.501-3.946-2.294-7.892-1.003-11.838 1.864-5.812 7.742-7.605 9.678-12.7 1.362-3.587-.287-8.107-1.434-11.479-1.075-3.014-2.151-5.525-4.445-6.458-3.584-1.506-8.172.574-10.681 2.153-3.871 2.439-7.312 5.811-7.814 10.906-.645 6.6 2.509 14.277-.358 19.874-2.223 4.233-6.452 6.457-8.675 10.475-1.648 3.013-1.864 7.677-.43 10.834 1.362 3.085 4.588 4.951 7.456 6.099-1.004-5.381-.717-10.978 1.147-14.852 1.792-3.803 5.233-6.601 6.452-10.476 1.433-4.591-1.434-10.905.573-15.354 1.29-2.87 4.516-5.381 7.671-6.887 1.003-.503 2.867-.933 3.154.574.287 1.721-3.154 2.654-4.373 3.443-2.079 1.435-4.086 3.373-4.373 6.386-.215 2.439.358 5.022.573 7.462.502 7.677-4.803 11.193-7.097 16.287-1.792 3.802-1.29 9.255-.645 13.632 1.076 7.318 2.438 16 1.649 25.183-.072.861 0 2.296-1.577 2.368-2.222-.287-1.29-3.444-1.219-5.237.287-6.673-.215-13.633-1.362-19.085-6.093-2.368-11.255-5.74-11.9-13.489v-1.794c.287-4.233 2.151-7.246 4.373-9.686 2.079-2.296 5.018-4.52 6.38-7.605 2.223-5.238-.645-11.839-.215-17.937.359-4.879 3.083-8.395 6.022-11.049 3.082-2.799 6.882-5.023 11.9-5.525Zm75.199 41.83c2.725-5.597-1.003-13.058 1.649-18.296 1.506-3.013 4.445-4.735 7.456-6.673 2.007-1.291 4.516-2.798 5.448-4.878 2.509-5.74-3.441-12.843-.645-18.655.573-1.22 2.15-2.439 3.154-3.013 4.445-2.583 11.542-3.157 14.624-7.104 1.004-1.363 2.007-3.372 2.581-5.381.358-1.219.502-5.668 2.151-5.811 1.935-.144 1.505 2.152 1.218 3.874-.86 4.879-2.796 8.753-5.878 11.121-2.079 1.579-4.947 2.727-7.814 3.659-2.509.79-6.38 1.579-7.384 4.018-.788 2.009 0 5.023.43 7.103.789 3.659 1.864 8.108.144 11.623-1.291 2.512-4.015 4.234-6.452 5.812-2.509 1.579-5.52 3.301-6.595 5.883-1.004 2.512-.359 6.243-.144 9.041.215 3.228-.071 6.027-1.147 8.394-1.003 2.153-2.437 3.946-3.656 6.027-4.731 7.821-4.588 21.955-4.014 34.368.071 1.219.215 2.869.358 4.591.072 1.077.359 3.157-1.147 3.229-1.792.072-1.649-2.655-1.792-4.448-1.147-14.996-1.29-33.435 5.807-41.686-2.223-2.798-4.517-5.381-6.596-8.682-2.222-3.515-5.735-9.255-3.441-14.493 1.291-3.013 4.732-5.381 7.599-7.39 2.509-1.722 6.811-3.946 7.671-7.103 1.003-3.587-1.147-7.462-1.864-11.121-1.147-5.883-.574-11.767 3.441-14.134 4.373-2.583 12.187-1.866 14.481-5.884 1.218-2.152 1.362-5.022 1.649-7.461.43-3.086.932-6.458 2.437-8.825 1.935-3.014 5.95-4.951 10.466-5.238 6.811-.431 11.47 2.583 14.481 6.027 3.083 3.515 5.305 8.825 5.377 14.852.071 6.816-2.366 11.551-5.449 14.923-1.433 1.507-3.512 3.301-5.663 4.592-1.935 1.148-5.305 2.224-5.878 4.233-.502 1.794.358 4.018.86 5.884.502 1.937 1.004 4.089 1.004 5.668 0 5.453-3.011 9.184-6.094 11.408-1.649 1.148-3.728 2.08-5.878 2.798-2.151.717-4.803 1.148-5.663 3.013-1.434 3.014.358 8.538-1.004 12.413-1.147 3.157-4.373 5.309-7.24 6.672-1.004.503-2.581 1.077-4.23 1.579-1.577.502-3.728 1.004-4.015-.574-.286-1.507 1.578-1.722 3.011-2.153 5.09-1.435 9.893-3.659 10.252-9.686.215-4.161-.717-8.322 1.433-10.834 1.721-2.009 5.162-2.582 7.814-3.587 3.871-1.435 7.384-4.305 8.459-8.466.646-2.511.072-5.238-.573-7.606-.574-2.009-1.649-5.165-.789-7.605 1.291-3.731 5.879-4.735 8.818-6.816 2.939-2.081 5.376-4.807 6.81-8.825 3.154-8.825-.502-18.798-6.093-22.601-4.66-3.157-14.338-3.731-17.635 1.435-3.513 5.525-1.147 14.565-6.022 18.368-1.792 1.435-4.588 2.152-7.384 2.798-3.082.717-6.739 1.22-8.029 3.874-2.939 6.099 2.079 13.489 1.864 19.301-.143 5.381-4.66 7.892-8.244 10.403-3.298 2.296-7.599 4.52-7.886 8.682-.286 3.731 1.936 7.318 3.585 9.901 1.792 2.942 3.727 5.381 5.806 7.462Zm-305.603-138.26-2.581 48.072s-1.362 15.999 5.377 19.659c6.738 3.659 16.703 4.878 16.703 4.878l4.875-6.457s-14.84-2.296-15.27-11.336c-.43-9.04 3.155-53.166 3.155-53.166l-12.259-1.65Zm7.241 79.282h-5.591c-1.864 0-3.513 1.507-3.657 3.373l-9.391 98.151c-.143 1.866 1.147 3.372 3.011 3.372h5.592c1.864 0 3.513-1.506 3.656-3.372l9.391-98.151c.143-1.866-1.147-3.373-3.011-3.373Zm78.713-1.004h5.592c1.863 0 3.512 1.506 3.656 3.372l9.391 98.08c.143 1.865-1.147 3.372-3.011 3.372h-5.592c-1.864 0-3.513-1.507-3.656-3.372l-9.391-98.08c-.215-1.866 1.147-3.372 3.011-3.372Z" fill="#1C1C1C"/><path fill-rule="evenodd" clip-rule="evenodd" d="M435.724 371.221h91.401c4.946 0 8.889 4.018 8.889 8.897v8.035a3.366 3.366 0 0 1-3.369 3.372H430.132a3.366 3.366 0 0 1-3.369-3.372v-8.035c.071-4.879 4.086-8.897 8.961-8.897Z" fill="#fff"/><path d="M532.717 392.96H430.204c-2.581 0-4.731-2.152-4.731-4.735v-8.036c0-5.668 4.659-10.332 10.323-10.332h91.401c5.663 0 10.323 4.664 10.323 10.332v8.036c-.072 2.583-2.222 4.735-4.803 4.735Zm-96.993-20.304a7.529 7.529 0 0 0-7.527 7.533v8.036c0 1.076.86 1.937 1.935 1.937h102.513a1.928 1.928 0 0 0 1.936-1.937v-8.036a7.529 7.529 0 0 0-7.527-7.533h-91.33Z" fill="#1C1C1C"/><path fill-rule="evenodd" clip-rule="evenodd" d="M550.28 25.682v19.874c7.312 0 13.262 5.955 13.262 13.273 0 7.319-5.95 13.274-13.262 13.274v27.049h-23.083c0 7.318-5.95 13.202-13.262 13.202s-13.191-5.884-13.262-13.202h-23.514v73.542h146.529v-73.47c.072 0 .072-73.542.072-73.542h-73.48ZM431.925 229.805h51.257c7.383 0 13.333 5.955 13.333 13.417v63.784c0 7.39-5.95 13.417-13.333 13.417h-51.257c-7.384 0-13.405-6.027-13.405-13.417v-63.784a13.39 13.39 0 0 1 13.405-13.417Z" fill="#fff"/><path d="M483.181 321.715h-51.256c-8.173 0-14.768-6.601-14.768-14.781V243.15c0-8.179 6.595-14.78 14.768-14.78h51.256c8.173 0 14.768 6.601 14.768 14.78v63.784c0 8.18-6.667 14.781-14.768 14.781Zm-51.256-90.547c-6.595 0-11.972 5.381-11.972 11.982v63.784c0 6.601 5.377 11.982 11.972 11.982h51.256c6.596 0 11.972-5.381 11.972-11.982V243.15c0-6.601-5.376-11.982-11.972-11.982h-51.256Zm191.763-57.111H477.159a1.362 1.362 0 0 1-1.362-1.363V99.152c0-.79.645-1.364 1.362-1.364h23.513c.789 0 1.362.646 1.362 1.364 0 6.529 5.377 11.838 11.829 11.838 6.523 0 11.828-5.309 11.828-11.838 0-.79.645-1.364 1.362-1.364h21.722V72.031c0-.79.645-1.363 1.362-1.363 6.523 0 11.9-5.31 11.9-11.91 0-6.53-5.305-11.839-11.9-11.839a1.361 1.361 0 0 1-1.362-1.363V25.682c0-.79.645-1.364 1.362-1.364h73.479c.789 0 1.362.646 1.362 1.364v73.541c0 .144 0 .287-.071.36v73.111c.215.789-.431 1.363-1.219 1.363Zm-145.095-2.798h143.733V99.224c0-.144 0-.288.072-.36V27.117h-70.756v17.148c7.456.718 13.262 6.96 13.262 14.565 0 7.606-5.806 13.92-13.262 14.565v25.758c0 .789-.645 1.363-1.362 1.363h-21.793c-.717 7.39-7.025 13.202-14.552 13.202-7.599 0-13.836-5.812-14.553-13.202h-20.789v70.744Z" fill="#1C1C1C"/><path d="M587.199 113.645c-7.527 0-13.764-5.74-14.552-13.058h-23.442a1.362 1.362 0 0 1-1.362-1.363c0-.79.645-1.364 1.362-1.364h24.804c.788 0 1.362.646 1.362 1.364.071 6.457 5.376 11.695 11.9 11.695 6.452 0 11.757-5.238 11.9-11.695 0-.79.645-1.364 1.362-1.364h23.37c.789 0 1.362.646 1.362 1.364 0 .789-.645 1.363-1.362 1.363h-22.08c-.86 7.318-7.168 13.058-14.624 13.058Z" fill="#1C1C1C"/><path d="M550.997 174.057a1.362 1.362 0 0 1-1.362-1.363v-20.879c-7.312-.789-13.047-7.031-13.047-14.565 0-7.533 5.735-13.776 13.047-14.565V99.224a1.362 1.362 0 1 1 2.724 0v24.824c0 .79-.645 1.364-1.362 1.364-6.452.071-11.685 5.381-11.685 11.91 0 6.457 5.233 11.767 11.685 11.91.789 0 1.362.646 1.362 1.363v22.171c0 .717-.645 1.291-1.362 1.291Z" fill="#1C1C1C"/><path fill-rule="evenodd" clip-rule="evenodd" d="M533.792 32.856c-1.004-7.246-7.671-12.34-14.911-11.408l-2.653-19.73-72.906 9.973 9.893 72.968 23.299-3.157c1.003 7.318 7.67 12.412 14.91 11.408 7.241-1.005 12.331-7.677 11.327-14.924 0-.072 23.298-3.229 23.298-3.229l-3.656-26.905c7.313-1.005 12.402-7.677 11.399-14.995Z" fill="#EEBD20"/><path d="M489.777 94.99a14.263 14.263 0 0 1-8.818-3.013c-2.724-2.08-4.66-5.023-5.376-8.395l-21.937 3.014c-.717.143-1.433-.43-1.577-1.22l-9.964-72.896c-.072-.359.071-.718.286-1.005.215-.287.574-.502.932-.502L516.158 1c.358-.072.717.072 1.003.287.287.215.502.574.502.933l2.509 18.367c3.441-.143 6.739.861 9.463 3.014 3.082 2.367 5.09 5.811 5.663 9.686 1.004 7.533-3.943 14.565-11.183 16.287l3.441 25.614c.072.358-.072.717-.287 1.004-.215.287-.573.503-.932.503l-21.936 3.013c.287 7.534-5.09 14.134-12.689 15.21-.573.072-1.218.072-1.935.072Zm-13.119-14.278c.287 0 .573.072.86.287.287.216.502.574.502.933.43 3.229 2.079 5.955 4.588 7.892 2.509 1.938 5.663 2.727 8.817 2.296 6.452-.86 11.04-6.888 10.18-13.345-.072-.789.43-1.507 1.219-1.65l21.936-3.013-3.441-25.543c-.072-.789.43-1.435 1.219-1.578 6.452-.861 11.04-6.888 10.179-13.345-.43-3.157-2.079-5.956-4.588-7.893-2.509-1.937-5.663-2.726-8.817-2.296-.359.072-.717-.071-1.004-.287-.286-.215-.502-.574-.502-.932L515.297 3.87l-70.11 9.543 9.535 70.17 21.864-3.014c0 .143 0 .143.072.143Z" fill="#1C1C1C"/><path fill-rule="evenodd" clip-rule="evenodd" d="M672.507 308.8s42.869 66.367 46.453 70.241c3.585 3.875 11.184 11.408 7.671 19.875-3.513 8.466-15.27 26.188-23.585 33.434-8.316 7.247-11.04 5.166-13.047 3.229-1.936-1.937-1.864-6.099-1.864-6.099s-11.47 11.624-15.341 11.911c-3.943.287-8.173-8.252-6.811-14.135 1.434-5.883 4.588-26.547 4.588-26.547s-56.704-59.407-70.97-71.389c-14.266-11.91-20.79-23.677-20.359-30.35.358-6.601 3.082-17.363 11.111-21.309 8.101-3.946 54.052-11.623 54.052-11.623l14.696-23.964s-6.021-2.798-7.025-6.457c-1.004-3.731-3.154-12.843-3.154-12.843s-5.09-1.507-6.882-2.87c-1.864-1.435-3.585-3.803-3.585-3.803s-21.076 8.825-26.524 2.224c-5.448-6.601-21.506-45.847-21.506-45.847l-4.373-5.166s-6.954-3.228-6.667-6.672c.287-3.444 3.584-6.888 3.584-6.888s3.8-3.516 4.803-3.444c1.004.072 2.223.646 2.223.646s1.218-3.157 2.58-3.157c1.363.072 1.864-.215 1.864-.215s-7.025-15.642-5.448-17.292c1.577-1.65 2.939-3.228 4.445-.43 1.505 2.798 10.394 22.385 10.394 22.385s1.793-8.323 3.656-7.677c1.864.646 2.366.359 2.223 2.009-.072 1.65-.574 8.251-.574 10.834s.215 10.26.215 10.26l15.27 25.327s13.119-10.834 19.284-11.91c6.165-1.076 13.907-2.009 14.337-3.444.43-1.435 1.577-15.928 1.577-15.928s-7.527 1.865-10.609-2.87c-3.083-4.735-4.445-10.69-4.445-10.69s-1.721-1.435-2.366-2.87c-.645-1.507-.502-1.722.215-2.44.717-.717 3.37-1.22 6.38-9.399 3.011-8.179 10.825-13.919 21.363-9.901 10.538 3.946 13.979 1.578 22.152 35.372 8.172 33.793 18.423 64.932 16.631 66.582-1.792 1.65-5.376 1.363-5.376 1.363s16.989 39.964 21.147 49.435c4.158 9.471 7.384 16.287 6.882 19.157-.501 2.941.215 4.233-2.222 4.592-2.437.358-57.852 2.582-57.852 2.582l.789 6.171Z" fill="#fff"/><path fill-rule="evenodd" clip-rule="evenodd" d="M653.009 137.25a1.756 1.756 0 0 0-2.223 1.22l-.573 1.937c-.287.933.287 1.937 1.219 2.224.931.287 1.935-.287 2.222-1.22l.573-1.937c.215-.933-.286-1.937-1.218-2.224Z" fill="#1C1C1C"/><path fill-rule="evenodd" clip-rule="evenodd" d="M717.025 284.046c-1.147-7.461-3.728-14.564-6.595-21.524a131.525 131.525 0 0 0-3.226-7.247c-1.219-2.654-2.509-5.309-3.585-8.035-.788-2.009-1.505-4.09-2.222-6.099-.071-.143-36.775 1.435-36.775 1.435l-16.273 28.412s-34.41.359-57.494 11.193c-23.083 10.834-3.441 30.78-3.441 30.78l72.118 72.035c.287-2.224.788-4.52 1.649-6.601.645-1.65 1.362-3.515 2.437-5.022.717-.861 1.362-1.794 2.151-2.511.788-.718 1.648-1.363 2.58-2.009 1.147-.789 2.366-1.435 3.656-2.081 1.506-.646 3.083-1.435 4.66-1.865 1.792-.502 3.656-.574 5.52-.718.143-.43.287-.932.502-1.363.573-1.148 1.434-2.296 2.509-3.157.645-.502 1.362-1.076 2.079-1.507a30.639 30.639 0 0 1 2.222-1.004c1.29-.502 2.653-.789 4.015-1.22.645-.502 1.147-.933 1.648-1.22 1.291-.717 2.366-1.004 3.8-1.147.573-.072 1.147 0 1.72.143.789-.072 1.506-.072 2.223-.072-.861-1.291-1.649-2.511-2.509-3.731a23.087 23.087 0 0 1-3.155-3.946 72.938 72.938 0 0 1-2.294-4.018c-.358-.645-.717-1.219-1.075-1.793-.789-.933-1.649-1.938-2.366-2.942-1.505-2.009-2.652-4.233-3.727-6.457-.717-1.292-1.506-2.583-2.366-3.731-1.219-1.507-2.437-2.942-3.584-4.449-1.219-1.578-2.366-3.444-2.725-5.453 0-.143-.071-.287-.071-.43-.789-.646-1.506-1.363-2.007-2.296-1.076-1.937-.932-4.305.215-6.099l-4.087-6.385 35.199-1.22c.502-.646 1.075-1.148 1.792-1.65 1.147-.789 2.294-1.65 3.441-2.44l1.29-1.076c0-.43.072-.933.144-1.363.502-2.583 1.72-5.022 2.294-7.605-.144-.861-.144-1.722-.287-2.512Z" fill="#fff"/><path fill-rule="evenodd" clip-rule="evenodd" d="M665.912 261.159s-.717 9.901 3.154 14.637c3.871 4.735 10.61 8.825 10.61 8.825s7.814-4.162 8.674-10.045c.86-5.883-.574-12.628-.574-12.628l-21.864-.789Zm35.055 0s-1.506 8.467 2.366 13.489c3.871 5.022 10.681 8.897 10.681 8.897l2.366-1.794s.717-3.587-2.151-9.901a932.125 932.125 0 0 0-5.377-11.623l-7.885.932Z" fill="#fff"/><path fill-rule="evenodd" clip-rule="evenodd" d="M704.408 253.052c2.151.072 4.373.287 6.524.072.143 0 3.656-.933 3.799-.933l-11.9-27.695-9.678 2.009 6.811 17.65 4.444 8.897Zm-53.55-41.758s2.939-4.664 4.444-13.632c1.506-9.256 1.363-18.081 1.363-18.081l-3.155-1.363s-9.821 2.511-15.341 5.811c-5.591 3.301-14.337 9.686-14.337 9.686l-7.527-12.556s-8.46-1.865-12.617 3.803c-4.158 5.668-4.23 7.677-4.23 7.677l9.678 22.744s1.935 8.682 9.104 7.247c7.241-1.435 32.618-11.336 32.618-11.336Z" fill="#EEBD20"/><path d="M599.817 194.506c-.789 0-1.434-.503-1.649-1.292-.86-4.161 2.509-9.614 7.814-12.628 3.441-1.937 7.169-2.583 9.893-1.722 1.72.503 3.011 1.579 3.727 3.086.431.861.072 1.865-.788 2.224-.86.359-1.864.072-2.222-.789-.287-.646-.861-1.077-1.649-1.364-1.864-.574-4.66 0-7.241 1.435-4.014 2.296-6.81 6.314-6.236 9.041.215.932-.359 1.793-1.291 2.009h-.358Zm60.216 185.899c-.358 0-.716-.144-1.003-.431-2.581-2.798-63.515-68.519-69.68-79.21-2.079-3.587-2.509-6.887-1.291-9.757 2.079-5.023 8.603-7.175 11.327-7.893 3.154-.789 8.531-1.937 22.366-3.731 6.811-.861 14.696-1.578 20.431-2.152 3.441-.287 6.667-.646 8.029-.789l11.112-29.704c.287-.718 1.075-1.076 1.792-.789.717.287 1.075 1.076.789 1.793l-11.327 30.422c-.072.143-.143.287-.215.358-.502.646-.502.646-9.893 1.579-5.735.502-13.621 1.291-20.359 2.152-13.621 1.722-18.926 2.87-22.008 3.659-1.792.431-7.742 2.296-9.391 6.243-.86 2.08-.502 4.52 1.147 7.318 6.022 10.403 68.676 77.99 69.321 78.708.502.574.502 1.435-.071 1.937-.43.215-.717.287-1.076.287Z" fill="#1C1C1C"/><path d="M652.722 384.207c-.574 0-1.147-.359-1.291-.932-.071-.287-2.079-6.673 3.871-14.637 10.61-14.206 21.507-10.978 21.937-10.906.717.215 1.147 1.005.932 1.722-.215.718-1.004 1.148-1.721.933-.358-.144-9.534-2.655-18.854 9.901-5.089 6.744-3.512 11.91-3.441 12.126.215.717-.143 1.506-.932 1.721-.215.072-.358.072-.501.072Z" fill="#1C1C1C"/><path d="M658.743 390.234c-.573 0-1.147-.358-1.29-.932-.072-.287-2.079-6.673 3.871-14.637 10.61-14.206 21.506-10.977 21.936-10.834.717.215 1.147 1.005.932 1.722-.215.718-1.003 1.148-1.72.933-.359-.144-9.535-2.655-18.854 9.901-5.09 6.816-3.513 11.91-3.441 12.126.215.717-.143 1.506-.932 1.721h-.502Zm17.205-32.143c-.215 0-.43-.072-.645-.143-.645-.359-.932-1.22-.574-1.866.144-.359 4.517-7.964 13.621-10.26 6.38-1.65 9.821.287 9.965.359.645.359.86 1.22.501 1.865a1.388 1.388 0 0 1-1.935.502s-2.653-1.363-7.886-.071c-7.885 2.009-11.828 8.825-11.828 8.897-.215.43-.717.717-1.219.717Z" fill="#1C1C1C"/><path d="M680.752 365.266c-.215 0-.43-.072-.645-.144-.646-.358-.932-1.219-.574-1.865.215-.287 4.516-7.964 13.621-10.26 6.38-1.65 9.821.287 9.964.359.645.358.86 1.219.502 1.937a1.389 1.389 0 0 1-1.936.502s-2.652-1.363-7.885-.072c-7.886 2.009-11.829 8.825-11.829 8.897-.286.359-.716.646-1.218.646Z" fill="#1C1C1C"/><path fill-rule="evenodd" clip-rule="evenodd" d="M729.068 392.028s-5.018-4.305-10.394 1.005c-5.305 5.309-10.753 11.192-18.711 22.744-7.957 11.551-9.893 15.641-9.032 17.722.86 2.08.573 2.439.573 2.439l-4.086-6.242s13.047-19.229 15.628-24.107c2.581-4.808 2.652-8.897 2.652-8.897s.502-13.13 3.8-16.072c3.297-2.942 8.602-2.583 8.602-2.583s5.807 6.171 7.456 8.251c1.577 2.153 3.512 5.74 3.512 5.74Z" fill="#1C1C1C"/><path fill-rule="evenodd" clip-rule="evenodd" d="M706.344 395.543s-6.38-2.941-13.047 7.893c-6.667 10.905-15.413 21.596-18.854 26.188-3.441 4.663-5.448 8.753-4.373 9.399 1.075.645-4.158-4.377-3.656-8.467.43-4.089 1.219-12.125 1.219-12.125l4.157 2.081 12.116-17.937s.286-13.417 3.226-16.287c3.01-2.87 4.444-5.955 6.882-3.803 2.509 2.224 12.33 13.058 12.33 13.058Zm-41.937-243.656-4.373 68.591s-1.649 5.238 2.437 5.812c4.086.574 43.012 0 43.012 0s4.947-.144 4.373-3.157c-.573-3.013-23.513-87.892-23.513-87.892s-2.151-10.475-15.054-13.058c-13.047-2.654-17.492 3.301-17.492 3.372 0 0 1.362 6.96 3.369 9.902 2.007 3.013 4.158 7.246 4.158 7.246s6.094-2.439 7.599 1.794c1.362 4.161-4.516 7.39-4.516 7.39Z" fill="#1C1C1C"/><path fill-rule="evenodd" clip-rule="evenodd" d="M705.698 227.796c8.316 18.942 16.632 37.094 24.733 56.394 1.075 2.512 2.939 5.812 3.225 8.251.431 3.516-.931 7.247-3.154 8.395-2.509 1.291-7.527 1.148-11.255 1.363-2.007.072-4.158.072-6.093.144-2.007.071-4.23-.216-6.022 0-.717.071-1.72.789-2.796.861-3.656.43-7.814 0-11.828 0-23.442 0-46.74-.144-69.967-.144h-5.878c-1.649 0-4.087.072-4.015-1.794.072-1.578 1.936-1.578 4.373-1.578 27.241 0 54.124.215 81.652.215 1.936 0 4.086.144 5.663-.143 1.362-.216 2.796-1.579 4.015-2.44 3.728-2.798 6.452-6.672 6.452-12.914-2.509.574-5.664-1.938-7.671-3.588-4.444-3.587-7.312-8.61-7.814-16.502-.071-1.65-.215-3.659.43-4.377 1.076-1.148 4.373-.215 6.022-.574-1.505-3.802-3.656-7.964-5.448-11.91-13.908.144-29.249.431-43.228.431a630.623 630.623 0 0 0-10.251 16.645c-.573 1.005-.86 2.153-1.577 2.583-.645.359-2.222.503-3.584.646-13.406 2.009-25.808 4.233-38.425 7.031-4.66 1.005-9.678 1.794-13.047 3.803-3.083 1.794-5.305 5.166-6.882 9.04-1.577 3.803-2.867 8.467-2.366 13.632.359 3.157 1.864 6.027 3.226 8.682 1.362 2.655 3.441 4.735 5.233 6.673 25.808 27.838 52.834 53.524 79.789 80.501.931.933 2.652 2.368 2.795 3.157.287 1.148-.358 3.013-.573 4.377-.717 3.946-1.506 8.538-2.151 12.34 1.004.503 2.079.861 2.796 1.579 3.513-5.812 7.097-11.552 10.681-17.292.932-8.825 1.219-18.869 9.678-20.161-17.205-23.461-36.847-47.067-56.131-69.452-1.147-1.292-3.656-3.3-3.369-5.022.071-.503.645-1.148 1.362-1.22 1.792-.215 4.086 3.731 5.018 4.807 19.499 22.601 38.496 45.632 56.49 69.811 2.724 3.659 5.376 7.534 8.817 10.619 1.075-6.96 3.369-12.7 10.61-13.489-13.262-20.305-27.6-41.686-41.22-62.78-.861-1.291-3.872-5.022-.861-5.452 1.864-.287 3.441 3.228 4.373 4.591 8.388 12.485 16.417 25.399 24.589 37.668 4.875 7.247 9.248 13.561 14.266 21.309 2.222 3.444 4.731 6.458 7.814 10.045 2.652 3.014 6.237 7.247 5.233 12.843-.86 4.879-3.728 9.112-6.094 12.915-4.874 7.605-10.681 15.067-16.631 21.524-2.437 2.655-6.81 7.247-10.466 8.61-3.441 1.22-7.241-1.578-8.603-3.587-.502-.718-.645-1.148-1.003-2.368-1.793 1.435-3.513 3.444-5.592 5.238-1.864 1.65-4.516 4.161-6.882 4.591-4.158.646-7.384-2.367-8.459-5.094-1.362-3.372-1.219-8.179-.789-12.053.645-5.668 1.649-11.767 2.653-17.722.358-1.937 1.147-4.233 1.003-5.668-.071-.718-1.72-2.153-2.652-3.157-23.083-23.103-46.023-45.273-68.605-68.807a1049.205 1049.205 0 0 1-11.613-12.269c-1.792-1.937-3.728-4.161-5.018-6.888-1.291-2.654-2.725-5.955-3.011-8.896-.43-4.233.43-8.323 1.362-11.624 1.72-6.242 5.233-12.412 10.825-14.851 2.867-1.292 6.236-2.153 9.821-3.014 13.907-3.3 28.603-5.524 43.442-7.892 4.732-7.247 9.105-14.78 13.621-22.314-6.882-2.224-7.384-10.906-9.104-18.296-5.234-.502-8.603-2.87-10.61-6.672-3.369 1.219-6.237 2.296-9.391 3.444-3.154 1.148-6.309 2.511-10.108 2.583-3.799 0-5.95-2.225-7.671-5.023-4.874-7.964-8.244-16.645-12.33-25.757-1.935-4.305-4.014-8.682-6.022-13.059-.645-1.435-1.218-3.156-2.007-4.376-.645-1.005-2.15-1.507-2.867-2.655-.717-1.076-.789-2.152-1.434-3.229-3.8-1.219-7.527-4.878-7.456-9.399 0-3.085 2.438-6.6 5.377-7.246 1.147-1.579 1.936-3.516 4.875-3.372 1.147-1.148 2.007-2.655 4.014-3.014-.645-1.865-1.577-3.946-2.437-6.098-.789-2.009-1.936-4.305-2.151-6.386-.358-3.157 1.434-6.888 4.588-6.457 3.226.43 4.947 6.314 6.094 8.897 1.72 3.946 3.082 7.174 4.444 10.618.861-.789 1.147-2.367 2.581-3.228 1.649-1.005 4.66-.933 5.663.645.717 1.077.359 3.229.144 5.023-.502 3.587-.359 7.175-.215 11.121.071 1.937-.072 4.018.215 5.596.215 1.005 1.075 2.081 1.648 3.157 3.943 7.318 7.814 14.78 11.686 21.883 4.803-2.942 9.176-6.385 14.337-9.04 5.233-2.655 11.398-3.875 18.495-4.879.502-4.448.717-9.112 1.004-13.847-7.957 1.004-12.115-4.018-14.051-10.619-.502-1.722-1.935-5.883.789-5.812 1.792.072 1.649 2.224 2.15 3.803 1.362-.144 1.936-2.368 3.657-2.224.716.071 1.362.574 1.433 1.363.287 2.296-2.796 3.013-4.014 4.233 1.362 3.013 3.011 5.74 6.882 6.027 2.007.143 4.946-1.076 6.021-.144 1.147 1.077.216 7.462.144 9.471a130.063 130.063 0 0 1-.359 4.879c-.286 3.372-.358 5.883-3.656 6.099 1.076.717 3.298 1.291 4.445 1.865.789-9.471 1.434-19.085 2.151-28.627-.932-.503-2.796-.503-2.868-1.651-.287-3.3 7.097-1.506 5.878-6.816-.143-.574-1.003-1.793-2.222-1.865-1.864-.144-3.656 2.942-5.663 2.224-.359-.143-.932-.861-1.004-1.22-.215-1.363 1.004-1.435 1.219-2.367-1.147-2.368-2.437-4.592-4.66-5.884-3.584 1.148-3.226-3.659.215-2.798-.501-1.363-.932-2.726-1.433-4.09-1.578 1.22-2.438 3.66-3.37 6.243-.86 2.582-1.434 6.385-3.154 7.677-1.434 1.076-6.452 2.367-6.595-.216-.072-2.296 3.011-1.506 4.444-2.439 1.936-4.592 2.725-9.614 5.664-13.13 2.795-3.372 6.452-6.386 11.9-6.816 5.95-.431 11.685 1.291 15.699 3.372 8.603 4.305 11.184 13.919 13.693 24.323 3.727 15.282 6.953 30.923 11.039 45.919 1.936 7.174 3.943 14.923 6.022 22.385.645 2.439 1.864 5.238 1.864 7.605.072 3.014-1.362 4.305-4.66 4.018Zm-2.365-17.937a3733.755 3733.755 0 0 1-3.871-14.349c-3.872-14.422-7.026-29.345-10.61-44.126-2.366-9.973-4.086-20.161-12.044-24.538-5.089-2.798-16.559-5.524-21.147-.573 1.433 5.237 3.799 9.686 6.236 13.919 3.441-1.579 6.739.789 7.671 3.444 1.219 3.515-.789 7.031-3.656 8.466-1.219 18.08-2.509 36.089-3.8 54.098-.43 6.027-1.075 12.054-.86 18.081 1.649.502 3.513.43 5.377.43 13.549 0 27.169.359 40.431-.359-.716-4.95-2.365-9.686-3.727-14.493ZM583.041 163.94c-.932-1.363-1.29-3.874.789-3.874 1.864 0 2.437 3.157 3.154 4.879.359.933.86 2.009 1.219 2.798.43 1.004.717 2.152 1.218 2.798.574.718 1.936 1.292 2.438 2.009 1.075 1.579 1.935 3.875 2.867 5.883 2.868 6.099 5.52 12.269 8.244 18.296 2.653 5.812 5.305 12.269 8.603 17.866 1.147 1.937 2.437 4.304 4.014 4.878 2.724 1.005 7.097-.717 9.463-1.578 6.954-2.439 13.334-4.951 20.144-7.677 1.792-.718 5.592-2.726 5.449.359-.072 1.65-3.37 2.439-4.804 3.013-2.15.861-3.799 1.363-5.663 2.153.86 2.152 2.509 3.515 5.018 4.233 1.291.358 3.298.071 4.445.645 1.362.718 1.864 6.243 2.222 7.821 1.219 5.453 2.151 9.901 7.456 10.906 2.795.502 6.81.215 10.036.143 9.033-.359 18.28-.43 26.883-.861-1.362-3.515-2.796-6.888-4.015-10.475h-23.872c-2.58 0-5.663.215-7.67-.359-3.37-.932-3.011-4.089-2.796-7.892.717-11.767 2.509-23.246 3.226-34.654-1.434-.718-3.369-1.507-4.803-2.225-1.147-.645-3.011-1.793-4.373-1.865-1.577-.144-3.943.717-5.879 1.22-5.591 1.506-10.251 4.735-14.122 7.39-4.229 2.798-8.459 5.74-12.474 8.896-1.003.79-3.082 3.014-4.588 2.655-.501-.072-1.147-.646-1.147-1.65.072-1.65 2.581-2.726 3.657-3.587 1.577-1.292 2.939-2.225 4.014-3.373-3.871-7.174-8.244-15.139-12.258-22.529-.574-1.148-1.434-2.367-1.649-3.372-.359-1.578-.215-3.515-.215-5.237-.072-5.453-.502-10.763.43-15.498-1.434.072-1.936 1.22-2.366 2.224-.43 1.005-.717 2.727-.573 4.018.143 1.22 1.147 1.937 1.003 3.157-.143.861-.788 1.363-1.649 1.363-1.218 0-1.72-1.363-2.222-2.583-2.652-5.955-4.803-11.551-7.24-17.148-1.004-2.367-1.793-4.95-3.441-6.385-1.577 2.726.43 5.74 1.362 8.107 1.003 2.655 2.15 5.31 3.011 7.821.788.789 2.15 1.076 2.15 2.439 0 .933-.717 1.507-1.577 1.579-1.434.072-3.369-2.655-4.803-.646.43.861 1.362.861 1.219 2.081-.215 2.439-2.796 1.004-4.23.574-1.219-.359-1.505-.215-2.222.789.645.861 1.864 1.005 1.792 2.44-.215 2.941-3.871.43-4.803-.144-2.868 1.363-2.437 6.744-.072 8.179Zm112.765 64.071c2.867 8.395 6.523 16 10.107 23.606h6.667c-3.441-7.964-7.025-15.857-10.609-23.749-2.151 0-4.015.215-6.165.143Zm1.218 13.848c-5.52.502-11.828.359-18.28.574-6.309.215-12.76.502-18.495.215-.287.646-1.291 1.65-1.004 2.153a3560.53 3560.53 0 0 1 39.428-.431c-.358-1.291-.645-2.583-1.649-2.511Zm18.711 30.134c1.147 2.727 2.294 6.027 2.437 9.614.143 3.588-.215 7.247-1.434 10.619.789.431 1.362.646 1.362 1.65 0 2.655-5.233 3.229-6.237 5.238 3.37-.144 6.309-.144 10.037-.359 2.294-.143 5.735 0 7.097-.861 1.075-.645 1.649-3.228 1.362-5.166-.215-1.435-1.219-3.085-1.864-4.663-4.445-10.906-9.606-22.386-14.051-32.574-2.222.072-4.659-.143-6.667.144 2.366 4.878 5.52 10.475 7.958 16.358Zm-13.693-9.758c-.071 10.404 4.445 16.072 11.399 19.516 2.509-.718.788-4.52.143-6.386-1.792-4.807-4.301-9.47-6.093-13.273-2.008 0-3.656.143-5.449.143Zm2.223 144.43c-4.015 6.887-7.814 12.556-12.331 18.869-.86 1.148-2.437 2.799-2.58 3.66-.144.932.573 2.941 1.003 3.659.789 1.291 2.796 2.511 4.23 2.439 1.577-.072 4.086-2.439 5.448-3.659 5.09-4.52 8.961-9.327 12.904-14.637 4.014-5.237 7.814-10.475 11.04-16.358 1.003-1.937 2.294-4.664 2.365-6.888.072-5.022-3.799-8.179-6.38-11.049-.645-.718-1.434-1.866-2.15-2.081-.932-.287-3.441-.144-3.872 0-4.659 1.65-5.735 7.964-6.451 13.704 2.222 4.377-1.219 8.825-3.226 12.341Zm-35.127 29.99c.717 1.148 2.581 2.44 4.158 2.368 1.577-.143 4.014-2.439 5.448-3.659 5.09-4.377 9.033-9.543 12.689-14.852 3.871-5.668 7.24-10.69 10.681-16.861.932-1.65 2.939-4.376 2.868-6.385-.072-2.512-3.011-4.377-4.588-6.027-.861-.861-1.578-1.937-2.366-2.87-.789-1.076-1.506-2.296-2.438-2.87-.86-.574-3.297-1.435-4.157-.861-3.441 2.224-4.015 6.242-4.66 11.049-.287 2.081-.287 4.736-.86 6.673-.502 1.506-2.008 3.587-3.155 5.381-2.365 3.802-4.229 6.601-6.595 10.403-1.003 1.651-2.15 4.664-3.871 4.664-1.792 0-1.864-2.009-3.584-2.081-.359 4.233-1.864 12.197.43 15.928Z" fill="#1C1C1C"/><path fill-rule="evenodd" clip-rule="evenodd" d="M659.245 148.73c-.286-.574-.716-1.22-.143-2.009.287-.359 3.369-1.578 4.086-1.65 1.076-.215 1.792.502 1.792 1.363.072 1.722-4.157 2.726-5.735 2.296Zm6.595 111.425c1.147-.359 4.158-.144 5.663-.072 3.513.143 7.097.072 11.04.072 1.649 0 4.158-.216 5.233.358 1.291.574 1.363 2.583 1.649 4.377.359 1.722.645 3.3.645 5.381 0 6.17-2.795 10.117-6.451 13.13-1.004.789-2.94 2.439-4.015 2.439-.932 0-2.581-1.076-3.584-1.65-3.441-1.937-6.309-4.376-8.244-7.462-.932-1.506-2.223-3.659-2.868-7.605-.358-1.865-1.218-8.179.645-8.897.144-.143.215-.071.287-.071Zm1.291 2.87c-.144 10.905 4.946 16.502 12.33 19.874 3.512-2.368 7.384-5.525 7.814-11.121.215-3.085-.287-6.027-1.004-8.825-6.237-.144-12.76-.072-18.925-.216-.072 0-.215.144-.215.288Z" fill="#1C1C1C"/><path fill-rule="evenodd" clip-rule="evenodd" d="m567.772 447.346 25.449-95.138s1.721-15.354-7.67-19.516c-9.463-4.161-73.623-10.906-73.623-10.906l13.334-53.882 25.735 26.977 21.65-19.157-27.385-46.493s-6.308-10.619-18.638-11.264c-12.33-.646-22.51.215-21.937-3.588.574-3.731 4.158-18.295 4.158-18.295s11.685-4.162 10.825-13.274c-.86-9.112-5.592-19.731-5.592-19.731l3.155-9.614-5.018 1.435-1.147-11.695s-2.008 5.883-3.656 7.103c-1.721 1.292-3.585 2.798-3.585 2.798l-3.226-4.663-3.871 6.027s-15.628-.861-19.857 6.026c-4.23 6.888-4.23 9.902-4.23 9.902l-3.226 1.865 4.015 3.229s.573 13.201 6.595 17.865c5.95 4.664 10.036 4.161 10.036 4.161l-2.365 13.92s-.359 5.811-4.23 6.242c-3.871.43-24.66-3.444-31.184 5.166-6.524 8.538-12.187 23.533-16.847 35.874-4.659 12.34-11.9 36.376-8.029 41.255 3.872 4.879 21.722 2.583 21.722 2.583l-2.581 3.372s-10.681 37.883-8.603 46.852c2.079 8.968 6.381 17.363 14.481 18.941 8.101 1.579 26.74.789 26.74.789L493.504 494.7l47.601.143.215-1.578 32.976-.574s-2.222-12.628-9.033-16.287c-6.81-3.659-11.685-5.023-11.685-5.023l6.739-25.183 7.455 1.148Zm-40.073 28.412-10.036-3.659-3.656-25.758 6.022-.215-3.155-78.062 35.414.431-24.589 107.263Z" fill="#fff"/><path fill-rule="evenodd" clip-rule="evenodd" d="m530.996 464.709-3.584 10.403s4.588 1.794 7.241 4.808c2.652 3.013 4.014 4.807 4.014 4.807l8.818 1.148s1.792-4.736 6.595-7.247 8.817-2.368 8.817-2.368l-9.391-4.161 1.577-5.453-24.087-1.937Zm-40.646 3.588 1.218 8.251s3.226 3.228 4.66 5.381c1.505 2.152 2.151 5.166 2.151 5.166l12.903 1.148s2.94-5.884 7.599-8.251c4.66-2.368 12.115-1.435 12.115-1.435l-13.333-6.027-1.148-5.884-26.165 1.651Zm6.523-294.886c.86-.287 1.792.287 2.079 1.148l.502 1.722c.287.861-.287 1.793-1.147 2.08-.86.287-1.792-.215-2.079-1.148l-.502-1.722c-.287-.861.215-1.793 1.147-2.08Z" fill="#1C1C1C"/><path fill-rule="evenodd" clip-rule="evenodd" d="m513.433 163.438-5.09-4.878s-4.66 1.865-10.681 3.156c-6.022 1.22-12.761.216-12.832 3.875-.072 3.659 7.455 18.367 7.455 18.367l-2.437.646s-1.506-.072-2.796-1.363c-1.29-1.292-2.151-2.224-2.151-2.224s-6.523 1.65-3.799 6.027c2.724 4.376 4.588 4.089 5.663 4.448 1.147.359 2.796.143 2.796.143s2.007 1.866 1.792 2.583c-.215.718-2.15 3.875-2.15 3.875s-9.033-1.722-13.406-10.691c-4.301-9.04-3.441-11.408-3.441-11.408l-3.441-2.367 4.158-3.588s-.717-9.399 9.606-13.058c10.323-3.659 13.907-3.803 13.907-3.803l4.23-5.452 3.369 4.376s3.513-1.578 4.588-3.802c1.076-2.225 2.653-4.234 2.653-4.234l1.362 10.476 4.444-.359-3.799 9.255ZM487.84 445.839l31.614-.215-3.656-77.488 35.987-.502-16.344 76.483 31.829 2.153 25.377-93.345s5.162-18.439-13.907-23.174c-19.141-4.736-66.741-7.462-66.741-7.462l-9.248 1.65 1.362-5.453-37.206.646-2.58 9.04-22.367.431-4.373 14.421s-1.147 24.251 12.832 27.982c13.979 3.803 28.532 1.363 28.532 1.363l8.889 73.47Zm21.005-274.221c.86-.287 1.792.215 2.079 1.148l.502 1.722c.287.861-.287 1.793-1.147 2.08-.86.287-1.792-.215-2.079-1.148l-.502-1.722a1.772 1.772 0 0 1 1.147-2.08Z" fill="#1C1C1C"/><path fill-rule="evenodd" clip-rule="evenodd" d="M470.42 279.886c-4.588 0-8.316 4.376-8.316 9.757 0 5.382 3.8 9.758 8.388 9.758l-.072-19.515Z" fill="#fff"/><path d="M470.492 301.123c-5.52 0-10.036-5.166-10.036-11.48 0-3.3 1.219-6.457 3.369-8.609 1.793-1.794 4.158-2.799 6.596-2.799.932 0 1.648.718 1.648 1.651 0 .932-.716 1.65-1.648 1.65-1.578 0-3.011.646-4.23 1.865-1.577 1.579-2.437 3.803-2.437 6.242 0 4.449 3.011 8.108 6.738 8.108.932 0 1.649.717 1.649 1.65 0 .933-.717 1.722-1.649 1.722Z" fill="#1C1C1C"/><path fill-rule="evenodd" clip-rule="evenodd" d="M481.03 217.392s.861-7.892 3.226-9.04c2.366-1.148 4.875-1.004 4.875-1.004s5.663 3.156 10.681 3.372c5.019.215 6.381-1.651 6.381-1.651s3.942-.43 4.229 2.225c.287 2.654-.788 7.39-.788 7.39s9.606 7.892 9.606 22.098c0 14.135-7.241 48.502-7.241 48.502l-7.742 29.56-36.417-.358 3.441-18.512s18.854-4.017 20.144-8.035c1.29-4.018 2.222-6.027 2.222-6.027s9.176 2.368 9.893.789c.717-1.578.43-3.444.43-3.444s3.8-.287 3.8-2.583c0-2.296-1.577-2.654-1.577-2.654s4.444-1.722 3.871-4.018c-.502-2.296-12.115-6.673-12.115-6.673s1.003-2.726 5.233-2.87c4.229-.215 8.172.215 8.029-2.368-.144-2.511 2.222-3.3-1.864-3.372-4.086 0-17.133-.502-21.076 6.601-3.943 7.103-4.803 13.489-4.803 13.489l-5.879.574s12.474-43.767 10.467-49.865c-2.008-6.099-7.026-12.126-7.026-12.126Z" fill="#fff"/><path fill-rule="evenodd" clip-rule="evenodd" d="M513.863 153.035c1.577-.072 3.226-1.292 4.373-.216 1.219 1.148-.502 4.305-1.004 5.812-.788 2.296-1.362 4.09-2.007 5.596.358.574.358.933.645 1.435.645 1.077 2.007 1.22 2.222 2.225.144.717-.358 1.219-.43 1.865 1.936 4.951 4.66 10.834 3.011 17.507-1.434 5.596-5.878 8.466-11.04 10.403-.573 3.301-1.362 6.386-2.007 9.614 1.577.79 3.369 1.148 4.158 2.87.717 1.722.215 3.875 0 6.027 5.592.359 11.112.646 16.058 1.148 5.377.502 9.104 1.937 12.474 4.664 3.225 2.654 5.878 5.524 8.1 9.04 2.151 3.372 4.086 7.247 5.879 11.121 6.38 13.632 12.617 26.977 19.283 40.825.789 1.65 2.725 4.52 2.151 5.883-.287.718-.717.933-1.577.861-1.505-.072-2.581-3.3-3.369-4.879a16800.813 16800.813 0 0 1-18.496-38.887c-3.727-7.893-6.882-15.139-12.688-20.162-3.226-2.798-6.165-4.52-11.255-5.165-4.588-.503-9.606-.718-15.341-1.005 1.648 3.516 4.516 5.74 5.878 9.686 1.362 3.874 1.649 8.682 1.649 14.063 0 9.973-1.649 19.874-3.154 28.412-3.011 17.794-7.886 34.726-11.901 51.157 1.649-.287 3.226-.646 4.804-1.005 6.236-21.596 12.975-44.556 19.283-66.798.431-1.578.932-3.443 2.151-3.587 3.656-.359.287 6.314.215 7.462 4.875 9.758 10.323 20.448 15.485 30.565.645 1.219 3.441 5.381.215 5.452-1.506 0-2.223-2.08-2.796-3.228-4.66-9.184-9.535-18.798-14.266-27.91-5.592 18.941-11.04 37.955-16.488 57.111 16.918 1.794 33.55 3.301 50.325 5.381 5.519.646 11.183.933 16.057 2.44 8.89 2.87 16.274 12.412 14.266 25.327-.86 5.525-2.437 10.834-3.871 16.143-6.81 24.754-14.051 49.22-21.148 74.116-.43 1.363-.86 3.085-1.433 3.588-1.362 1.004-4.158-.072-6.237 0-2.438 7.533-4.588 15.426-6.882 23.103 8.817 2.367 15.699 6.313 18.854 14.852.43 1.147.86 2.582 1.362 4.233.43 1.506 1.218 3.874.215 4.663-1.362 1.077-5.95.359-7.886.359-8.316 0-17.205-.215-24.947-.359-.574.718-.645 1.579-1.577 1.794-1.506.359-4.158 0-6.094-.144-6.38-.287-11.613-.071-18.28-.071-6.093 0-12.33-.072-18.065.071-2.294.072-5.592.287-6.452-.645-.932-1.076-.932-5.74-1.147-7.462-4.445-37.381-9.033-77.129-13.262-113.936-10.968-.215-23.514 1.865-30.324-2.655-2.222-1.507-3.943-3.229-5.592-5.596-2.939-4.305-5.448-9.973-5.448-16.861 0-6.96 1.362-13.13 3.37-18.87-4.087 0-1.721-4.807-1.004-7.39 1.649-5.883 3.584-12.341 5.018-17.722-9.893 1.937-19.284-1.363-19.14-10.906 0-2.941.573-6.098 1.362-9.04 2.795-10.69 6.595-21.668 9.892-31.641 1.721-5.166 3.298-10.403 5.449-15.354 2.079-4.879 4.229-9.829 7.097-13.632 4.659-6.027 12.76-7.821 22.581-8.61 3.083-.215 6.38 0 9.033-1.363 1.505-4.018 1.362-9.614 7.24-9.256.789-1.865.932-4.448 1.434-6.6-4.875-1.292-9.391-3.373-12.259-7.39-2.58-3.588-3.799-7.391-5.018-12.126-.143-.646-.215-1.507-.43-1.865-.788-1.435-3.871-2.081-3.656-4.808.144-2.224 2.581-2.654 4.015-3.443 1.218-5.525 3.584-9.758 8.1-12.413 3.298-1.865 7.097-3.229 11.399-4.018 1.433-.287 3.154-.072 4.588-.574 1.003-.359 1.792-1.937 2.652-3.013.86-1.005 1.721-2.583 3.011-2.583 1.936.072 2.151 3.013 3.011 4.018 3.011-1.507 3.297-6.601 6.093-8.036.43-.215 1.004-.287 1.649 0 2.366 1.291 1.362 7.103 1.864 10.332Zm-5.95-.933c-1.004 1.148-3.154 2.87-4.588 2.655-1.649-.216-1.577-2.44-2.653-3.444-1.505 1.363-1.863 3.515-3.656 4.161-.86.287-2.007.215-2.867.359-3.083.359-5.377 1.004-7.886 1.865-3.011 1.077-6.308 2.081-8.459 4.664-1.505 1.794-2.222 4.233-2.867 6.457-.215.79-.215 1.866-.646 2.583-.645 1.005-2.078 1.005-3.225 1.65.573 1.22 2.294 1.651 2.867 2.87.645 1.22.86 2.87 1.219 4.234 2.294 8.251 5.448 14.062 14.337 15.641.359-1.005-.43-1.22-.788-1.794-4.947 0-8.961-2.798-9.463-7.462-.215-1.794.143-3.444 1.219-4.592.716-.789 3.441-2.367 5.089-2.009 1.793.359 1.649 3.229 4.015 3.372-1.362-2.654-2.366-5.094-3.656-7.82-1.219-2.511-3.226-5.094-3.154-8.61.143-6.17 9.104-5.309 14.624-6.385 1.935-.359 3.656-1.148 5.448-1.866 1.362-.574 6.667-3.659 6.667-.43 0 1.722-3.298 2.511-4.66 3.157-2.079.86-3.584 1.506-5.806 2.152-1.793.502-4.302.717-6.811 1.004-2.15.287-5.591.574-6.093 1.794-.574 1.292.573 3.659 1.219 5.094 1.577 3.229 2.795 5.812 4.373 8.825.716 1.364 2.294 3.301 2.15 4.592-.215 1.937-2.796 1.435-5.376 1.65-1.793.144-5.162 2.225-4.875-.574.072-1.076.86-.932 1.792-1.578-.143-.359-.573-.502-.645-.861-1.721.143-2.438 1.148-2.222 3.013.143 1.292 1.362 3.157 2.795 3.803 1.291.574 3.298.215 4.588.646 1.147.359 2.796 2.224 3.011 3.228.144.933-.143 2.296-.358 3.086-.645 3.228-1.147 5.524-1.649 8.825 1.577 1.004 3.083 1.65 5.592 2.08 1.648.287 5.376 1.148 6.882.431.932-.431 1.075-1.722 1.362-3.014.501-2.367 1.075-5.022 1.577-7.103-2.294-.071-8.459.718-8.459-2.009 0-2.009 2.58-1.363 4.158-1.219 3.942.43 6.81-.431 9.462-1.794 3.441-1.722 6.237-4.664 6.595-9.112.431-6.17-2.294-10.762-4.229-15.713-2.079-.789-4.875-.215-5.807 1.148-.502.718-1.003 2.942-.215 4.161 1.291 1.866 5.663.861 6.237 3.373.645 2.654-3.011 4.591-3.441 1.219-2.151-.574-3.943-1.076-5.162-2.439-3.656-4.377.574-11.839 6.811-10.906-.502-1.22-2.796-4.879-.359-5.381.789-.143 1.291.431 1.577.215.431-1.148 1.147-2.654 1.219-3.802-.932.143-1.72.717-2.652.43-2.366-.646-.502-6.529-1.577-8.681-.861 1.076-1.362 2.87-2.581 4.161Zm-1.434 58.331c-.717.072-1.72 1.292-2.867 1.579-3.728.861-9.176-.574-11.685-1.65-1.076-.503-2.223-1.292-3.155-1.435-3.799-.718-3.942 1.578-4.588 3.874-.43 1.435-.788 2.655-1.218 3.803 3.082 3.3 5.806 7.031 6.452 12.699.716 5.883-.359 12.197-1.434 17.65-2.079 10.547-5.377 20.879-7.886 30.637.932-.072 1.936-.072 2.653-.359.788-2.727 1.648-5.166 2.58-7.605.861-2.368 1.577-4.951 3.155-7.103 2.939-4.162 9.534-5.812 16.273-6.099 2.437-.144 5.304-.144 6.882.646 1.648.789 2.509 3.3 1.792 5.381-1.506 4.305-8.173 2.296-12.259 4.018 2.939 1.793 11.614 2.439 9.893 8.251-.358 1.291-1.649 1.578-2.437 2.654 1.29 2.153.358 5.525-2.366 5.453-.072 2.655-1.004 4.879-3.154 5.238-2.724.502-5.735-1.22-8.244-1.363-1.577 4.089-2.509 8.322-6.094 10.26-4.229 2.296-9.893 2.224-15.126 3.802-1.362 5.668-2.867 11.265-4.229 16.933 11.47-.215 22.868-.431 34.338-.574 4.014-16.143 8.244-32.43 11.112-49.865 1.505-8.897 2.939-18.081 2.365-27.91-.287-5.166-.86-9.04-3.011-12.269-1.29-1.937-3.441-4.305-4.659-6.673-.359-.717-1.219-1.865-1.362-2.583-.287-2.08 1.147-4.376.43-6.457-.861-.359-1.362-1.004-2.151-.933Zm-33.765 9.041c-7.598.574-14.265 1.363-18.925 4.807-2.724 2.009-4.875 5.668-6.595 9.112-1.793 3.659-3.298 7.318-4.66 11.121-4.158 11.551-8.029 23.677-11.613 35.802-1.219 4.233-2.724 8.036-3.011 12.843-.43 5.883 3.297 8.969 8.029 9.471 2.15.215 4.731-.144 7.025-.431 13.191-1.578 26.023-3.659 38.353-6.457 2.007-.502 4.516-.861 5.878-1.65 2.653-1.579 3.298-5.238 4.445-8.251-1.792-.646-3.369-.287-3.369-2.081 0-2.296 2.724-1.435 4.372-1.004 2.51.645 4.445 1.147 7.098 1.65 1.433.287 3.082.717 3.154-.646 0-.789-2.079-1.507-3.226-2.009-2.939-1.22-5.162-1.794-8.244-2.655-1.434-.43-3.298-.789-3.226-2.367.143-2.942 5.735-.359 7.384.143 2.222.718 4.444 1.435 6.021 2.153 1.076.502 2.868 2.296 4.158.789.359-1.722-1.792-2.224-3.011-2.798-2.939-1.292-5.448-2.225-8.602-3.444-1.147-.431-3.584-1.076-3.584-2.583 0-2.655 3.584-1.005 5.018-.431 3.656 1.435 7.527 3.014 10.609 4.377.287-.574 1.864-.502 1.649-1.65-.143-.718-2.437-1.363-3.441-1.794-2.652-1.148-5.018-2.152-7.599-3.157-1.505-.574-3.011-.933-3.011-2.368 0-1.578 1.506-2.009 3.011-1.219 1.506-1.077 4.087-1.937 6.811-2.224 2.437-.216 6.953.502 6.667-2.153-3.226-1.076-7.886-.502-10.825.144-3.154.645-6.38 1.435-8.244 3.874-1.004 1.363-1.721 3.516-2.438 5.453-1.577 4.161-2.58 7.462-3.871 11.91-.43 1.435-1.147 5.238-2.652 5.381-3.513.359-.789-5.022-.574-6.242-12.043.933-23.872 2.655-35.987 3.229-.502-.574-.86-.718-.788-1.65.215-2.655 7.814-1.507 9.677-2.225 2.51-6.744 5.52-14.493 8.245-21.524.788-2.009 1.648-6.386 3.441-6.457 2.795-.144 1.362 3.013.788 4.591-2.796 7.39-5.52 14.35-8.244 21.381-.143.431-.43 1.077-.358 1.579 6.165-.574 12.186-1.148 18.28-1.794 1.864-7.318 3.943-14.78 5.878-22.529 1.936-7.605 4.301-15.713 3.656-24.753-.358-5.596-2.939-9.04-6.093-12.054-2.079.574-5.09.574-7.456.79Zm-2.795 81.864c-7.313 1.435-14.84 2.583-22.582 3.588-2.079 7.39-4.23 14.708-6.237 22.17 7.312.215 15.055.143 22.367.359 2.222-8.61 4.731-17.507 6.452-26.117Zm-1.434 19.731c-.359 1.65-.789 3.085-1.219 4.879-.358 1.435-.645 3.874-1.792 4.448-1.075.503-3.799.216-5.233.144-5.807-.287-11.757.072-16.918-.144-2.294 6.529-4.445 14.924-3.226 22.888 1.075 6.96 4.874 13.776 10.394 16.502 3.155 1.579 8.101 1.579 12.689 1.579 4.731 0 9.749.071 14.122-.216-.071-1.793-.501-4.305-.788-6.6-.215-1.794-1.075-5.453 1.218-5.453 1.578 0 1.793 2.08 2.008 4.018 3.154 26.977 6.38 54.959 9.391 81.29 9.391.216 18.997.144 28.531.216-1.577-30.565-1.648-61.13-3.799-91.336-.43-5.883-.932-11.91-3.441-15.641-3.8-5.525-12.617-7.031-21.865-6.027-2.222.215-7.168 1.794-7.24-.789-.072-2.296 5.018-2.296 7.455-2.583 9.822-1.005 18.209.789 22.94 5.812 6.739 7.103 4.947 20.591 6.094 33.147 11.183-.215 22.438-.359 33.621-.574.359-1.363.86-3.444 1.362-5.381.359-1.578.43-4.448 2.581-4.233 2.079.215.932 3.444.645 4.664-6.38 27.049-12.832 54.959-19.14 81.29 9.677.718 19.427 1.364 29.105 2.081 4.373-14.852 8.459-28.986 12.473-43.479 4.015-14.494 8.961-29.058 12.115-43.91 1.004-4.52 1.434-7.893.646-12.126-1.291-7.103-7.026-12.914-13.908-14.062-15.914-2.655-33.621-4.234-50.253-5.812-4.301-.431-8.674-1.22-12.832-1.22-1.935 0-4.373.861-6.595 1.363-1.72.359-5.376 1.507-6.022-.215-.573-1.722 1.076-3.228 1.004-5.094-11.327.144-22.725.359-34.123.574Zm49.607 49.363c.502 21.381 2.223 45.345 2.581 67.658.072 2.512.932 8.395-.358 9.399-.932.718-2.868.144-4.588.359 1.003 7.821 2.007 15.57 3.011 23.39 2.58.933 4.874 2.081 7.599 2.87 8.029-34.798 16.344-69.309 24.373-104.107-10.968.072-21.649.431-32.618.431Zm14.195 92.555c7.168.431 14.122 1.076 21.291 1.579 1.649-5.597 3.297-11.121 4.874-16.718-7.455-.43-14.839-1.076-22.294-1.578-1.291 5.453-2.796 11.336-3.871 16.717Zm-40.647 3.229c7.67-.574 15.269-1.148 22.94-1.65-.717-5.525-1.506-11.05-2.151-16.718-7.67 0-15.126-.215-22.868-.143.43 6.027 1.505 12.34 2.079 18.511Zm40.001 0c0-.287-.286.072-.215.215-.717 3.013-1.505 5.955-2.15 9.04 4.301 2.081 8.387 4.305 10.466 8.61 2.079.144 4.23.287 6.237.574 3.226-3.516 5.735-7.892 11.04-9.399-.932-.215-2.223-.861-3.441-1.148-.502-.072-.932.072-1.362-.143-2.151-1.005.215-4.234.358-6.243-6.954-.43-13.836-1.076-20.933-1.506Zm-39.499 3.228c.071 2.44.573 4.521.645 6.888 3.584 2.153 5.591 5.955 7.384 10.045 3.584-.072 6.81.144 10.394.144 3.441-4.09 6.452-8.539 12.259-10.26-1.792-1.005-4.803-1.292-6.38-2.44-1.434-1.076-.861-3.731-1.362-6.027-7.743.502-15.341 1.148-22.94 1.65Zm74.841 11.121c-1.075-1.076-2.867-2.726-4.659-2.798-2.151-.072-5.019.574-6.452 1.363-1.577.861-3.083 2.799-4.445 4.234-1.004 1.076-2.867 4.161-4.229 4.448-2.008.43-4.302-.574-6.022-.431.215 1.435.573 2.727.788 4.234 10.108 0 20.431.43 30.396.215-1.291-4.233-2.653-8.466-5.377-11.265Zm-31.757 2.512c-.86-.861-2.151-1.651-3.37-2.44-1.648-1.076-2.939-2.081-5.089-1.865-1.793.143-5.162 1.219-6.811 2.367-1.792 1.148-3.011 3.014-4.588 4.808-1.075 1.219-2.509 3.587-3.656 3.874-1.433.43-4.946.072-6.667 0-1.433-.072-5.233.359-6.667-.359-1.147-.574-1.72-2.941-2.365-4.233-.359-.789-.86-1.507-1.219-2.152-.43-.646-.86-1.651-1.362-1.579.43 3.946.932 7.821 1.362 11.695 14.696 0 29.607-.143 44.016.215-.43-3.731-1.075-7.748-3.584-10.331Z" fill="#1C1C1C"/><path fill-rule="evenodd" clip-rule="evenodd" d="M496.873 167.6c1.577-.215 5.592-.143 3.871 2.081-.717 1.004-3.728.215-5.376 1.148-.861.502-1.434 1.291-1.864 1.865-.574.718-.645 1.794-2.151 1.65-3.011-.287.645-4.52 1.434-5.237 1.219-.933 2.652-1.292 4.086-1.507Zm6.811 18.438c-.072 0-.144-.143-.215-.143.86 1.148 2.222 2.152 4.444 2.296 1.792.072 4.373-1.076 4.517.646.215 1.578-2.581 2.152-4.015 2.08-2.581-.143-4.803-.861-6.237-2.08-.645-.574-1.935-2.225-1.864-3.373 0-1.219 1.076-2.439 2.223-2.583 1.72-.215 2.079 1.077 4.014 1.364 1.936.287 5.807-2.153 5.879.43.071 1.579-3.441 2.583-6.022 2.368-1.147-.144-2.007-.718-2.724-1.005Z" fill="#1C1C1C"/><path fill-rule="evenodd" clip-rule="evenodd" d="m343.104 180.945-24.374 17.291s-8.531 3.946-13.907.861c-5.377-3.085-10.682-9.543-8.459-24.538 2.222-14.995 7.097-66.511 17.85-73.614 14.696-9.757 32.331-6.17 32.331-6.17s-1.434-9.901 1.864-10.26c3.369-.359 6.38.215 6.38.215l.215-14.923s-6.308.215-9.248-3.373c-2.939-3.515-4.158-8.825-4.158-8.825s-6.881-4.305-4.803-9.47c1.434-3.516 5.019-4.88 5.019-4.88s-2.796-3.802.43-7.246c3.226-3.444 7.24-1.865 9.032-4.018 1.792-2.152 8.818-11.264 13.621-10.475 4.229.646 3.154 3.444 3.154 3.444s7.814-5.238 11.255-2.44c3.441 2.799 2.796 5.812 2.796 5.812s4.946.79 5.807 3.588c.86 2.798-4.087 9.111-4.087 9.111l2.151 8.252s1.434 2.439 2.222 4.376c.789 1.937.861 4.449.861 4.449s7.527 2.439 8.244 4.807c.716 2.367-.574 4.233-.574 4.233s2.294.717 1.649 3.659c-.645 2.942-3.441 5.022-3.441 5.022s.788 2.655-2.151 4.88c-4.803 3.73-7.814 2.367-7.814 2.367l-5.089-1.148-7.026.359-.788 3.157s8.817.502 9.247 2.44c.43 1.936-.43 7.246-.43 7.246s27.385-2.153 34.123 7.82c6.739 9.901 14.625 27.193 14.625 27.193s5.591-32.215 7.383-33.22c1.721-1.004 2.223-1.793 2.223-1.793s1.218-37.381 5.018-41.83c2.079-2.367 2.796-2.87 2.796-2.87l1.648 11.839-2.007 4.879s9.463-2.224 10.682-.646c1.218 1.579 2.294 2.798.215 4.448-2.079 1.65-8.388 4.808-8.388 4.808s.932 2.941 1.362 7.103c.43 4.233-1.362 10.834-1.362 10.834l3.37 1.22 4.874 1.793-1.864 8.61 3.37 8.681s-5.377 32.574-7.599 40.466c-2.222 7.893-6.309 18.655-18.854 16.359-9.606-1.722-21.076-24.538-21.076-24.538l-.287 316.769 1.219 12.484s15.269 8.323 17.707 12.412c2.437 4.09 2.796 7.893 2.796 7.893l-49.68-.431s-2.222-20.089-2.796-39.82c-.573-19.731-5.376-197.81-5.376-197.81l-37.206 212.231s-2.007 12.413-2.222 16.502c-.215 4.09-.789 9.256-.789 9.256l-42.367.215s-.072-10.26 5.018-13.847c5.09-3.588 10.036-6.601 10.036-6.601l36.417-263.244s1.291-12.269.789-18.87c-.43-6.529-1.577-12.484-1.577-12.484Z" fill="#fff"/><path fill-rule="evenodd" clip-rule="evenodd" d="m328.265 149.806-2.868 12.627 8.029-6.242-5.161-6.385Z" fill="#fff"/><path fill-rule="evenodd" clip-rule="evenodd" d="m382.173 465.427.788 11.623s3.656 3.085 5.592 5.883c1.864 2.799 1.864 5.453 1.864 5.453h14.122s1.649-5.381 6.667-6.672c5.018-1.364 11.9 1.148 11.9 1.148l-10.036-7.821-1.864-9.04-29.033-.574Zm-73.264 1.65 29.177.215-1.362 10.26-6.667 13.059-8.244-.431s-1.721-6.17-7.384-7.82a692.214 692.214 0 0 1-11.255-3.444l4.875-2.799.86-9.04Zm148.106-345.468c-5.09.358-11.829-2.081-15.628-5.31-2.653-2.152-3.728-4.161-3.728-4.161l-7.599 31.641s-13.477-34.009-18.782-38.242c-5.305-4.161-11.47-6.744-20.287-7.103-8.818-.359-11.685-.646-11.685-.646s2.939-5.811.071-6.6c-2.867-.79-31.04-3.158-31.04-3.158s-4.086-2.582-4.66.861c-.645 3.516 0 6.386 0 6.386s-16.631-1.722-28.603 6.027c-8.746 4.95-11.112 15.139-14.624 29.919-3.441 14.78-8.531 53.668-7.814 57.685.788 3.947 3.871 15.713 17.061 13.92 13.119-1.794 30.611-20.162 30.611-20.162s.86 5.668.86 13.848c.072 8.179-.143 19.515-.143 19.515l64.948 4.377 1.219-100.519 2.868.861s-.359.645-.646 1.363c-.071.143.144 94.851.144 94.851l20.431-8.395s13.047-26.905 20.215-37.524c7.169-10.619 16.202-55.246 16.202-55.246s-.86 5.238-9.391 5.812Zm-144.809 55.533 8.459-12.7s2.581-9.112 4.302-15.067c1.72-5.955 4.444-13.058 4.444-13.058l.932 2.009-1.577 11.264 3.871 4.521 1.075 7.605-21.506 15.426Zm60.504-18.655c-.573 3.085-6.093 1.579-6.093 1.579h-10.968l-6.739 5.166s.645 3.802.645 6.026c0 2.225-2.15 5.453-2.15 5.453s-1.649 1.65-3.8 1.363c-2.15-.358-6.882-4.878-9.032-10.834-2.151-5.883-.359-9.112-.359-9.112l7.456-5.452s-2.366-9.543-2.007-16.646c.358-7.175 3.225-7.247 3.225-7.247l3.728-4.017 28.819-1.938c.143 0-2.151 32.574-2.725 35.659Z" fill="#1C1C1C"/><path fill-rule="evenodd" clip-rule="evenodd" d="M332.423 470.592c2.509 0 4.516 2.511 4.516 5.596s-2.007 5.668-4.516 5.668c-2.51 0-4.517-2.511-4.517-5.668 0-3.085 2.007-5.596 4.517-5.596Zm54.697 0c2.509 0 4.516 2.511 4.516 5.596s-2.007 5.668-4.516 5.668-4.516-2.511-4.516-5.668c0-3.085 2.007-5.596 4.516-5.596Zm-29.464-422.74s8.889 15.928 10.681 15.713c1.864-.216 4.732-4.09 9.822-5.166 5.018-1.076 8.889-.287 10.896.215 2.007.502 6.667 1.076 7.671 3.444 1.003 2.44-.431 5.596-.431 5.596s3.226 1.364 1.793 4.807c-1.434 3.373-4.015 3.373-4.015 3.373s3.154 5.309-4.229 6.6c-7.384 1.22-10.825-1.147-10.825-1.147s-7.456 3.874-13.621-2.584c-6.165-6.457-4.014-9.9-4.014-9.9l-7.097-13.848s-1.721-2.296-3.871-1.65c-2.223.574-4.947 1.793-3.657 5.668 1.219 3.874 3.226 4.95 4.804 5.022 1.577.072 3.799-.215 3.799-.215l-1.864 5.811s-5.735-.645-8.029-4.376c-2.294-3.731-4.229-8.108-4.229-8.108s-7.456-4.305-4.588-9.255c2.867-4.95 5.591-3.229 5.591-3.229s-4.516-6.457.86-9.686c5.377-3.228 5.305-.359 7.097-1.794 1.864-1.434 5.234-8.394 8.89-9.9 3.656-1.58 5.52-2.01 6.882-1.436 1.864.718 2.222 3.014 2.222 3.014s8.674-4.88 11.828-1.65c3.155 3.228 1.649 5.022 1.649 5.022s6.094.932 6.38 4.663c.287 3.803-3.656 8.395-3.656 8.395l-2.58-3.372s-.215-.718-2.868-1.22c-2.652-.502-5.448-.79-5.448-.79s1.864 3.23-1.649 3.66c-3.513.43-7.599-2.152-7.599-2.152s1.076 4.807-1.362 7.246c-2.366 2.44-5.233 3.229-5.233 3.229Z" fill="#fff"/><path fill-rule="evenodd" clip-rule="evenodd" d="M370.202 49.215c.932-.215 1.792.359 2.007 1.292l.502 2.152c.215.933-.359 1.794-1.291 2.009-.932.215-1.792-.359-2.007-1.291l-.502-2.153c-.215-.933.359-1.794 1.291-2.009Z" fill="#1C1C1C"/><path fill-rule="evenodd" clip-rule="evenodd" d="M449.129 57.681c.502.431-.071 1.65-.215 2.225.43.645.43 2.367-.143 3.013.573.933 1.075 1.22.573 2.583 2.581-.359 6.094-1.722 8.603-.574 1.864.861 2.939 3.66 1.864 6.027-1.219 2.798-6.309 4.161-8.818 5.811 1.721 3.875 1.721 9.184.789 13.92-.359 1.793-.502 4.663-2.366 4.663-2.581 0-1.219-3.372-.86-5.237.645-3.372.86-6.745 0-10.045-.359-1.363-1.29-3.229-1.147-4.377.287-1.722 3.656-2.654 5.018-3.444a81.373 81.373 0 0 0 2.652-1.578c1.219-.718 2.223-1.22 1.434-2.583-1.362-.717-2.867-.072-4.086.144-1.219.215-2.796.287-4.014.86-.861.431-1.506 1.435-2.008 2.225-1.003 1.578-1.935 3.73-3.871 1.865-.573 5.453-.86 10.906-1.362 16.502-.143 1.794-.215 3.731-.645 5.238-.359 1.22-1.506 1.794-2.007 2.87-.646 1.507-.717 3.659-1.219 5.811-2.581 11.624-4.875 22.458-7.599 34.583-.358 1.435-1.075 6.673-3.584 4.448-1.219-1.076.143-4.376.43-5.668.215-.932.43-1.937.645-2.87.215-1.004.574-2.152.574-2.87-.072-.932-.932-2.439-1.434-3.587-3.513-7.892-6.954-16.789-12.044-22.959-3.226-3.875-7.455-5.669-13.477-6.601-4.086-.646-8.674-1.363-13.477-1.579-1.649-.071-3.441-.287-4.875-.215-1.075.072-1.147 1.148-2.437.79-2.724-.718 0-6.171-.43-8.395-9.105-1.722-19.858-2.368-30.539-2.153-.502 1.005-.287 2.081-.359 3.373-.071 1.004-.501 2.654-.143 3.587.358.86 1.721.43 1.649 2.009-.072 2.296-3.8 1.507-5.807 1.435-6.81-.287-15.699-.287-20.502 1.435-7.743 2.798-11.972 7.031-14.696 14.923-2.509 7.247-3.943 15.57-5.377 24.323-2.151 13.345-3.943 25.327-5.592 38.816-.573 4.663-.931 9.327.574 12.915 1.434 3.443 4.158 6.457 6.882 7.892 3.513 1.865 8.029 1.076 11.828-.646 3.083-1.435 5.807-3.803 8.818-6.027 7.169-5.381 13.907-10.332 20.574-16.358 1.219-1.148 3.298-2.655 3.656-4.018.359-1.363.359-3.157.215-4.807-.143-1.507-.717-3.373-.358-4.449.788-2.224 7.599-1.793 5.018-5.453-1.505-.143-2.222.431-3.584 1.148-.789.431-4.158 2.583-4.588.144-.144-.718.215-1.22.645-1.794 1.935-2.296 2.796-4.735 5.018-6.888.789-.789 2.079-1.722 2.007-2.798-.071-.933-.86-1.507-1.649-1.578-1.577-.072-3.656 2.511-4.444 3.659-.645.861-1.291 2.152-1.649 3.013-.789 1.722-1.362 4.162-3.584 3.014.286 1.65.788 3.157 1.362 5.381.43 1.578 1.792 5.237-.789 5.237-1.864 0-1.935-2.798-2.437-4.591-.502-1.938-1.076-3.731-1.434-5.453-6.524 4.735-15.126 11.264-22.366 16.717-.932.717-2.366 2.224-3.657 1.865-.501-.143-1.075-.932-1.147-1.363-.143-1.435 1.291-2.009 2.223-2.654 2.796-2.081 5.376-4.234 8.1-6.243 1.434-5.739 3.226-12.627 4.875-18.941.43-1.722.789-5.309 2.366-5.596 3.297-.574 1.434 3.946 1.003 5.668-.573 2.08-.86 3.659-1.362 5.166 1.076 2.008 2.438 3.73 3.585 5.668 1.792-1.005 3.799-2.727 5.591-4.09-1.147-5.453-1.792-11.48-.645-17.291.574-2.799 1.577-4.449 3.37-6.099 1.505-1.435 3.727-3.372 6.236-3.229 2.438.144 5.162 2.87 4.803 5.453-.358 2.511-2.795 3.229-4.157 5.023 4.588-1.866 8.817 1.722 7.097 6.457 1.075 1.363 2.365 2.655 2.365 4.664-.071 3.372-3.512 5.022-4.874 7.103 4.086-1.435 6.882 3.659 5.376 6.816-.932 1.937-3.369 2.583-5.233 3.444.358 3.228.717 6.816-.359 9.399-1.147 2.654-4.157 4.663-6.236 6.457-.646.502-2.008 1.507-2.151 2.009-.215.789.358 2.655.574 3.874 1.29 8.61 2.078 18.942.215 27.767 20.932 1.722 42.439 2.942 63.586 4.448.359-23.748-.358-49.219-.358-73.255 0-5.883-.144-11.838.143-18.08.072-2.153-.143-4.807 1.792-4.807 2.008 0 1.649 2.726 1.578 4.879-.144 4.591-.431 8.538-.216 13.13.072 2.008-.286 4.663.144 6.457.287 1.22 2.294 3.659 3.011 4.807 3.011 4.664 6.021 9.614 9.247 13.847 2.366 3.086 4.947 5.525 9.463 6.027 4.66.574 8.101-1.578 10.682-4.448 2.437-2.798 3.154-6.816 4.372-11.121 3.441-12.628 4.66-25.327 7.456-38.816-.645.646-2.079 2.296-3.584 1.866-2.509-.646-.215-7.175.143-9.256.645-4.018.789-7.247 1.434-10.26.286-1.291 1.29-2.798 1.864-4.018 1.075-2.224 2.007-4.305 2.795-7.247.431-1.578.574-3.013 1.649-3.372 3.011-.789 2.222 2.799 1.649 4.88-.717 2.582-1.721 5.165-2.868 7.605-.501 1.076-1.505 2.152-1.863 3.372-.359 1.076-.359 2.009-.574 3.372-.143 1.076-.43 2.87-.358 3.587.071.646.717 1.077.86 1.794.358 1.578.502 2.726.287 4.664 2.294.645 1.433 5.668.932 8.179a2834.122 2834.122 0 0 1-3.8 20.663c-.86 4.592-1.577 9.112-2.796 13.633-1.218 4.448-2.222 8.753-4.444 11.838-2.366 3.229-5.377 5.525-9.606 6.386-4.732.932-9.248-.574-12.474-2.87-2.867-2.081-5.09-5.812-7.097-8.825a554.59 554.59 0 0 1-6.38-9.471c.287 94.205.143 187.622.143 283.19 0 13.417-.573 27.049 1.004 39.605 4.158 2.87 8.387 5.381 12.689 8.467 1.863 1.291 4.014 2.869 5.376 5.237.574 1.005 1.075 2.224 1.649 3.659.502 1.22 1.362 2.942.788 4.018-.573 1.076-3.584.718-5.806.789-12.546.503-25.951.144-39.07.144-1.864 0-5.376.359-6.38-.215-.86-.503-1.219-4.09-1.434-6.027-1.864-14.996-2.007-33.22-2.437-49.363-1.577-57.757-3.441-115.156-5.018-172.698-11.399 65.506-22.438 132.232-34.052 198.527-1.147 6.745-1.935 14.494-2.652 22.314-.287 2.583-.144 6.673-1.434 7.39-.86.502-3.656.215-5.448.215-11.255 0-22.008.144-33.622.144-2.15 0-4.803.215-5.448-.574-1.147-1.363.359-5.596.86-7.39.789-2.583 1.721-4.592 3.011-6.099 2.868-3.515 7.026-5.166 10.825-7.462 2.653-24.753 6.237-49.219 9.463-73.613 3.226-24.395 6.81-48.717 10.036-73.04 3.226-24.466 6.524-48.717 10.251-72.824 1.864-11.839 3.8-23.821 5.664-35.803.932-6.027 1.935-12.197 2.365-18.367.43-6.314-.645-12.484-1.577-18.942-5.233 3.875-10.466 7.964-15.914 12.126-4.732 3.659-12.546 9.04-20.575 5.883-6.021-2.368-10.968-9.04-11.255-17.076-.143-4.233.789-8.538 1.362-12.843a1231.965 1231.965 0 0 1 5.449-36.879c1.362-8.251 2.58-16.071 5.233-22.959 2.724-7.103 6.954-11.838 13.621-14.709 3.297-1.434 7.025-2.51 11.469-2.654 4.23-.215 8.89-.287 13.693-.144.358-3.587-.502-7.533 1.362-9.47 1.29-1.435 3.799-.861 6.595-1.005.287-3.802.072-8.107.143-12.125-6.738-1.507-10.968-5.525-12.688-12.054-3.226-1.076-7.097-6.96-5.377-11.408.789-2.009 2.868-2.942 4.803-4.09-1.362-1.722-1.505-4.663-.43-6.6 1.147-2.01 3.513-4.162 6.38-4.592.932-.144 2.008.071 3.226-.36 1.721-.573 3.226-2.869 4.588-4.591 2.223-2.87 3.943-5.31 8.029-6.457 2.509-.718 6.094-1.077 6.811 1.65 5.018-3.66 14.48-2.727 14.839 4.807 4.946-.072 7.67 4.161 6.237 8.825-.717 2.224-2.509 4.018-3.585 5.668.287 1.005 1.219 1.866.645 3.157-.573 1.291-3.799.933-5.233 1.435-.86.287-2.079 1.005-2.15 2.08-.215 3.732 7.168 2.368 4.659 7.39.789.36 1.936.36 2.796.646-.143-1.22-.645-2.008-1.362-3.156-.717-1.077-2.724-3.947-.143-4.233 1.649-.216 2.796 2.008 3.441 3.228.86 1.65 1.29 3.229 1.433 5.238 4.947 1.076 10.323 3.874 8.675 10.116 2.652 3.3.358 8.395-2.796 9.471-.072 1.65-.502 3.444-1.362 4.448-1.649 2.01-6.739 3.803-10.252 3.444-2.222-.215-3.942-1.65-5.591-2.224-.645.144-1.434.287-2.222.43-.717.144-1.721 0-2.151.575 0 .86 1.219.645 1.649.645 1.649.216 4.373.287 5.591 1.364 1.577 1.363 1.004 4.663.43 6.887 12.617 1.005 25.306.861 32.331 7.247 7.026 6.457 9.75 16.287 14.338 25.184 1.649-6.888 3.226-14.637 4.803-21.955.502-2.44.86-5.166 1.649-7.103.502-1.22 1.505-1.364 1.864-2.44.501-1.363.286-3.444.43-5.237.717-8.61 1.434-17.292 2.581-25.543.86-6.314 1.577-11.838 6.595-13.704.43.574.573.287.788 1.22.144.574-.215 1.291.215 1.65-.716 1.148-2.007 1.579-2.652 2.87-.86 1.722-1.219 4.664-1.577 7.39a210.097 210.097 0 0 0-.86 8.108c.788-.79 1.577-2.727 2.795-3.66.431-2.726 1.076-5.452 2.151-7.677.215-.43.574-1.363 1.29-1.434Zm-62.511-22.744c.215-1.291 0-2.87-.86-3.587-1.219-1.005-3.441-.072-4.803-.861-1.362-.79-.43-3.014-1.219-4.592-1.577-3.229-6.524-2.08-9.033-.646-1.577.861-3.369 3.3-4.588.43-.358-.932-.143-2.08-1.577-1.865-4.516.503-6.452 3.373-8.674 6.242-1.362 1.722-2.652 3.731-4.444 4.664-1.721.933-3.728.43-5.807 1.148-1.219.43-3.513 2.08-3.585 3.803-.071 2.009 2.223 3.157 2.008 4.807-.215 1.291-1.936 1.65-3.011 2.224-1.362.79-2.222 1.65-2.796 2.44.143 2.367.287 3.946 1.577 5.452.789 1.005 2.724 1.364 3.441 2.368.789 1.076 1.075 2.727 1.649 4.018 1.649 3.66 4.23 5.668 8.387 6.672v-2.152c-5.735.861-9.104-5.668-7.598-9.399.788-1.865 3.154-4.233 5.663-4.233 1.577 0 3.728 1.578 4.588 2.798 1.362 1.865 2.294 4.592 3.656 7.103l1.792 3.588c.574 1.148 1.577 2.583 1.792 3.659.43 2.654-.215 4.09.43 5.811.502 1.364 1.721 2.583 2.796 3.444 2.509 2.08 5.162 2.655 9.248 2.01 1.219-.216 2.652-.718 3.871-.575 1.936.216 3.441 2.224 5.878 2.368 1.219.072 2.653-.502 3.8-.861.86-.287 2.509-.646 3.154-1.579.717-1.076.143-2.726.789-4.09.86-1.793 3.871-1.29 3.656-4.089-.072-1.291-1.219-1.722-1.362-2.798-.144-1.363.645-1.722.573-3.013-.072-1.364-1.219-2.583-2.007-3.014-1.219-.717-2.868-.933-4.875-1.578-2.509-.718-4.229-1.866-6.667-1.579-3.082.359-6.882 1.794-8.674 2.798-1.721.933-2.581 3.3-4.588 3.803-2.724.718-3.584-1.578-4.803-3.444-1.936-3.085-3.298-5.74-4.875-8.897-.645-1.291-1.577-3.515-2.365-4.591-.502-.646-1.434-.718-1.434-1.866.071-2.296 2.15-1.005 3.871-1.65 1.075-.359 2.007-2.368 2.437-3.803.43-1.507.144-4.448 1.004-5.238 1.219-1.076 2.652.216 3.656.79 1.649.932 3.728 2.08 5.018.143.574-.86.287-2.367 1.434-2.798 1.864-.717 4.946 1.148 6.882.646 1.29-.359 1.577-1.937 2.867-1.866.861.072 1.506.79 1.577 1.579.072.86-.86 1.363-.86 2.152.359.359.43 1.077.789 1.435.788-1.507 1.935-2.296 2.222-3.73Zm-11.398 3.086c-.932 3.443-6.524 4.878-9.606 2.439-.502 3.946-2.151 6.744-5.018 8.251 2.58 4.664 4.731 9.83 7.885 13.92 2.509-3.445 6.954-5.023 11.829-6.1-.144-.932.43-1.22.573-1.865-2.652-.86-5.161-3.229-4.875-6.386.287-3.372 3.441-4.878 6.667-5.452-.43-1.507-1.29-2.727-1.792-4.233-2.151.143-3.728-.431-5.663-.575Zm-26.596 19.945c-.072 1.292 1.362 3.66 2.365 4.018 2.008.718 4.66-.86 5.449 1.005.143.359.215.86.215 1.22.43 5.955-.359 12.699-.144 19.085 5.09 0 10.395.86 14.84.645-6.524-1.578-11.184-4.879-11.47-12.412 0-.646.143-1.435 0-2.08-.144-.718-.789-1.651-1.219-2.44-1.29-2.44-2.652-5.238-3.799-7.39-2.008-.43-5.234.072-4.875-2.081.215-1.291 1.72-1.148 3.226-.861-.215-.502-1.076-1.291-2.008-1.435-.931.646-2.437 1.291-2.58 2.727Zm-4.373 79.282c.502-1.148.573-3.013 1.362-4.233l.86-1.148c1.075-1.076 3.584-2.439 3.584-3.587 0-.502-1.003-1.507-1.863-1.435-1.076.072-2.653 1.363-3.226 1.865-2.796 2.44-3.441 6.673-3.011 11.91.358-1.363 1.792-2.08 2.294-3.372Zm6.38-.215c-4.158 1.435-6.667 6.314-8.101 10.475.359 1.22.502 2.727.861 3.875 1.863-5.238 5.018-9.328 9.821-11.695.358-.646.286-1.794 0-2.44-.789-.502-1.792-.43-2.581-.215Zm-22.725 22.099c1.29-.861 2.581-1.722 3.656-2.799-.788-.932-1.362-2.152-2.15-3.157a722.776 722.776 0 0 0-1.506 5.956Zm-15.341 290.58c9.104-.215 18.639-.574 27.313-.789 11.326-65.076 22.438-132.735 33.98-198.384.358-2.153.573-4.807 1.218-6.386.43-1.004 1.864-1.937 2.796-2.798 2.079-1.865 3.8-3.3 5.879-5.238.788-.717 2.939-2.654 3.871-.645.573 1.506-.861 2.367-1.649 3.157-1.864 1.722-3.441 3.156-5.377 4.807-.932.861-2.222 1.578-2.58 2.583-.287.717-.359 1.865-.574 2.798-.789 4.52-.215 10.045 0 15.067.215 4.09.143 8.179.358 12.269.717 16.43.646 32.789 1.363 49.147 1.72 40.825 2.078 82.726 3.656 122.762 8.889.215 17.635.502 26.596.645.071 0 .143-.071.143-.215-.072-77.416 0-152.537.143-228.661-21.506-1.22-42.654-2.87-64.088-4.234-12.617 76.34-22.295 155.766-33.048 234.115Zm70.397 2.009c-.072 1.865.215 3.515.143 5.453 8.818-.359 17.779-.574 26.525-1.005v-4.161c-8.89-.144-17.635-.502-26.525-.646-.215 0-.143.144-.143.359Zm-70.971 1.291c-.071 1.794-.501 3.229-.573 5.023 9.033-.072 17.85.071 26.739.143.359-1.937.717-3.874 1.004-5.883-9.104.215-18.065.502-27.17.717Zm71.186 7.606c.143.861.072 2.009.143 3.013 8.89 0 17.492-.215 26.31-.215v-3.659c-8.961.143-17.635.645-26.453.861Zm-72.333 1.219c-.143 1.22-.43 2.44-.43 3.803 8.746-.144 17.635-.215 26.525-.215.215-1.292.43-2.511.645-3.803-9.104.072-17.348-.215-26.596-.143-.144.071-.144.215-.144.358Zm72.548 5.094c.143 3.014.215 6.099.359 9.112 3.584 2.727 6.38 6.243 7.67 11.265 3.943 0 7.886 0 11.685-.144 2.509-4.233 5.663-7.748 11.9-8.251-1.29-1.148-3.441-1.363-4.158-3.013-.501-1.148-.501-2.942-.645-4.448-.215-1.579-.287-3.229-.43-4.808-8.889.072-17.563.287-26.381.287Zm-73.336 1.938c-.789 2.296-.072 6.313-1.004 8.394-.286.646-1.362 1.005-1.218 1.363 7.383.718 11.9 4.305 14.624 9.686 2.007 0 3.871.216 5.878.216 1.864-3.086 3.728-6.458 5.448-9.686.574-1.077 1.434-2.368 1.649-3.444.574-2.153.144-4.377.86-6.673-8.602.072-17.348.144-26.237.144Zm114.771 16.86c-1.218-.861-2.724-2.367-3.871-2.654-1.218-.359-2.15-.215-3.441-.359-1.075-.143-2.365-.359-3.584-.215-3.513.359-5.878 3.157-7.384 5.596-.502.861-1.147 2.153-2.007 2.44-1.792.574-5.233.143-7.456.215-1.792.072-6.236.43-7.598-.144-1.004-.43-1.219-2.296-1.649-3.587-.861-2.583-1.936-4.592-3.656-6.027 0-.143-.144-.072-.144.144.359 4.161.932 8.251 1.434 12.269 14.553-.216 30.037-.072 45.091-.144-.932-3.946-3.011-5.596-5.735-7.534Zm-92.476 2.655c-.646 1.076-1.434 3.014-2.581 3.372-1.362.431-3.011.072-4.373 0-1.147-.071-3.441.144-4.445-.215-.932-.359-1.72-2.009-2.437-3.157-.717-1.076-1.505-2.439-2.366-3.229-2.867-2.798-8.602-3.228-13.477-3.874-.215 0-.358.144-.43.215-1.577 1.005-3.584 2.153-4.803 3.803-1.649 2.224-2.151 5.166-2.868 8.395 13.263.071 26.166-.072 39.07-.144.072-3.013.789-6.027.645-8.897a96.256 96.256 0 0 1-1.935 3.731Z" fill="#1C1C1C"/><path fill-rule="evenodd" clip-rule="evenodd" d="M368.481 44.623c1.218-.215 5.018-.502 4.229 2.009-.502 1.578-2.867.43-4.014.646-.717.143-1.721 1.291-2.366 1.865-.573.646-1.147 1.937-2.581 1.578-.358-.071-.86-.645-.86-1.147-.143-1.507 3.298-4.305 4.373-4.808.287-.071.86-.071 1.219-.143ZM381.385 61.7c.789-.144 1.936.143 1.649 1.578-.215 1.004-2.581 2.224-3.799 2.439-1.792.359-4.517-.79-4.66-2.08-.072-.575-.143-1.58 1.219-1.65 1.29-.073 1.505 1.075 2.58 1.147 1.291-.072 1.578-1.22 3.011-1.435Z" fill="#1C1C1C"/><path d="M387.048 450.001a1.362 1.362 0 0 1-1.362-1.363l-6.882-207.281c0-.789.573-1.435 1.362-1.435.86 0 1.434.574 1.434 1.363l6.882 207.281c0 .789-.574 1.435-1.434 1.435.071 0 .071 0 0 0Z" fill="#1C1C1C"/><path fill-rule="evenodd" clip-rule="evenodd" d="M349.628 113.215h24.947c2.294 0 4.229 1.507 4.229 3.372l-3.799 40.179c0 1.865-1.434 3.372-3.226 3.372h-19.212c-1.792 0-3.226-1.507-3.226-3.372l-3.871-40.179c-.072-1.865 1.864-3.372 4.158-3.372Z" fill="#fff"/><path d="M371.707 161.501h-19.212c-2.581 0-4.66-2.152-4.66-4.735l-3.871-40.036c0-2.726 2.509-4.878 5.591-4.878h24.948c3.082 0 5.591 2.152 5.591 4.735l-3.799 40.322c.072 2.44-2.007 4.592-4.588 4.592Zm-22.08-46.923c-1.505 0-2.796.861-2.796 1.937l3.871 40.036c0 1.219.861 2.08 1.864 2.08h19.213c1.003 0 1.863-.861 1.863-1.937l3.8-40.322c0-.933-1.291-1.794-2.796-1.794h-25.019Z" fill="#1C1C1C"/><path fill-rule="evenodd" clip-rule="evenodd" d="M350.631 103.385h22.94c.645 0 1.147.717 1.505 1.435l1.219 3.802c0 .574-.359 1.005-.932 1.005h-26.524a.98.98 0 0 1-1.004-1.005l1.219-3.874c.358-.717.932-1.363 1.577-1.363Z" fill="#fff"/><path d="M375.363 110.99h-26.524c-1.362 0-2.438-1.076-2.438-2.368 0-.143 0-.287.072-.43l1.219-3.875c.717-1.506 1.792-2.296 2.939-2.296h22.94c.788 0 1.935.359 2.796 2.225l1.29 4.018c.072.143.072.287.072.43 0 1.292-1.076 2.296-2.366 2.296Zm-25.951-2.798h25.306l-.932-3.014c-.143-.287-.287-.43-.358-.502l-22.725.072c-.072.072-.287.215-.431.574l-.86 2.87Z" fill="#1C1C1C"/><path fill-rule="evenodd" clip-rule="evenodd" d="M345.756 109.125h32.761c.932 0 1.649 1.148 2.15 2.368l1.721 6.385c0 .933-.574 1.65-1.362 1.65h-37.851c-.789 0-1.434-.717-1.434-1.65l1.721-6.457c.502-1.22 1.362-2.296 2.294-2.296Z" fill="#fff"/><path d="M381.026 120.892h-37.851c-1.577 0-2.867-1.364-2.867-3.086 0-.143 0-.215.071-.358l1.721-6.458c.86-2.08 2.15-3.228 3.584-3.228h32.761c1.434 0 2.581 1.076 3.441 3.228l1.792 6.529c0 .144.072.216.072.359.072 1.65-1.147 3.014-2.724 3.014Zm-37.851-2.942c.072.143 37.851.143 37.851.143 0-.143-1.649-6.313-1.649-6.313-.502-1.148-.86-1.292-.86-1.364h-32.689c-.144.072-.574.431-1.004 1.364l-1.649 6.17Z" fill="#1C1C1C"/><path fill-rule="evenodd" clip-rule="evenodd" d="m348.91 125.053-4.587 2.511s-2.366 3.013-2.366 3.3c0 .287-1.362 2.153-1.362 2.583 0 .431-.359 6.171-.359 6.171l3.011 1.722 2.151 9.04 3.512 12.484 2.725.861 5.735-5.883v-3.875s-2.366-1.291-2.725-.861c-.358.431-1.433 1.292-2.15 1.435-.717.216-1.147.216-1.721.216-.573 0-.358-1.005.287-1.651.645-.645.574 0 1.506-1.219.931-1.292 2.365-3.444 2.652-3.731.215-.287.573-1.077.86-2.009.287-.933.215-2.727-.143-2.942-.287-.215-1.004.215-.789-1.722.215-2.009.645-3.157.287-4.161-.358-.933-.502-1.866-1.29-2.153-.861-.287-1.577-.717-2.366-.287-.789.431-1.219.502-2.079.646-.932.215-1.577.359-1.792.359-.215 0-.86-.287-.86-.287s-.072-1.148.143-1.579c.215-.43.215-.717.932-1.076a7.452 7.452 0 0 0 1.362-.933c.502-.358 1.434-1.219 1.649-1.65.215-.502.358-1.435.358-2.009 0-.502.215-1.004-.43-1.865-.502-.861-2.151-1.435-2.151-1.435Z" fill="#fff"/><path fill-rule="evenodd" clip-rule="evenodd" d="M353.857 152.317c1.362-2.081 4.803-3.802 4.874-7.103.072-2.009-1.218-3.3-2.365-4.664 1.648-4.807-2.509-8.322-7.097-6.457 1.362-1.794 3.727-2.511 4.157-5.022.359-2.655-2.365-5.381-4.803-5.453-2.509-.144-4.731 1.794-6.236 3.229-1.793 1.65-2.796 3.3-3.37 6.098-1.147 5.812-.502 11.839.645 17.291-1.505 1.22-3.226 2.655-4.803 3.66v4.233c1.936-1.435 3.8-2.798 5.592-4.09.43 1.722.932 3.516 1.434 5.453.502 1.794.573 4.592 2.437 4.592 2.581 0 1.219-3.659.789-5.238-.574-2.224-1.076-3.659-1.362-5.381 2.15 1.148 2.795-1.291 3.584-3.013.358-.861 1.075-2.153 1.649-3.014.86-1.148 2.867-3.731 4.444-3.659.861 0 1.649.646 1.649 1.579.072 1.076-1.218 2.009-2.007 2.798-2.222 2.224-3.083 4.663-5.018 6.888-.502.574-.789 1.004-.645 1.793.43 2.512 3.799.287 4.588-.143 1.362-.718 2.079-1.292 3.584-1.148 2.581 3.659-4.23 3.229-5.018 5.453-.359 1.076.215 2.941.358 4.448.144 1.65.144 3.444-.215 4.807-.358 1.363-2.437 2.87-3.656 4.018-2.294 2.081-4.659 4.018-6.953 5.955h5.304c.359-.502 1.506-1.363 2.008-1.793 2.079-1.794 5.089-3.803 6.236-6.458 1.076-2.511.717-6.098.359-9.399 1.864-.861 4.301-1.507 5.233-3.444 1.506-3.157-1.29-8.251-5.376-6.816Zm-8.89-23.533c.574-.502 2.151-1.866 3.226-1.866.86 0 1.864.933 1.864 1.435.072 1.148-2.509 2.511-3.584 3.588-.215.215-.717.789-.861 1.148-.716 1.219-.86 3.085-1.362 4.233-.573 1.291-2.007 2.009-2.365 3.444-.359-5.31.286-9.543 3.082-11.982Zm8.244 10.977c-4.803 2.368-7.885 6.458-9.821 11.695-.43-1.148-.502-2.654-.86-3.874 1.434-4.162 3.943-9.04 8.101-10.475.788-.287 1.792-.287 2.58.215.287.646.287 1.722 0 2.439Z" fill="#1C1C1C"/><path fill-rule="evenodd" clip-rule="evenodd" d="m330.344 161.501 5.591-4.161.717 3.013-3.297 1.507-3.011-.359Z" fill="#fff"/><path fill-rule="evenodd" clip-rule="evenodd" d="M411.709 245.375s-4.373-2.511-7.025-12.412c-3.083-11.624-1.721-15.426-1.793-15.355l8.244.144.574 27.623Zm-71.688-4.233s7.384-3.229 10.825-9.686c3.728-6.96 4.875-15.713 4.875-15.713l-11.255-1.005-4.445 26.404Z" fill="#1C1C1C"/><path d="M454.004 119.384c-4.301-.071-9.319-2.798-13.262-7.175-5.448-6.026-7.168-13.201-4.086-17.076.574-.717 1.649-.86 2.366-.287.717.574.86 1.65.287 2.368-1.721 2.153-.646 7.605 3.942 12.771 3.226 3.588 7.528 6.027 10.682 6.099 1.218 0 2.15-.287 2.796-1.005a1.687 1.687 0 0 1 2.365 0c.645.646.717 1.722.072 2.368-1.29 1.292-3.083 1.937-5.162 1.937Zm-106.026 56.538c-1.075 0-2.222-.287-3.297-.789-3.37-1.65-6.309-5.596-7.599-10.332-1.649-5.668-1.004-11.551 1.505-14.923.574-.718 1.577-.861 2.366-.359.717.574.86 1.578.358 2.368-1.935 2.583-2.294 7.39-1.003 12.053 1.075 3.803 3.369 7.032 5.878 8.251 1.075.503 2.007.646 2.868.287.86-.358 1.863.072 2.15.933.359.861-.072 1.866-.932 2.153a8.08 8.08 0 0 1-2.294.358Z" fill="#1C1C1C"/><path fill-rule="evenodd" clip-rule="evenodd" d="M310.63 300.118h442.024a5.142 5.142 0 0 1 5.162 5.166 5.142 5.142 0 0 1-5.162 5.166H310.63a5.142 5.142 0 0 1-5.162-5.166c-.071-2.798 2.294-5.166 5.162-5.166Z" fill="#fff"/><path d="M752.582 311.885H310.629a6.58 6.58 0 0 1-6.595-6.601 6.58 6.58 0 0 1 6.595-6.6h442.025a6.58 6.58 0 0 1 6.595 6.6c-.072 3.66-3.011 6.601-6.667 6.601Zm-441.953-10.331c-2.079 0-3.799 1.721-3.799 3.802s1.72 3.803 3.799 3.803h442.025c2.079 0 3.799-1.722 3.799-3.803s-1.72-3.802-3.799-3.802H310.629Z" fill="#1C1C1C"/><path fill-rule="evenodd" clip-rule="evenodd" d="M485.188 291.006h109.538c.645 0 1.147.502 1.147 1.148v2.152c0 3.085-2.509 5.597-5.591 5.597H489.633a5.602 5.602 0 0 1-5.592-5.597v-2.152c.072-.646.574-1.148 1.147-1.148Z" fill="#fff"/><path d="M590.282 301.481H489.633a7.222 7.222 0 0 1-7.24-7.246v-2.153c0-1.506 1.218-2.798 2.795-2.798h109.539a2.8 2.8 0 0 1 2.795 2.798v2.153a7.222 7.222 0 0 1-7.24 7.246Zm-104.52-8.825v1.579a3.856 3.856 0 0 0 3.871 3.874h100.649a3.856 3.856 0 0 0 3.871-3.874v-1.579H485.762Z" fill="#1C1C1C"/><path fill-rule="evenodd" clip-rule="evenodd" d="M538.094 235.33h72.691c3.082 0 7.097 4.448 6.236 7.318l-13.262 43.91c-.86 2.87-4.086 5.166-7.097 5.166h-72.691c-3.082 0-7.097-4.448-6.237-7.318l13.191-43.982c.86-2.798 4.086-5.094 7.169-5.094Z" fill="#fff"/><path d="M596.662 293.374h-72.691c-2.652 0-5.09-2.081-6.38-3.802-1.434-1.938-1.936-3.947-1.434-5.669l13.262-43.981c1.076-3.588 4.875-6.386 8.746-6.386h72.691c2.653 0 5.09 2.081 6.38 3.803 1.434 1.937 1.936 3.946 1.434 5.596l-13.19 43.982c-1.147 3.731-5.019 6.457-8.818 6.457Zm-58.569-56.394c-2.365 0-4.874 1.794-5.519 4.018l-13.263 43.982c-.215.645.215 1.65.932 2.654 1.076 1.435 2.653 2.511 3.728 2.511h72.691c2.366 0 4.875-1.793 5.52-4.017l13.19-43.982c.215-.646-.143-1.65-.932-2.655-1.075-1.435-2.652-2.511-3.727-2.511h-72.62Z" fill="#1C1C1C"/><path fill-rule="evenodd" clip-rule="evenodd" d="M574.295 258.576c-4.086-.071-8.459 3.444-9.749 7.821-1.362 4.376.86 7.964 4.875 7.964 4.086.072 8.459-3.444 9.749-7.821 1.362-4.376-.788-7.964-4.875-7.964Z" fill="#fff"/><path d="M569.492 275.724c-2.365 0-4.229-.932-5.448-2.583-1.362-1.865-1.649-4.448-.86-7.174 1.505-4.951 6.38-8.825 11.04-8.825 2.365 0 4.229.932 5.448 2.583 1.362 1.865 1.649 4.52.86 7.174-1.505 5.023-6.38 8.825-11.04 8.825Zm4.732-15.784c-3.37 0-7.241 3.085-8.388 6.816-.573 1.794-.43 3.516.43 4.663.717.933 1.792 1.435 3.155 1.507 3.441 0 7.312-3.085 8.459-6.816.573-1.794.43-3.516-.431-4.664-.716-1.004-1.792-1.506-3.225-1.506 0 0 .071 0 0 0Z" fill="#1C1C1C"/></svg>