<svg width="110" height="27" fill="none" xmlns="http://www.w3.org/2000/svg"><path d="M45.093 14.069v7.89H41.11v-7.582c0-.596-.131-1.068-.396-1.416-.264-.35-.652-.524-1.162-.524-.715 0-1.685.358-2.91 1.072v8.453h-3.984V4.213l3.984-.282v6.435c.663-.357 1.35-.646 2.056-.867a6.773 6.773 0 0 1 2.03-.332c2.91-.002 4.366 1.634 4.366 4.901Zm13.48-10.137v18.027h-3.984V4.214l3.984-.282Zm8.631 5.26c1.26 0 2.325.29 3.192.868a5.38 5.38 0 0 1 1.954 2.324c.435.97.653 2.06.653 3.27v1.2H65.06c.374 1.447 1.463 2.17 3.269 2.17 1.175 0 2.34-.323 3.497-.97l1.124 2.782c-.58.427-1.29.767-2.133 1.023-.844.256-1.767.383-2.77.383-2.264 0-4.046-.57-5.349-1.711-1.302-1.141-1.954-2.723-1.954-4.75 0-1.328.271-2.49.818-3.485a5.652 5.652 0 0 1 2.286-2.299c.977-.536 2.096-.805 3.355-.805Zm-.101 3.296c-.562 0-1.033.191-1.416.574-.383.383-.61.89-.676 1.52h4.188c-.1-.63-.327-1.137-.675-1.52-.353-.383-.825-.574-1.421-.574Zm12.333.126c-.493 0-1.055.078-1.686.23-.63.154-1.183.34-1.66.563l-1.07-3.065c.56-.306 1.336-.575 2.324-.805.988-.23 1.872-.345 2.656-.345 1.037 0 1.956.205 2.757.614a4.42 4.42 0 0 1 1.85 1.724c.435.74.653 1.588.653 2.54v7.89h-2.224l-.944-1.302c-.92 1.056-1.933 1.584-3.04 1.584-1.498 0-2.63-.37-3.396-1.11-.766-.741-1.15-1.75-1.15-3.027 0-1.259.427-2.204 1.277-2.835.85-.63 2.017-.944 3.498-.944h1.941c-.034-.545-.209-.967-.523-1.264-.314-.299-.736-.447-1.263-.447Zm-.127 4.111c-.427 0-.77.127-1.034.384a1.291 1.291 0 0 0-.396.97c0 .306.11.57.332.792.222.222.51.332.867.332.75 0 1.472-.323 2.17-.97v-1.508h-1.94ZM93.9 13.266a7.988 7.988 0 0 0-2.08 1.29v7.406h-4.01V9.6h2.042l1.124 1.763a10.894 10.894 0 0 1 2.068-1.238c.783-.366 1.49-.549 2.12-.549l.792 3.192c-.596-.002-1.28.164-2.055.497Zm10.561-.831c-.715 0-1.686.357-2.91 1.072v8.452h-4.01V9.575h2.477l.689 1.302c.749-.51 1.563-.923 2.439-1.238.876-.314 1.706-.471 2.49-.471 1.532 0 2.643.439 3.332 1.315.688.876 1.033 2.073 1.033 3.588v7.89h-4.01v-7.584c0-.597-.127-1.068-.383-1.417-.254-.35-.637-.525-1.147-.525ZM51.884 5.669c0 .596-.218 1.11-.652 1.545a2.14 2.14 0 0 1-1.572.652c-.596 0-1.11-.217-1.545-.652-.435-.435-.652-.95-.652-1.545 0-.614.217-1.137.652-1.572.435-.434.95-.652 1.545-.652a2.14 2.14 0 0 1 1.572.652c.434.435.652.958.652 1.572Zm-.202 3.906h-4.01V21.96h4.01V9.575Z" fill="#383A3E"/><path d="M1.317 20.533H0V0h8.344v7.905h5.71V0h8.343v12.735H21.08V1.317h-5.708v7.906H7.027V1.317h-5.71v19.216Z" fill="#EEBD20"/><path d="M1.33 20.533c-.738 0-.72-.037-.785-.048l.23-1.298c.011.002 1.317.218 3.19-.165 2.5-.515 4.778-1.8 6.767-3.818 4.554-4.63 10.835-3.814 11.101-3.778l-.18 1.304.09-.652-.09.652c-.011-.002-.607.018-.607.018-1.574-.071-6.044-.007-9.376 3.379a14.637 14.637 0 0 1-10.34 4.406ZM.047 24.179v-1.38c.077-.006 8.486-.635 12.016-3.977 3.892-3.687 10.026-3.73 10.26-3.73v1.317c-.051 0-5.852.05-9.354 3.368C9.097 23.447.387 24.155.047 24.18Zm1.823 2.178c-.738 0-1.752-.101-1.823-.108v-1.28c.067.004 7.389.445 11.952-2.08 4.905-2.713 10.124-2.466 10.324-2.453v1.38c-.045-.002-5.133-.293-9.687 2.227-3.698 2.045-8.502 2.314-10.766 2.314Z" fill="#EEBD20"/></svg>