<svg width="170" height="38" fill="none" xmlns="http://www.w3.org/2000/svg"><g clip-path="url(#a)" fill-rule="evenodd" clip-rule="evenodd"><path d="M135.336 10.915c-.035-1.077.817-1.925 1.942-1.932 1.092-.007 1.909.793 1.91 1.867 0 1.088-.786 1.878-1.885 1.892-1.09.015-1.932-.768-1.967-1.827Zm-69.414-.802c.315-.225.69-.308 1.082-.32.374-.01.763.045 1.13.104l.002 7.997.001 8.048h-3.216l-.023-4.398-.024-4.421c-.963.971-1.725 2.105-2.487 3.239-.655.974-1.31 1.95-2.094 2.823-.185.206-.397.416-.672.465-.489.085-.886-.363-1.17-.76l-2.128-2.977-2.124-2.972-.035 9.013-3.194.004-.002-.431a2637.866 2637.866 0 0 1-.011-12.326v-.059c0-.494 0-.988.002-1.481l.002-.77c0-.075-.003-.153-.007-.232a2.393 2.393 0 0 1 .012-.497c.055-.32.55-.393.822-.403.41-.016.824.112 1.166.33.567.359.965.918 1.35 1.463l2.622 3.72 2.621 3.719 1.91-2.717 3.823-5.439c.185-.264.376-.534.642-.723Zm37.173 6.23c-1.615-.007-2.886 1.003-3.075 2.465h5.955c-.15-1.454-1.335-2.458-2.88-2.465Zm-4.335-1.02c1.827-1.692 5.075-2.03 7.376-.84 2.126 1.101 3.313 3.535 2.963 6.09a2.35 2.35 0 0 1-.092.366 4.942 4.942 0 0 0-.066.224h-8.911c.349 2.633 3.424 3.209 7.372 1.361l.891 1.555.319.556c-1.824 1.227-3.773 1.755-5.899 1.616-2.705-.177-4.758-1.38-5.618-3.975-.856-2.587-.436-5.01 1.665-6.954Zm22.169-1.225c-.51-.012-1.021-.02-1.532-.03-.289-.004-.595-.005-.846.137-.35.197-.497.61-.619.986-.72 2.23-1.496 4.444-2.328 6.636a778.796 778.796 0 0 0-2.889-7.081c-.082-.196-.172-.404-.352-.52-.173-.112-.394-.116-.601-.116l-1.558-.001h-.779l-.124-.001c-.083-.001-.166-.002-.249 0h-.01c-.136.004-.166.005-.127.14.047.16.127.319.206.476.038.077.077.153.11.229.072.157.143.316.214.474l.103.23.633 1.41.568 1.266 1.962 4.37.376.839.002.005.002.002.001.003.63 1.406c.154.342.31.696.313 1.07.002.37-.151.73-.365 1.037-.784 1.123-2.471 1.525-3.693.88l-.266 1.274-.262 1.253c1.256.685 2.839.84 4.15.263.968-.427 1.735-1.215 2.3-2.096.566-.881.949-1.86 1.328-2.833l2.282-5.844 2.282-5.844-.851-.02h-.011Zm-48.159 5.88c-.022 1.968 1.469 3.506 3.374 3.483 1.88-.023 3.353-1.543 3.347-3.453a3.372 3.372 0 0 0-3.353-3.359 3.333 3.333 0 0 0-3.368 3.328Zm-3.154.033c.006-3.583 2.768-6.222 6.521-6.229 3.67-.007 6.487 2.673 6.503 6.183.016 3.634-2.766 6.358-6.493 6.358-3.77-.001-6.537-2.675-6.531-6.312Zm76.952 3.45c-1.89-.028-3.325-1.533-3.31-3.47a3.336 3.336 0 0 1 3.354-3.342c1.875-.004 3.391 1.537 3.367 3.422-.026 1.906-1.546 3.418-3.411 3.39Zm.101-9.679c-3.753-.016-6.545 2.615-6.564 6.186-.019 3.65 2.723 6.337 6.486 6.355 3.74.017 6.512-2.661 6.538-6.316.025-3.494-2.792-6.208-6.46-6.225Zm-59.404 1.615c1.403-1.647 3.219-1.947 5.186-1.37 1.94.571 2.988 2.032 3.082 3.948.09 1.846.07 3.698.05 5.566-.01.806-.018 1.615-.018 2.428h-3.127v-.834c-.002-.588 0-1.176 0-1.763.003-1.365.006-2.73-.026-4.093-.04-1.695-1.012-2.658-2.567-2.654-1.525.004-2.655 1.081-2.7 2.69-.037 1.348-.034 2.697-.032 4.047.002.577.003 1.154 0 1.73v.881H83.99V14.158h2.993l.027.585v.024l.003.042v.008l.03.681c.034-.014.066-.025.095-.035.055-.02.1-.035.127-.066Zm78.781 2.78c-.074-1.942-1.041-3.418-2.982-4.121-1.89-.685-3.887-.194-5.235 1.24a1.19 1.19 0 0 1-.179.142c-.036.025-.075.052-.116.083l-.068-1.381h-2.964v11.82h3.1v-.977a208.2 208.2 0 0 0 0-1.767c-.004-1.364-.008-2.727.047-4.087.062-1.527 1.267-2.537 2.796-2.504 1.438.032 2.363.98 2.457 2.527.019.312.022.625.023.937l.001 4.07v1.799h3.145c0-.796.006-1.586.013-2.372.016-1.818.031-3.615-.038-5.41ZM122.883 9.9h3.223v12.97h8.349v3.098h-11.572V9.899Zm12.847 16.073h3.067v-11.82h-3.067v11.82Z" fill="#000"/><path d="M13.47 2.713c-.518.303-1.008.588-1.41.752-.441.179-1.018.327-1.628.484-1.537.394-3.448.884-4.94 2.35-1.493 1.462-1.993 3.337-2.395 4.843-.16.6-.31 1.165-.494 1.599-.166.392-.456.872-.764 1.38C1.019 15.474 0 17.156 0 19.3c0 2.143 1.019 3.825 1.837 5.177.309.509.6.989.766 1.383.183.433.334.999.494 1.598.402 1.506.901 3.38 2.394 4.845 1.493 1.464 3.404 1.954 4.939 2.348.614.158 1.19.305 1.63.485.402.163.891.448 1.41.75 1.378.803 3.094 1.803 5.278 1.803 2.185 0 3.901-1 5.28-1.803.52-.303 1.009-.588 1.409-.75.44-.18 1.015-.327 1.624-.484 1.542-.395 3.452-.885 4.944-2.349 1.493-1.464 1.993-3.338 2.395-4.844.16-.6.311-1.166.494-1.598.167-.395.458-.875.766-1.383.818-1.353 1.837-3.035 1.837-5.178 0-2.142-1.019-3.824-1.837-5.176-.308-.51-.6-.99-.766-1.383-.183-.434-.334-1-.493-1.598-.403-1.508-.903-3.382-2.396-4.845-1.492-1.465-3.403-1.955-4.939-2.349-.61-.157-1.187-.305-1.629-.484-.402-.164-.892-.45-1.41-.752-1.379-.802-3.094-1.8-5.279-1.8-2.184 0-3.899.998-5.278 1.8Zm-1.864 10.185c-.252-.06-.51-.142-.704-.312-.804-.707.511-1.196 1.061-1.327 2.754-.653 5.588-.956 8.42-.993 1.538-.02 3.09.04 4.585.4.671.16 1.343.391 1.881.82.262.209.497.483.54.811.04.328-.18.7-.515.731a1.15 1.15 0 0 1-.346-.041c-.18-.04-.357-.082-.502.015-.184.123-.186.387-.134.598.309 1.236 1.719 1.952 2.108 3.166.05.16.077.35-.032.48-.088.107-.239.136-.377.16-.643.106-1.293.214-1.945.188-.652-.026-1.316-.196-1.83-.592-.747-.578-1.066-1.533-1.663-2.26-.644-.784-1.595-1.27-2.598-1.519a6.512 6.512 0 0 0-.598-.12c-1.214-.19-2.453-.096-3.68-.026-.488.028-.978.051-1.468.051-.743 0-1.483-.054-2.203-.23Zm2.256 6.373c-.352-.095-.722-.215-.96-.488-.465-.536-.262-1.53.17-2.028.483-.556 1.305-.76 2.003-.896a18.102 18.102 0 0 1 3.772-.322c.521.01 1.074.053 1.5.35.493.346.704.953.886 1.52.033.104.068.211.074.318a.52.52 0 0 1-.014.168c-.04.152-.16.271-.279.376-.935.825-2.174 1.273-3.425 1.395a7.952 7.952 0 0 1-.786.038c-.992 0-1.983-.172-2.94-.43Zm15.583 4.376a.474.474 0 0 1-.2-.094c-.344-.235-.672-.505-.894-.854-.639-1.006-.58-2.74.378-3.518a.376.376 0 0 1 .179-.095c.097-.012.189.043.266.102.718.548.97 1.492 1.11 2.375.045.283.083.573.066.858a1.846 1.846 0 0 1-.037.282c-.077.374-.3.739-.654.9a.425.425 0 0 1-.178.046c-.012 0-.024 0-.036-.002Zm-6.81.43a3.444 3.444 0 0 1-.743-.078 27.71 27.71 0 0 1-1.648-.429 2.693 2.693 0 0 1-.67-.31c-.206-.13-.29-.345-.273-.592.013-.183.02-.365.03-.558 0-.173.007-.356 0-.54-.01-.254.068-.486.256-.653a3.28 3.28 0 0 1 .645-.468c.572-.3 1.155-.574 1.738-.85.516-.247 1.052-.299 1.602-.12.428.139.855.283 1.28.431.504.177.81.51.822 1.059.007.318.015.635.03.953.023.542-.245.92-.708 1.174-.454.248-.917.479-1.377.717a2.112 2.112 0 0 1-.977.263h-.008Zm2.475 4.795c-.396-.192-.78-.408-1.17-.61-.388-.199-.536-.51-.424-.922.128-.475.259-.949.395-1.42.119-.412.392-.714.755-.927a44.745 44.745 0 0 1 1.744-.964c.363-.192.732-.197 1.076.07.216.166.438.327.66.484.377.264.477.638.424 1.059-.062.491-.14.982-.224 1.47-.078.45-.31.808-.724 1.036-.414.229-.83.456-1.247.681a2.01 2.01 0 0 1-.73.22c-.179-.057-.368-.096-.535-.177Z" fill="url(#b)"/></g><defs><linearGradient id="b" x1="-5.947" y1="19.3" x2="46.514" y2="19.3" gradientUnits="userSpaceOnUse"><stop stop-color="#00CD87"/><stop offset="1" stop-color="#00C8D6"/></linearGradient><clipPath id="a"><path fill="#fff" transform="translate(0 .912)" d="M0 0h169.46v37H0z"/></clipPath></defs></svg>