<svg width="60" height="61" fill="none" xmlns="http://www.w3.org/2000/svg"><rect y=".912" width="60" height="60" rx="16" fill="#ECE6D5"/><g clip-path="url(#a)"><path d="M43.455 23.817a1.494 1.494 0 0 0 0-2.115l-4.245-4.245a1.494 1.494 0 0 0-2.115 0l-6.735 6.735-5.835-5.835a3.006 3.006 0 0 0-4.245 0l-2.85 2.85a3.006 3.006 0 0 0 0 4.245l5.835 5.835-6.765 6.765v6.36h6.36l6.78-6.78 5.835 5.835c1.425 1.425 3.345.9 4.245 0l2.85-2.85a3.006 3.006 0 0 0 0-4.245l-5.835-5.835 6.72-6.72Zm-23.895-.495 2.835-2.85 1.905 1.905-1.77 1.785 2.115 2.115 1.785-1.785 1.8 1.8-2.85 2.85-5.82-5.82Zm16.845 11.16-1.785 1.785 2.115 2.115 1.785-1.785 1.905 1.905-2.85 2.85-5.835-5.835 2.85-2.85 1.815 1.815Zm-14.79 6.93H19.5v-2.115l14.415-14.415 1.95 1.95.165.165-14.415 14.415Zm14.415-18.66 2.115-2.115 2.115 2.115-2.115 2.115-2.115-2.115Z" fill="#000"/></g><defs><clipPath id="a"><path fill="#fff" transform="translate(12 12.912)" d="M0 0h36v36H0z"/></clipPath></defs></svg>